MontaguSlab-ThinDisplay.ufo
<glyph name="exclam" format="2">
  <advance width="338"/>
  <unicode hex="0021"/>
  <outline>
    <contour>
      <point x="189" y="380" type="line"/>
      <point x="195" y="1289"/>
      <point x="195" y="1395"/>
      <point x="195" y="1481" type="curve" smooth="yes"/>
      <point x="195" y="1503"/>
      <point x="186" y="1516"/>
      <point x="169" y="1516" type="curve" smooth="yes"/>
      <point x="152" y="1516"/>
      <point x="143" y="1503"/>
      <point x="143" y="1481" type="curve" smooth="yes"/>
      <point x="143" y="1395"/>
      <point x="143" y="1289"/>
      <point x="149" y="380" type="curve"/>
    </contour>
    <contour>
      <point x="169" y="-16" type="curve" smooth="yes"/>
      <point x="205" y="-16"/>
      <point x="228" y="10"/>
      <point x="228" y="46" type="curve" smooth="yes"/>
      <point x="228" y="82"/>
      <point x="205" y="108"/>
      <point x="169" y="108" type="curve" smooth="yes"/>
      <point x="133" y="108"/>
      <point x="110" y="82"/>
      <point x="110" y="46" type="curve" smooth="yes"/>
      <point x="110" y="10"/>
      <point x="133" y="-16"/>
    </contour>
  </outline>
</glyph>
<glyph name="numbersign" format="2">
  <advance width="1268"/>
  <unicode hex="0023"/>
  <outline>
    <contour>
      <point x="469" y="1500" type="line"/>
      <point x="297" y="0" type="line"/>
      <point x="337" y="0" type="line"/>
      <point x="509" y="1500" type="line"/>
    </contour>
    <contour>
      <point x="931" y="1500" type="line"/>
      <point x="759" y="0" type="line"/>
      <point x="799" y="0" type="line"/>
      <point x="971" y="1500" type="line"/>
    </contour>
    <contour>
      <point x="64" y="1080" type="line"/>
      <point x="64" y="1044" type="line"/>
      <point x="1204" y="1044" type="line"/>
      <point x="1204" y="1080" type="line"/>
    </contour>
    <contour>
      <point x="64" y="456" type="line"/>
      <point x="64" y="420" type="line"/>
      <point x="1204" y="420" type="line"/>
      <point x="1204" y="456" type="line"/>
    </contour>
  </outline>
</glyph>
<glyph name="parenleft" format="2">
  <advance width="510"/>
  <unicode hex="0028"/>
  <outline>
    <contour>
      <point x="437" y="1560" type="line"/>
      <point x="294" y="1341"/>
      <point x="140" y="1026"/>
      <point x="138" y="570" type="curve"/>
      <point x="186" y="570" type="line"/>
      <point x="186" y="1013"/>
      <point x="330" y="1321"/>
      <point x="484" y="1560" type="curve"/>
    </contour>
    <contour>
      <point x="437" y="-420" type="curve"/>
      <point x="484" y="-420" type="line"/>
      <point x="330" y="-181"/>
      <point x="186" y="127"/>
      <point x="186" y="570" type="curve"/>
      <point x="138" y="570" type="line"/>
      <point x="140" y="114"/>
      <point x="294" y="-201"/>
    </contour>
  </outline>
</glyph>
<glyph name="asterisk" format="2">
  <advance width="988"/>
  <unicode hex="002A"/>
  <outline>
    <contour>
      <point x="494" y="1524" type="curve" smooth="yes"/>
      <point x="478" y="1524"/>
      <point x="469" y="1512"/>
      <point x="469" y="1489" type="curve" smooth="yes"/>
      <point x="469" y="1447"/>
      <point x="476" y="1275"/>
      <point x="483" y="1100" type="curve"/>
      <point x="505" y="1100" type="line"/>
      <point x="512" y="1275"/>
      <point x="519" y="1447"/>
      <point x="519" y="1489" type="curve" smooth="yes"/>
      <point x="519" y="1512"/>
      <point x="510" y="1524"/>
    </contour>
    <contour>
      <point x="494" y="676" type="curve" smooth="yes"/>
      <point x="510" y="676"/>
      <point x="519" y="688"/>
      <point x="519" y="711" type="curve" smooth="yes"/>
      <point x="519" y="753"/>
      <point x="512" y="925"/>
      <point x="505" y="1100" type="curve"/>
      <point x="483" y="1100" type="line"/>
      <point x="476" y="925"/>
      <point x="469" y="753"/>
      <point x="469" y="711" type="curve" smooth="yes"/>
      <point x="469" y="688"/>
      <point x="478" y="676"/>
    </contour>
    <contour>
      <point x="918" y="1100" type="curve" smooth="yes"/>
      <point x="918" y="1116"/>
      <point x="906" y="1125"/>
      <point x="883" y="1125" type="curve" smooth="yes"/>
      <point x="841" y="1125"/>
      <point x="669" y="1118"/>
      <point x="494" y="1111" type="curve"/>
      <point x="494" y="1089" type="line"/>
      <point x="669" y="1082"/>
      <point x="841" y="1075"/>
      <point x="883" y="1075" type="curve" smooth="yes"/>
      <point x="906" y="1075"/>
      <point x="918" y="1084"/>
    </contour>
    <contour>
      <point x="70" y="1100" type="curve" smooth="yes"/>
      <point x="70" y="1084"/>
      <point x="82" y="1075"/>
      <point x="105" y="1075" type="curve" smooth="yes"/>
      <point x="147" y="1075"/>
      <point x="319" y="1082"/>
      <point x="494" y="1089" type="curve"/>
      <point x="494" y="1111" type="line"/>
      <point x="319" y="1118"/>
      <point x="147" y="1125"/>
      <point x="105" y="1125" type="curve" smooth="yes"/>
      <point x="82" y="1125"/>
      <point x="70" y="1116"/>
    </contour>
    <contour>
      <point x="794" y="1400" type="curve" smooth="yes"/>
      <point x="782" y="1411"/>
      <point x="768" y="1409"/>
      <point x="751" y="1393" type="curve" smooth="yes"/>
      <point x="722" y="1363"/>
      <point x="605" y="1236"/>
      <point x="486" y="1108" type="curve"/>
      <point x="502" y="1092" type="line"/>
      <point x="630" y="1211"/>
      <point x="757" y="1328"/>
      <point x="787" y="1357" type="curve" smooth="yes"/>
      <point x="803" y="1374"/>
      <point x="805" y="1388"/>
    </contour>
    <contour>
      <point x="194" y="800" type="curve" smooth="yes"/>
      <point x="206" y="789"/>
      <point x="220" y="791"/>
      <point x="237" y="807" type="curve" smooth="yes"/>
      <point x="266" y="837"/>
      <point x="383" y="964"/>
      <point x="502" y="1092" type="curve"/>
      <point x="486" y="1108" type="line"/>
      <point x="358" y="989"/>
      <point x="231" y="872"/>
      <point x="201" y="843" type="curve" smooth="yes"/>
      <point x="185" y="826"/>
      <point x="183" y="812"/>
    </contour>
    <contour>
      <point x="794" y="800" type="curve" smooth="yes"/>
      <point x="805" y="812"/>
      <point x="803" y="826"/>
      <point x="787" y="843" type="curve" smooth="yes"/>
      <point x="757" y="872"/>
      <point x="630" y="989"/>
      <point x="502" y="1108" type="curve"/>
      <point x="486" y="1092" type="line"/>
      <point x="605" y="964"/>
      <point x="722" y="837"/>
      <point x="751" y="807" type="curve" smooth="yes"/>
      <point x="768" y="791"/>
      <point x="782" y="789"/>
    </contour>
    <contour>
      <point x="194" y="1400" type="curve" smooth="yes"/>
      <point x="183" y="1388"/>
      <point x="185" y="1374"/>
      <point x="201" y="1357" type="curve" smooth="yes"/>
      <point x="231" y="1328"/>
      <point x="358" y="1211"/>
      <point x="486" y="1092" type="curve"/>
      <point x="502" y="1108" type="line"/>
      <point x="383" y="1236"/>
      <point x="266" y="1363"/>
      <point x="237" y="1393" type="curve" smooth="yes"/>
      <point x="220" y="1409"/>
      <point x="206" y="1411"/>
    </contour>
  </outline>
</glyph>
<glyph name="comma" format="2">
  <advance width="347"/>
  <unicode hex="002C"/>
  <outline>
    <contour>
      <point x="116" y="-200" type="curve"/>
      <point x="159" y="-200" type="line"/>
      <point x="216" y="-119"/>
      <point x="237" y="-44"/>
      <point x="237" y="27" type="curve" smooth="yes"/>
      <point x="237" y="84"/>
      <point x="205" y="108"/>
      <point x="169" y="108" type="curve" smooth="yes"/>
      <point x="137" y="108"/>
      <point x="110" y="89"/>
      <point x="110" y="51" type="curve" smooth="yes"/>
      <point x="110" y="13"/>
      <point x="138" y="-12"/>
      <point x="192" y="-12" type="curve"/>
      <point x="186" y="-80"/>
      <point x="165" y="-126"/>
    </contour>
  </outline>
</glyph>
<glyph name="hyphen" format="2">
  <advance width="876"/>
  <unicode hex="002D"/>
  <outline>
    <contour>
      <point x="120" y="590" type="line"/>
      <point x="120" y="550" type="line"/>
      <point x="756" y="550" type="line"/>
      <point x="756" y="590" type="line"/>
    </contour>
  </outline>
</glyph>
<glyph name="period" format="2">
  <advance width="338"/>
  <unicode hex="002E"/>
  <outline>
    <contour>
      <point x="169" y="-16" type="curve" smooth="yes"/>
      <point x="205" y="-16"/>
      <point x="228" y="10"/>
      <point x="228" y="46" type="curve" smooth="yes"/>
      <point x="228" y="82"/>
      <point x="205" y="108"/>
      <point x="169" y="108" type="curve" smooth="yes"/>
      <point x="133" y="108"/>
      <point x="110" y="82"/>
      <point x="110" y="46" type="curve" smooth="yes"/>
      <point x="110" y="10"/>
      <point x="133" y="-16"/>
    </contour>
  </outline>
</glyph>
<glyph name="slash" format="2">
  <advance width="519"/>
  <unicode hex="002F"/>
  <outline>
    <contour>
      <point x="452" y="1500" type="line"/>
      <point x="22" y="-440" type="line"/>
      <point x="63" y="-440" type="line"/>
      <point x="493" y="1500" type="line"/>
    </contour>
  </outline>
</glyph>
<glyph name="zero" format="2">
  <advance width="1320"/>
  <unicode hex="0030"/>
  <anchor x="660" y="750" name="center"/>
  <outline>
    <contour>
      <point x="660" y="-24" type="curve" smooth="yes"/>
      <point x="988" y="-24"/>
      <point x="1198" y="260"/>
      <point x="1198" y="750" type="curve" smooth="yes"/>
      <point x="1198" y="1240"/>
      <point x="988" y="1524"/>
      <point x="660" y="1524" type="curve" smooth="yes"/>
      <point x="332" y="1524"/>
      <point x="122" y="1240"/>
      <point x="122" y="750" type="curve" smooth="yes"/>
      <point x="122" y="260"/>
      <point x="332" y="-24"/>
    </contour>
    <contour>
      <point x="660" y="14" type="curve" smooth="yes"/>
      <point x="349" y="14"/>
      <point x="170" y="304"/>
      <point x="170" y="750" type="curve" smooth="yes"/>
      <point x="170" y="1196"/>
      <point x="349" y="1486"/>
      <point x="660" y="1486" type="curve" smooth="yes"/>
      <point x="971" y="1486"/>
      <point x="1150" y="1196"/>
      <point x="1150" y="750" type="curve" smooth="yes"/>
      <point x="1150" y="304"/>
      <point x="971" y="14"/>
    </contour>
  </outline>
</glyph>
<glyph name="one" format="2">
  <advance width="771"/>
  <unicode hex="0031"/>
  <outline>
    <contour>
      <point x="448" y="1500" type="line"/>
      <point x="448" y="1460" type="line" smooth="yes"/>
      <point x="448" y="1287"/>
      <point x="419" y="1250"/>
      <point x="260" y="1250" type="curve" smooth="yes"/>
      <point x="70" y="1250" type="line"/>
      <point x="70" y="1212" type="line"/>
      <point x="444" y="1212" type="line"/>
      <point x="444" y="0" type="line"/>
      <point x="492" y="0" type="line"/>
      <point x="492" y="1500" type="line"/>
    </contour>
  </outline>
</glyph>
<glyph name="two" format="2">
  <advance width="1236"/>
  <unicode hex="0032"/>
  <outline>
    <contour>
      <point x="169" y="1102" type="curve" smooth="yes"/>
      <point x="169" y="1037"/>
      <point x="202" y="1000"/>
      <point x="246" y="1000" type="curve" smooth="yes"/>
      <point x="280" y="1000"/>
      <point x="300" y="1021"/>
      <point x="300" y="1055" type="curve" smooth="yes"/>
      <point x="300" y="1099"/>
      <point x="248" y="1124"/>
      <point x="197" y="1117" type="curve"/>
      <point x="214" y="1101" type="line"/>
      <point x="211" y="1372"/>
      <point x="422" y="1478"/>
      <point x="637" y="1478" type="curve" smooth="yes"/>
      <point x="852" y="1478"/>
      <point x="1041" y="1368"/>
      <point x="1039" y="1113" type="curve"/>
      <point x="1087" y="1113" type="line"/>
      <point x="1089" y="1387"/>
      <point x="894" y="1516"/>
      <point x="639" y="1516" type="curve" smooth="yes"/>
      <point x="382" y="1516"/>
      <point x="169" y="1385"/>
    </contour>
    <contour>
      <point x="1087" y="1113" type="curve"/>
      <point x="1039" y="1113" type="line"/>
      <point x="1041" y="860"/>
      <point x="821" y="742"/>
      <point x="677" y="655" type="curve" smooth="yes"/>
      <point x="507" y="553" type="line" smooth="yes"/>
      <point x="286" y="420"/>
      <point x="128" y="315"/>
      <point x="128" y="10" type="curve" smooth="yes"/>
      <point x="128" y="0" type="line"/>
      <point x="175" y="38" type="line"/>
      <point x="179" y="287"/>
      <point x="313" y="385"/>
      <point x="530" y="515" type="curve" smooth="yes"/>
      <point x="700" y="617" type="line" smooth="yes"/>
      <point x="855" y="710"/>
      <point x="1089" y="839"/>
    </contour>
    <contour>
      <point x="1098" y="0" type="line"/>
      <point x="1098" y="38" type="line"/>
      <point x="175" y="38" type="line"/>
      <point x="128" y="10" type="line"/>
      <point x="128" y="0" type="line"/>
    </contour>
    <contour>
      <point x="926" y="38" type="curve"/>
      <point x="1098" y="38" type="line"/>
      <point x="1098" y="390" type="line"/>
      <point x="1058" y="390" type="line"/>
      <point x="1058" y="178" type="line" smooth="yes"/>
      <point x="1058" y="66"/>
      <point x="1038" y="38"/>
    </contour>
  </outline>
</glyph>
<glyph name="three" format="2">
  <advance width="1210"/>
  <unicode hex="0033"/>
  <outline>
    <contour>
      <point x="98" y="468" type="line"/>
      <point x="106" y="146"/>
      <point x="328" y="-16"/>
      <point x="620" y="-16" type="curve" smooth="yes"/>
      <point x="918" y="-16"/>
      <point x="1106" y="151"/>
      <point x="1106" y="410" type="curve" smooth="yes"/>
      <point x="1106" y="661"/>
      <point x="935" y="860"/>
      <point x="488" y="824" type="curve"/>
      <point x="488" y="798" type="line"/>
      <point x="892" y="814"/>
      <point x="1058" y="647"/>
      <point x="1058" y="410" type="curve" smooth="yes"/>
      <point x="1058" y="183"/>
      <point x="898" y="22"/>
      <point x="620" y="22" type="curve" smooth="yes"/>
      <point x="349" y="22"/>
      <point x="148" y="180"/>
      <point x="138" y="468" type="curve"/>
    </contour>
    <contour>
      <point x="150" y="1164" type="curve" smooth="yes"/>
      <point x="150" y="1099"/>
      <point x="183" y="1062"/>
      <point x="227" y="1062" type="curve" smooth="yes"/>
      <point x="261" y="1062"/>
      <point x="281" y="1083"/>
      <point x="281" y="1117" type="curve" smooth="yes"/>
      <point x="281" y="1161"/>
      <point x="226" y="1186"/>
      <point x="177" y="1179" type="curve"/>
      <point x="192" y="1166" type="line"/>
      <point x="199" y="1381"/>
      <point x="384" y="1478"/>
      <point x="618" y="1478" type="curve" smooth="yes"/>
      <point x="844" y="1478"/>
      <point x="1006" y="1358"/>
      <point x="1006" y="1166" type="curve" smooth="yes"/>
      <point x="1006" y="952"/>
      <point x="836" y="838"/>
      <point x="488" y="838" type="curve"/>
      <point x="488" y="809" type="line"/>
      <point x="839" y="799"/>
      <point x="1054" y="909"/>
      <point x="1054" y="1166" type="curve" smooth="yes"/>
      <point x="1054" y="1383"/>
      <point x="872" y="1516"/>
      <point x="618" y="1516" type="curve" smooth="yes"/>
      <point x="357" y="1516"/>
      <point x="150" y="1396"/>
    </contour>
  </outline>
</glyph>
<glyph name="four" format="2">
  <advance width="1213"/>
  <unicode hex="0034"/>
  <outline>
    <contour>
      <point x="1180" y="490" type="line"/>
      <point x="1180" y="528" type="line"/>
      <point x="50" y="528" type="line"/>
      <point x="20" y="524" type="line"/>
      <point x="20" y="490" type="line"/>
    </contour>
    <contour>
      <point x="794" y="1500" type="line"/>
      <point x="790" y="1458" type="line"/>
      <point x="790" y="0" type="line"/>
      <point x="838" y="0" type="line"/>
      <point x="838" y="1500" type="line"/>
    </contour>
    <contour>
      <point x="795" y="1440" type="line"/>
      <point x="794" y="1500" type="line"/>
      <point x="20" y="524" type="line"/>
      <point x="69" y="524" type="line"/>
    </contour>
  </outline>
</glyph>
<glyph name="five" format="2">
  <advance width="1276"/>
  <unicode hex="0035"/>
  <outline>
    <contour>
      <point x="142" y="478" type="line"/>
      <point x="147" y="190"/>
      <point x="335" y="-16"/>
      <point x="642" y="-16" type="curve" smooth="yes"/>
      <point x="955" y="-16"/>
      <point x="1144" y="190"/>
      <point x="1144" y="488" type="curve" smooth="yes"/>
      <point x="1144" y="786"/>
      <point x="931" y="979"/>
      <point x="663" y="979" type="curve" smooth="yes"/>
      <point x="432" y="979"/>
      <point x="300" y="865"/>
      <point x="212" y="742" type="curve"/>
      <point x="227" y="702" type="line"/>
      <point x="314" y="829"/>
      <point x="457" y="941"/>
      <point x="659" y="941" type="curve" smooth="yes"/>
      <point x="907" y="941"/>
      <point x="1096" y="752"/>
      <point x="1096" y="488" type="curve" smooth="yes"/>
      <point x="1096" y="224"/>
      <point x="939" y="22"/>
      <point x="642" y="22" type="curve" smooth="yes"/>
      <point x="361" y="22"/>
      <point x="193" y="224"/>
      <point x="182" y="478" type="curve"/>
    </contour>
    <contour>
      <point x="259" y="1500" type="line"/>
      <point x="191" y="702" type="line"/>
      <point x="227" y="702" type="line"/>
      <point x="240" y="736" type="line"/>
      <point x="305" y="1500" type="line"/>
    </contour>
    <contour>
      <point x="1075" y="1500" type="line"/>
      <point x="259" y="1500" type="line"/>
      <point x="285" y="1462" type="line"/>
      <point x="1075" y="1462" type="line"/>
    </contour>
    <contour>
      <point x="903" y="1462" type="line"/>
      <point x="1015" y="1462"/>
      <point x="1035" y="1434"/>
      <point x="1035" y="1322" type="curve" smooth="yes"/>
      <point x="1035" y="1190" type="line"/>
      <point x="1075" y="1190" type="line"/>
      <point x="1075" y="1462" type="line"/>
    </contour>
  </outline>
</glyph>
<glyph name="six" format="2">
  <advance width="1236"/>
  <unicode hex="0036"/>
  <outline>
    <contour>
      <point x="644" y="-16" type="curve" smooth="yes"/>
      <point x="921" y="-16"/>
      <point x="1120" y="164"/>
      <point x="1120" y="460" type="curve" smooth="yes"/>
      <point x="1120" y="756"/>
      <point x="921" y="936"/>
      <point x="644" y="936" type="curve" smooth="yes"/>
      <point x="356" y="936"/>
      <point x="189" y="753"/>
      <point x="175" y="477" type="curve"/>
      <point x="122" y="671" type="line"/>
      <point x="122" y="225"/>
      <point x="306" y="-16"/>
    </contour>
    <contour>
      <point x="644" y="22" type="curve" smooth="yes"/>
      <point x="394" y="22"/>
      <point x="216" y="185"/>
      <point x="216" y="460" type="curve" smooth="yes"/>
      <point x="216" y="735"/>
      <point x="394" y="898"/>
      <point x="644" y="898" type="curve" smooth="yes"/>
      <point x="894" y="898"/>
      <point x="1072" y="735"/>
      <point x="1072" y="460" type="curve" smooth="yes"/>
      <point x="1072" y="185"/>
      <point x="894" y="22"/>
    </contour>
    <contour>
      <point x="1077" y="1182" type="curve" smooth="yes"/>
      <point x="1077" y="1407"/>
      <point x="907" y="1516"/>
      <point x="681" y="1516" type="curve" smooth="yes"/>
      <point x="354" y="1516"/>
      <point x="122" y="1253"/>
      <point x="122" y="671" type="curve"/>
      <point x="175" y="477" type="line"/>
      <point x="119" y="1215"/>
      <point x="384" y="1478"/>
      <point x="683" y="1478" type="curve" smooth="yes"/>
      <point x="863" y="1478"/>
      <point x="1035" y="1395"/>
      <point x="1032" y="1181" type="curve"/>
      <point x="1049" y="1197" type="line"/>
      <point x="998" y="1204"/>
      <point x="946" y="1179"/>
      <point x="946" y="1135" type="curve" smooth="yes"/>
      <point x="946" y="1101"/>
      <point x="966" y="1080"/>
      <point x="1000" y="1080" type="curve" smooth="yes"/>
      <point x="1044" y="1080"/>
      <point x="1077" y="1117"/>
    </contour>
  </outline>
</glyph>
<glyph name="seven" format="2">
  <advance width="1194"/>
  <unicode hex="0037"/>
  <outline>
    <contour>
      <point x="98" y="1500" type="line"/>
      <point x="98" y="1462" type="line"/>
      <point x="1082" y="1462" type="line"/>
      <point x="1138" y="1466" type="line"/>
      <point x="1138" y="1500" type="line"/>
    </contour>
    <contour>
      <point x="470" y="0" type="curve"/>
      <point x="518" y="0" type="line"/>
      <point x="550" y="681"/>
      <point x="837" y="1080"/>
      <point x="1138" y="1466" type="curve"/>
      <point x="1082" y="1462" type="line"/>
      <point x="820" y="1127"/>
      <point x="500" y="704"/>
    </contour>
    <contour>
      <point x="270" y="1462" type="curve"/>
      <point x="98" y="1462" type="line"/>
      <point x="98" y="1120" type="line"/>
      <point x="138" y="1120" type="line"/>
      <point x="138" y="1322" type="line" smooth="yes"/>
      <point x="138" y="1434"/>
      <point x="158" y="1462"/>
    </contour>
  </outline>
</glyph>
<glyph name="eight" format="2">
  <advance width="1288"/>
  <unicode hex="0038"/>
  <outline>
    <contour>
      <point x="164" y="1149" type="curve" smooth="yes"/>
      <point x="164" y="909"/>
      <point x="387" y="798"/>
      <point x="599" y="769" type="curve" smooth="yes"/>
      <point x="680" y="758" type="line" smooth="yes"/>
      <point x="905" y="727"/>
      <point x="1134" y="621"/>
      <point x="1134" y="391" type="curve" smooth="yes"/>
      <point x="1134" y="161"/>
      <point x="936" y="24"/>
      <point x="644" y="24" type="curve" smooth="yes"/>
      <point x="352" y="24"/>
      <point x="154" y="161"/>
      <point x="154" y="391" type="curve" smooth="yes"/>
      <point x="154" y="627"/>
      <point x="385" y="753"/>
      <point x="616" y="774" type="curve"/>
      <point x="599" y="808" type="line"/>
      <point x="351" y="787"/>
      <point x="106" y="662"/>
      <point x="106" y="391" type="curve" smooth="yes"/>
      <point x="106" y="125"/>
      <point x="322" y="-16"/>
      <point x="644" y="-16" type="curve" smooth="yes"/>
      <point x="966" y="-16"/>
      <point x="1182" y="125"/>
      <point x="1182" y="391" type="curve" smooth="yes"/>
      <point x="1182" y="657"/>
      <point x="931" y="766"/>
      <point x="689" y="799" type="curve" smooth="yes"/>
      <point x="608" y="810" type="line" smooth="yes"/>
      <point x="404" y="838"/>
      <point x="212" y="941"/>
      <point x="212" y="1149" type="curve" smooth="yes"/>
      <point x="212" y="1357"/>
      <point x="406" y="1476"/>
      <point x="644" y="1476" type="curve" smooth="yes"/>
      <point x="882" y="1476"/>
      <point x="1076" y="1357"/>
      <point x="1076" y="1149" type="curve" smooth="yes"/>
      <point x="1076" y="944"/>
      <point x="911" y="831"/>
      <point x="677" y="792" type="curve"/>
      <point x="692" y="761" type="line"/>
      <point x="927" y="794"/>
      <point x="1124" y="911"/>
      <point x="1124" y="1149" type="curve" smooth="yes"/>
      <point x="1124" y="1389"/>
      <point x="904" y="1516"/>
      <point x="644" y="1516" type="curve" smooth="yes"/>
      <point x="384" y="1516"/>
      <point x="164" y="1389"/>
    </contour>
  </outline>
</glyph>
<glyph name="question" format="2">
  <advance width="1050"/>
  <unicode hex="003F"/>
  <outline>
    <contour>
      <point x="528" y="-16" type="curve" smooth="yes"/>
      <point x="564" y="-16"/>
      <point x="587" y="10"/>
      <point x="587" y="46" type="curve" smooth="yes"/>
      <point x="587" y="82"/>
      <point x="564" y="108"/>
      <point x="528" y="108" type="curve" smooth="yes"/>
      <point x="492" y="108"/>
      <point x="469" y="82"/>
      <point x="469" y="46" type="curve" smooth="yes"/>
      <point x="469" y="10"/>
      <point x="492" y="-16"/>
    </contour>
    <contour>
      <point x="90" y="1142" type="curve" smooth="yes"/>
      <point x="90" y="1077"/>
      <point x="123" y="1040"/>
      <point x="167" y="1040" type="curve" smooth="yes"/>
      <point x="201" y="1040"/>
      <point x="221" y="1061"/>
      <point x="221" y="1095" type="curve" smooth="yes"/>
      <point x="221" y="1139"/>
      <point x="169" y="1164"/>
      <point x="118" y="1157" type="curve"/>
      <point x="135" y="1141" type="line"/>
      <point x="133" y="1383"/>
      <point x="329" y="1478"/>
      <point x="528" y="1478" type="curve" smooth="yes"/>
      <point x="743" y="1478"/>
      <point x="932" y="1374"/>
      <point x="930" y="1143" type="curve"/>
      <point x="978" y="1143" type="line"/>
      <point x="980" y="1393"/>
      <point x="785" y="1516"/>
      <point x="530" y="1516" type="curve" smooth="yes"/>
      <point x="290" y="1516"/>
      <point x="90" y="1398"/>
    </contour>
    <contour>
      <point x="978" y="1143" type="curve"/>
      <point x="930" y="1143" type="line"/>
      <point x="932" y="939"/>
      <point x="769" y="821"/>
      <point x="641" y="732" type="curve" smooth="yes"/>
      <point x="512" y="642"/>
      <point x="490" y="544"/>
      <point x="504" y="380" type="curve"/>
      <point x="544" y="380" type="line"/>
      <point x="537" y="543"/>
      <point x="547" y="612"/>
      <point x="666" y="696" type="curve" smooth="yes"/>
      <point x="799" y="790"/>
      <point x="978" y="914"/>
    </contour>
  </outline>
</glyph>
<glyph name="A" format="2">
  <advance width="1654"/>
  <unicode hex="0041"/>
  <anchor x="827" y="0" name="bottom"/>
  <anchor x="1543" y="0" name="ogonek"/>
  <anchor x="827" y="1500" name="top"/>
  <outline>
    <contour>
      <point x="197" y="0" type="line"/>
      <point x="240" y="0" type="line"/>
      <point x="831" y="1453" type="line"/>
      <point x="814" y="1453" type="line"/>
      <point x="1405" y="0" type="line"/>
      <point x="1457" y="0" type="line"/>
      <point x="845" y="1500" type="line"/>
      <point x="809" y="1500" type="line"/>
    </contour>
    <contour>
      <point x="1213" y="520" type="line"/>
      <point x="1213" y="558" type="line"/>
      <point x="437" y="558" type="line"/>
      <point x="437" y="520" type="line"/>
    </contour>
  </outline>
</glyph>
<glyph name="B" format="2">
  <advance width="1459"/>
  <unicode hex="0042"/>
  <anchor x="730" y="0" name="bottom"/>
  <anchor x="730" y="1500" name="top"/>
  <outline>
    <contour>
      <point x="347" y="1500" type="line"/>
      <point x="347" y="1462" type="line"/>
      <point x="853" y="1462" type="line" smooth="yes"/>
      <point x="1101" y="1462"/>
      <point x="1257" y="1347"/>
      <point x="1257" y="1122" type="curve" smooth="yes"/>
      <point x="1257" y="897"/>
      <point x="1101" y="781"/>
      <point x="853" y="781" type="curve" smooth="yes"/>
      <point x="347" y="781" type="line"/>
      <point x="347" y="758" type="line"/>
      <point x="865" y="757" type="line" smooth="yes"/>
      <point x="1139" y="756"/>
      <point x="1305" y="881"/>
      <point x="1305" y="1121" type="curve" smooth="yes"/>
      <point x="1305" y="1371"/>
      <point x="1129" y="1500"/>
      <point x="865" y="1500" type="curve" smooth="yes"/>
    </contour>
    <contour>
      <point x="347" y="769" type="line"/>
      <point x="347" y="743" type="line"/>
      <point x="897" y="743" type="line" smooth="yes"/>
      <point x="1153" y="743"/>
      <point x="1313" y="623"/>
      <point x="1313" y="390" type="curve" smooth="yes"/>
      <point x="1313" y="157"/>
      <point x="1153" y="38"/>
      <point x="897" y="38" type="curve" smooth="yes"/>
      <point x="347" y="38" type="line"/>
      <point x="347" y="0" type="line"/>
      <point x="909" y="0" type="line" smooth="yes"/>
      <point x="1181" y="0"/>
      <point x="1361" y="133"/>
      <point x="1361" y="391" type="curve" smooth="yes"/>
      <point x="1361" y="643"/>
      <point x="1190" y="769"/>
      <point x="909" y="769" type="curve" smooth="yes"/>
    </contour>
    <contour>
      <point x="347" y="0" type="line"/>
      <point x="347" y="1500" type="line"/>
      <point x="299" y="1500" type="line"/>
      <point x="299" y="0" type="line"/>
    </contour>
  </outline>
</glyph>
<glyph name="C" format="2">
  <advance width="1610"/>
  <unicode hex="0043"/>
  <anchor x="806" y="0" name="bottom"/>
  <anchor x="848" y="1500" name="top"/>
  <outline>
    <contour>
      <point x="1406" y="940" type="curve"/>
      <point x="1432" y="940" type="line"/>
      <point x="1423" y="1287"/>
      <point x="1200" y="1524"/>
      <point x="824" y="1524" type="curve" smooth="yes"/>
      <point x="435" y="1524"/>
      <point x="132" y="1239"/>
      <point x="132" y="750" type="curve" smooth="yes"/>
      <point x="132" y="261"/>
      <point x="439" y="-24"/>
      <point x="834" y="-24" type="curve" smooth="yes"/>
      <point x="1237" y="-24"/>
      <point x="1452" y="262"/>
      <point x="1460" y="588" type="curve"/>
      <point x="1420" y="588" type="line"/>
      <point x="1408" y="279"/>
      <point x="1210" y="14"/>
      <point x="834" y="14" type="curve" smooth="yes"/>
      <point x="465" y="14"/>
      <point x="180" y="302"/>
      <point x="180" y="750" type="curve" smooth="yes"/>
      <point x="180" y="1198"/>
      <point x="461" y="1486"/>
      <point x="824" y="1486" type="curve" smooth="yes"/>
      <point x="1210" y="1486"/>
      <point x="1385" y="1223"/>
    </contour>
    <contour>
      <point x="1450" y="1500" type="line"/>
      <point x="1410" y="1500" type="line"/>
      <point x="1410" y="994" type="line"/>
      <point x="1432" y="940" type="line"/>
      <point x="1450" y="940" type="line"/>
    </contour>
  </outline>
</glyph>
<glyph name="D" format="2">
  <advance width="1593"/>
  <unicode hex="0044"/>
  <anchor x="746" y="0" name="bottom"/>
  <anchor x="299" y="750" name="stroke"/>
  <anchor x="746" y="1500" name="top"/>
  <outline>
    <contour>
      <point x="347" y="1500" type="line"/>
      <point x="347" y="1462" type="line"/>
      <point x="695" y="1462" type="line" smooth="yes"/>
      <point x="1129" y="1462"/>
      <point x="1413" y="1185"/>
      <point x="1413" y="750" type="curve" smooth="yes"/>
      <point x="1413" y="315"/>
      <point x="1129" y="38"/>
      <point x="695" y="38" type="curve" smooth="yes"/>
      <point x="347" y="38" type="line"/>
      <point x="347" y="0" type="line"/>
      <point x="695" y="0" type="line" smooth="yes"/>
      <point x="1157" y="0"/>
      <point x="1461" y="275"/>
      <point x="1461" y="750" type="curve" smooth="yes"/>
      <point x="1461" y="1225"/>
      <point x="1157" y="1500"/>
      <point x="695" y="1500" type="curve" smooth="yes"/>
    </contour>
    <contour>
      <point x="347" y="0" type="line"/>
      <point x="347" y="1500" type="line"/>
      <point x="299" y="1500" type="line"/>
      <point x="299" y="0" type="line"/>
    </contour>
  </outline>
</glyph>
<glyph name="E" format="2">
  <advance width="1489"/>
  <unicode hex="0045"/>
  <anchor x="745" y="0" name="bottom"/>
  <anchor x="1331" y="0" name="ogonek"/>
  <anchor x="766" y="1500" name="top"/>
  <outline>
    <contour>
      <point x="1331" y="0" type="line"/>
      <point x="1331" y="38" type="line"/>
      <point x="347" y="38" type="line"/>
      <point x="347" y="0" type="line"/>
    </contour>
    <contour>
      <point x="1313" y="1462" type="line"/>
      <point x="1313" y="1500" type="line"/>
      <point x="347" y="1500" type="line"/>
      <point x="347" y="1462" type="line"/>
    </contour>
    <contour>
      <point x="347" y="0" type="line"/>
      <point x="347" y="1500" type="line"/>
      <point x="299" y="1500" type="line"/>
      <point x="299" y="0" type="line"/>
    </contour>
    <contour>
      <point x="917" y="772" type="line"/>
      <point x="917" y="810" type="line"/>
      <point x="347" y="810" type="line"/>
      <point x="347" y="772" type="line"/>
    </contour>
    <contour>
      <point x="1147" y="1462" type="line"/>
      <point x="1247" y="1462"/>
      <point x="1273" y="1436"/>
      <point x="1273" y="1332" type="curve" smooth="yes"/>
      <point x="1273" y="940" type="line"/>
      <point x="1313" y="940" type="line"/>
      <point x="1313" y="1462" type="line"/>
    </contour>
    <contour>
      <point x="1165" y="38" type="curve"/>
      <point x="1331" y="38" type="line"/>
      <point x="1331" y="580" type="line"/>
      <point x="1291" y="580" type="line"/>
      <point x="1291" y="168" type="line" smooth="yes"/>
      <point x="1291" y="64"/>
      <point x="1265" y="38"/>
    </contour>
    <contour>
      <point x="761" y="810" type="curve"/>
      <point x="917" y="810" type="line"/>
      <point x="917" y="1202" type="line"/>
      <point x="879" y="1202" type="line"/>
      <point x="879" y="932" type="line" smooth="yes"/>
      <point x="879" y="834"/>
      <point x="855" y="810"/>
    </contour>
    <contour>
      <point x="761" y="772" type="line"/>
      <point x="855" y="772"/>
      <point x="879" y="748"/>
      <point x="879" y="650" type="curve" smooth="yes"/>
      <point x="879" y="308" type="line"/>
      <point x="917" y="308" type="line"/>
      <point x="917" y="772" type="line"/>
    </contour>
  </outline>
</glyph>
<glyph name="F" format="2">
  <advance width="1373"/>
  <unicode hex="0046"/>
  <outline>
    <contour>
      <point x="1267" y="1462" type="line"/>
      <point x="1267" y="1500" type="line"/>
      <point x="347" y="1500" type="line"/>
      <point x="347" y="1462" type="line"/>
    </contour>
    <contour>
      <point x="907" y="752" type="line"/>
      <point x="907" y="790" type="line"/>
      <point x="347" y="790" type="line"/>
      <point x="347" y="752" type="line"/>
    </contour>
    <contour>
      <point x="1101" y="1462" type="line"/>
      <point x="1201" y="1462"/>
      <point x="1227" y="1436"/>
      <point x="1227" y="1332" type="curve" smooth="yes"/>
      <point x="1227" y="940" type="line"/>
      <point x="1267" y="940" type="line"/>
      <point x="1267" y="1462" type="line"/>
    </contour>
    <contour>
      <point x="751" y="790" type="curve"/>
      <point x="907" y="790" type="line"/>
      <point x="907" y="1202" type="line"/>
      <point x="869" y="1202" type="line"/>
      <point x="869" y="912" type="line" smooth="yes"/>
      <point x="869" y="814"/>
      <point x="845" y="790"/>
    </contour>
    <contour>
      <point x="751" y="752" type="line"/>
      <point x="845" y="752"/>
      <point x="869" y="728"/>
      <point x="869" y="630" type="curve" smooth="yes"/>
      <point x="869" y="330" type="line"/>
      <point x="907" y="330" type="line"/>
      <point x="907" y="752" type="line"/>
    </contour>
    <contour>
      <point x="299" y="1500" type="line"/>
      <point x="299" y="0" type="line"/>
      <point x="347" y="0" type="line"/>
      <point x="347" y="1500" type="line"/>
    </contour>
  </outline>
</glyph>
<glyph name="H" format="2">
  <advance width="1680"/>
  <unicode hex="0048"/>
  <anchor x="840" y="0" name="bottom"/>
  <anchor x="840" y="750" name="center"/>
  <anchor x="840" y="1500" name="top"/>
  <anchor x="20" y="1500" name="topleft"/>
  <outline>
    <contour>
      <point x="1333" y="742" type="line"/>
      <point x="1333" y="780" type="line"/>
      <point x="347" y="780" type="line"/>
      <point x="347" y="742" type="line"/>
    </contour>
    <contour>
      <point x="347" y="0" type="line"/>
      <point x="347" y="1500" type="line"/>
      <point x="299" y="1500" type="line"/>
      <point x="299" y="0" type="line"/>
    </contour>
    <contour>
      <point x="1381" y="0" type="line"/>
      <point x="1381" y="1500" type="line"/>
      <point x="1333" y="1500" type="line"/>
      <point x="1333" y="0" type="line"/>
    </contour>
  </outline>
</glyph>
<glyph name="I" format="2">
  <advance width="684"/>
  <unicode hex="0049"/>
  <anchor x="342" y="0" name="bottom"/>
  <anchor x="471" y="0" name="ogonek"/>
  <anchor x="342" y="1500" name="top"/>
  <anchor x="20" y="1500" name="topleft"/>
  <outline>
    <contour>
      <point x="366" y="1500" type="line"/>
      <point x="318" y="1500" type="line"/>
      <point x="318" y="0" type="line"/>
      <point x="366" y="0" type="line"/>
    </contour>
  </outline>
</glyph>
<glyph name="J" format="2">
  <advance width="1196"/>
  <unicode hex="004A"/>
  <anchor x="598" y="0" name="bottom"/>
  <anchor x="802" y="1500" name="top"/>
  <outline>
    <contour>
      <point x="918" y="1500" type="line"/>
      <point x="870" y="1500" type="line"/>
      <point x="870" y="426" type="line" smooth="yes"/>
      <point x="870" y="159"/>
      <point x="732" y="22"/>
      <point x="508" y="22" type="curve" smooth="yes"/>
      <point x="284" y="22"/>
      <point x="146" y="159"/>
      <point x="146" y="426" type="curve" smooth="yes"/>
      <point x="146" y="590" type="line"/>
      <point x="106" y="590" type="line"/>
      <point x="106" y="422" type="line" smooth="yes"/>
      <point x="106" y="124"/>
      <point x="266" y="-16"/>
      <point x="512" y="-16" type="curve" smooth="yes"/>
      <point x="758" y="-16"/>
      <point x="918" y="123"/>
      <point x="918" y="430" type="curve" smooth="yes"/>
    </contour>
  </outline>
</glyph>
<glyph name="K" format="2">
  <advance width="1629"/>
  <unicode hex="004B"/>
  <anchor x="815" y="0" name="bottom"/>
  <anchor x="815" y="1500" name="top"/>
  <outline>
    <contour>
      <point x="347" y="1500" type="line"/>
      <point x="299" y="1500" type="line"/>
      <point x="299" y="0" type="line"/>
      <point x="347" y="0" type="line"/>
    </contour>
    <contour>
      <point x="1375" y="1500" type="line"/>
      <point x="1314" y="1500" type="line"/>
      <point x="313" y="613" type="line"/>
      <point x="338" y="584" type="line"/>
    </contour>
    <contour>
      <point x="1435" y="0" type="line"/>
      <point x="603" y="848" type="line"/>
      <point x="573" y="816" type="line"/>
      <point x="1370" y="0" type="line"/>
    </contour>
  </outline>
</glyph>
<glyph name="L" format="2">
  <advance width="1393"/>
  <unicode hex="004C"/>
  <anchor x="697" y="0" name="bottom"/>
  <anchor x="323" y="1200" name="center"/>
  <anchor x="321" y="1500" name="top"/>
  <anchor x="697" y="1500" name="topright"/>
  <outline>
    <contour>
      <point x="1281" y="0" type="line"/>
      <point x="1281" y="38" type="line"/>
      <point x="347" y="38" type="line"/>
      <point x="347" y="0" type="line"/>
    </contour>
    <contour>
      <point x="1115" y="38" type="curve"/>
      <point x="1281" y="38" type="line"/>
      <point x="1281" y="580" type="line"/>
      <point x="1241" y="580" type="line"/>
      <point x="1241" y="168" type="line" smooth="yes"/>
      <point x="1241" y="64"/>
      <point x="1215" y="38"/>
    </contour>
    <contour>
      <point x="347" y="0" type="line"/>
      <point x="347" y="1500" type="line"/>
      <point x="299" y="1500" type="line"/>
      <point x="299" y="0" type="line"/>
    </contour>
  </outline>
</glyph>
<glyph name="M" format="2">
  <advance width="2044"/>
  <unicode hex="004D"/>
  <anchor x="1020" y="0" name="bottom"/>
  <anchor x="1022" y="1500" name="top"/>
  <outline>
    <contour>
      <point x="339" y="0" type="line"/>
      <point x="339" y="1438" type="line"/>
      <point x="339" y="1500" type="line"/>
      <point x="299" y="1500" type="line"/>
      <point x="299" y="0" type="line"/>
    </contour>
    <contour>
      <point x="1745" y="0" type="line"/>
      <point x="1745" y="1500" type="line"/>
      <point x="1697" y="1500" type="line"/>
      <point x="1697" y="0" type="line"/>
    </contour>
    <contour>
      <point x="339" y="1438" type="line"/>
      <point x="1000" y="0" type="line"/>
      <point x="1036" y="0" type="line"/>
      <point x="1697" y="1430" type="line"/>
      <point x="1697" y="1500" type="line"/>
      <point x="1685" y="1500" type="line"/>
      <point x="1016" y="52" type="line"/>
      <point x="1029" y="52" type="line"/>
      <point x="363" y="1500" type="line"/>
      <point x="339" y="1500" type="line"/>
    </contour>
  </outline>
</glyph>
<glyph name="N" format="2">
  <advance width="1703"/>
  <unicode hex="004E"/>
  <anchor x="852" y="0" name="bottom"/>
  <anchor x="868" y="1500" name="top"/>
  <outline>
    <contour>
      <point x="339" y="0" type="line"/>
      <point x="339" y="1424" type="line"/>
      <point x="343" y="1500" type="line"/>
      <point x="299" y="1500" type="line"/>
      <point x="299" y="0" type="line"/>
    </contour>
    <contour>
      <point x="1385" y="76" type="line"/>
      <point x="343" y="1500" type="line"/>
      <point x="339" y="1424" type="line"/>
      <point x="1381" y="0" type="line"/>
    </contour>
    <contour>
      <point x="1425" y="0" type="line"/>
      <point x="1425" y="1500" type="line"/>
      <point x="1385" y="1500" type="line"/>
      <point x="1385" y="76" type="line"/>
      <point x="1375" y="76" type="line"/>
      <point x="1381" y="0" type="line"/>
    </contour>
  </outline>
</glyph>
<glyph name="O" format="2">
  <advance width="1720"/>
  <unicode hex="004F"/>
  <anchor x="860" y="0" name="bottom"/>
  <anchor x="1168" y="0" name="ogonek"/>
  <anchor x="860" y="1500" name="top"/>
  <anchor x="22" y="1500" name="topleft"/>
  <anchor x="1441" y="1260" name="topright"/>
  <outline>
    <contour>
      <point x="860" y="-24" type="curve" smooth="yes"/>
      <point x="1280" y="-24"/>
      <point x="1588" y="260"/>
      <point x="1588" y="750" type="curve" smooth="yes"/>
      <point x="1588" y="1240"/>
      <point x="1280" y="1524"/>
      <point x="860" y="1524" type="curve" smooth="yes"/>
      <point x="440" y="1524"/>
      <point x="132" y="1240"/>
      <point x="132" y="750" type="curve" smooth="yes"/>
      <point x="132" y="260"/>
      <point x="440" y="-24"/>
    </contour>
    <contour>
      <point x="860" y="14" type="curve" smooth="yes"/>
      <point x="452" y="14"/>
      <point x="180" y="304"/>
      <point x="180" y="750" type="curve" smooth="yes"/>
      <point x="180" y="1196"/>
      <point x="452" y="1486"/>
      <point x="860" y="1486" type="curve" smooth="yes"/>
      <point x="1268" y="1486"/>
      <point x="1540" y="1196"/>
      <point x="1540" y="750" type="curve" smooth="yes"/>
      <point x="1540" y="304"/>
      <point x="1268" y="14"/>
    </contour>
  </outline>
</glyph>
<glyph name="P" format="2">
  <advance width="1433"/>
  <unicode hex="0050"/>
  <anchor x="717" y="0" name="bottom"/>
  <anchor x="717" y="1500" name="top"/>
  <outline>
    <contour>
      <point x="347" y="1500" type="line"/>
      <point x="347" y="1462" type="line"/>
      <point x="853" y="1462" type="line" smooth="yes"/>
      <point x="1119" y="1462"/>
      <point x="1287" y="1337"/>
      <point x="1287" y="1091" type="curve" smooth="yes"/>
      <point x="1287" y="845"/>
      <point x="1119" y="720"/>
      <point x="853" y="720" type="curve" smooth="yes"/>
      <point x="347" y="720" type="line"/>
      <point x="347" y="682" type="line"/>
      <point x="865" y="682" type="line" smooth="yes"/>
      <point x="1147" y="682"/>
      <point x="1335" y="820"/>
      <point x="1335" y="1091" type="curve" smooth="yes"/>
      <point x="1335" y="1362"/>
      <point x="1147" y="1500"/>
      <point x="865" y="1500" type="curve" smooth="yes"/>
    </contour>
    <contour>
      <point x="299" y="1500" type="line"/>
      <point x="299" y="0" type="line"/>
      <point x="347" y="0" type="line"/>
      <point x="347" y="1500" type="line"/>
    </contour>
  </outline>
</glyph>
<glyph name="Q" format="2">
  <advance width="1720"/>
  <unicode hex="0051"/>
  <anchor x="860" y="0" name="bottom"/>
  <anchor x="860" y="1500" name="top"/>
  <outline>
    <contour>
      <point x="916" y="420" type="curve" smooth="yes"/>
      <point x="803" y="420"/>
      <point x="722" y="345"/>
      <point x="722" y="196" type="curve" smooth="yes"/>
      <point x="722" y="0" type="line"/>
      <point x="762" y="0" type="line"/>
      <point x="762" y="196" type="line" smooth="yes"/>
      <point x="762" y="320"/>
      <point x="816" y="382"/>
      <point x="912" y="382" type="curve" smooth="yes"/>
      <point x="1007" y="382"/>
      <point x="1060" y="320"/>
      <point x="1060" y="196" type="curve" smooth="yes"/>
      <point x="1060" y="0" type="line"/>
      <point x="1104" y="0" type="line"/>
      <point x="1104" y="196" type="line" smooth="yes"/>
      <point x="1104" y="345"/>
      <point x="1028" y="420"/>
    </contour>
    <contour>
      <point x="1256" y="-340" type="curve" smooth="yes"/>
      <point x="1369" y="-340"/>
      <point x="1446" y="-265"/>
      <point x="1446" y="-116" type="curve" smooth="yes"/>
      <point x="1446" y="0" type="line"/>
      <point x="1406" y="0" type="line"/>
      <point x="1406" y="-116" type="line" smooth="yes"/>
      <point x="1406" y="-240"/>
      <point x="1351" y="-302"/>
      <point x="1254" y="-302" type="curve" smooth="yes"/>
      <point x="1158" y="-302"/>
      <point x="1104" y="-240"/>
      <point x="1104" y="-116" type="curve" smooth="yes"/>
      <point x="1104" y="0" type="line"/>
      <point x="1060" y="0" type="line"/>
      <point x="1060" y="-116" type="line" smooth="yes"/>
      <point x="1060" y="-265"/>
      <point x="1142" y="-340"/>
    </contour>
    <contour>
      <point x="860" y="-24" type="curve" smooth="yes"/>
      <point x="1280" y="-24"/>
      <point x="1588" y="260"/>
      <point x="1588" y="750" type="curve" smooth="yes"/>
      <point x="1588" y="1240"/>
      <point x="1280" y="1524"/>
      <point x="860" y="1524" type="curve" smooth="yes"/>
      <point x="440" y="1524"/>
      <point x="132" y="1240"/>
      <point x="132" y="750" type="curve" smooth="yes"/>
      <point x="132" y="260"/>
      <point x="440" y="-24"/>
    </contour>
    <contour>
      <point x="860" y="14" type="curve" smooth="yes"/>
      <point x="452" y="14"/>
      <point x="180" y="304"/>
      <point x="180" y="750" type="curve" smooth="yes"/>
      <point x="180" y="1196"/>
      <point x="452" y="1486"/>
      <point x="860" y="1486" type="curve" smooth="yes"/>
      <point x="1268" y="1486"/>
      <point x="1540" y="1196"/>
      <point x="1540" y="750" type="curve" smooth="yes"/>
      <point x="1540" y="304"/>
      <point x="1268" y="14"/>
    </contour>
  </outline>
</glyph>
<glyph name="R" format="2">
  <advance width="1533"/>
  <unicode hex="0052"/>
  <anchor x="767" y="0" name="bottom"/>
  <anchor x="767" y="1500" name="top"/>
  <outline>
    <contour>
      <point x="1379" y="1111" type="curve" smooth="yes"/>
      <point x="1379" y="1369"/>
      <point x="1191" y="1500"/>
      <point x="919" y="1500" type="curve" smooth="yes"/>
      <point x="347" y="1500" type="line"/>
      <point x="347" y="1462" type="line"/>
      <point x="907" y="1462" type="line" smooth="yes"/>
      <point x="1167" y="1462"/>
      <point x="1331" y="1344"/>
      <point x="1331" y="1111" type="curve" smooth="yes"/>
      <point x="1331" y="878"/>
      <point x="1167" y="760"/>
      <point x="907" y="760" type="curve" smooth="yes"/>
      <point x="347" y="760" type="line"/>
      <point x="347" y="722" type="line"/>
      <point x="783" y="722" type="line"/>
      <point x="795" y="726" type="line"/>
      <point x="919" y="726" type="line" smooth="yes"/>
      <point x="1191" y="726"/>
      <point x="1379" y="853"/>
    </contour>
    <contour>
      <point x="347" y="741" type="line"/>
      <point x="347" y="722" type="line"/>
      <point x="673" y="722" type="line" smooth="yes"/>
      <point x="893" y="722"/>
      <point x="1015" y="599"/>
      <point x="1015" y="380" type="curve" smooth="yes"/>
      <point x="1015" y="190" type="line" smooth="yes"/>
      <point x="1015" y="62"/>
      <point x="1074" y="-20"/>
      <point x="1201" y="-20" type="curve" smooth="yes"/>
      <point x="1328" y="-20"/>
      <point x="1387" y="62"/>
      <point x="1387" y="190" type="curve" smooth="yes"/>
      <point x="1387" y="584" type="line"/>
      <point x="1347" y="584" type="line"/>
      <point x="1347" y="190" type="line" smooth="yes"/>
      <point x="1347" y="94"/>
      <point x="1305" y="18"/>
      <point x="1205" y="18" type="curve" smooth="yes"/>
      <point x="1103" y="18"/>
      <point x="1063" y="94"/>
      <point x="1063" y="190" type="curve" smooth="yes"/>
      <point x="1063" y="372" type="line" smooth="yes"/>
      <point x="1063" y="611"/>
      <point x="955" y="741"/>
      <point x="691" y="741" type="curve" smooth="yes"/>
    </contour>
    <contour>
      <point x="299" y="1500" type="line"/>
      <point x="299" y="0" type="line"/>
      <point x="347" y="0" type="line"/>
      <point x="347" y="1500" type="line"/>
    </contour>
  </outline>
</glyph>
<glyph name="S" format="2">
  <advance width="1494"/>
  <unicode hex="0053"/>
  <anchor x="798" y="0" name="bottom"/>
  <anchor x="722" y="1500" name="top"/>
  <outline>
    <contour>
      <point x="208" y="1149" type="curve" smooth="yes"/>
      <point x="208" y="890"/>
      <point x="399" y="812"/>
      <point x="646" y="767" type="curve" smooth="yes"/>
      <point x="854" y="729" type="line" smooth="yes"/>
      <point x="1084" y="687"/>
      <point x="1272" y="614"/>
      <point x="1272" y="371" type="curve" smooth="yes"/>
      <point x="1272" y="142"/>
      <point x="1117" y="16"/>
      <point x="852" y="16" type="curve" smooth="yes"/>
      <point x="580" y="16"/>
      <point x="347" y="178"/>
      <point x="240" y="530" type="curve"/>
      <point x="206" y="530" type="line"/>
      <point x="300" y="139"/>
      <point x="560" y="-24"/>
      <point x="852" y="-24" type="curve" smooth="yes"/>
      <point x="1137" y="-24"/>
      <point x="1320" y="106"/>
      <point x="1320" y="371" type="curve" smooth="yes"/>
      <point x="1320" y="638"/>
      <point x="1126" y="724"/>
      <point x="862" y="772" type="curve" smooth="yes"/>
      <point x="654" y="810" type="line" smooth="yes"/>
      <point x="425" y="852"/>
      <point x="256" y="922"/>
      <point x="256" y="1149" type="curve" smooth="yes"/>
      <point x="256" y="1370"/>
      <point x="408" y="1484"/>
      <point x="670" y="1484" type="curve" smooth="yes"/>
      <point x="926" y="1484"/>
      <point x="1140" y="1336"/>
      <point x="1234" y="990" type="curve"/>
      <point x="1267" y="990" type="line"/>
      <point x="1190" y="1374"/>
      <point x="942" y="1524"/>
      <point x="670" y="1524" type="curve" smooth="yes"/>
      <point x="392" y="1524"/>
      <point x="208" y="1406"/>
    </contour>
    <contour>
      <point x="1278" y="1500" type="line"/>
      <point x="1238" y="1500" type="line"/>
      <point x="1238" y="1064" type="line"/>
      <point x="1267" y="990" type="line"/>
      <point x="1278" y="990" type="line"/>
    </contour>
    <contour>
      <point x="196" y="0" type="line"/>
      <point x="236" y="0" type="line"/>
      <point x="236" y="452" type="line"/>
      <point x="206" y="530" type="line"/>
      <point x="196" y="530" type="line"/>
    </contour>
  </outline>
</glyph>
<glyph name="T" format="2">
  <advance width="1600"/>
  <unicode hex="0054"/>
  <anchor x="800" y="0" name="bottom"/>
  <anchor x="800" y="730" name="center"/>
  <anchor x="800" y="1500" name="top"/>
  <outline>
    <contour>
      <point x="824" y="0" type="line"/>
      <point x="824" y="1500" type="line"/>
      <point x="776" y="1500" type="line"/>
      <point x="776" y="0" type="line"/>
    </contour>
    <contour>
      <point x="1484" y="1462" type="line"/>
      <point x="1484" y="1500" type="line"/>
      <point x="116" y="1500" type="line"/>
      <point x="116" y="1462" type="line"/>
    </contour>
    <contour>
      <point x="1318" y="1462" type="line"/>
      <point x="1418" y="1462"/>
      <point x="1444" y="1436"/>
      <point x="1444" y="1332" type="curve" smooth="yes"/>
      <point x="1444" y="980" type="line"/>
      <point x="1484" y="980" type="line"/>
      <point x="1484" y="1462" type="line"/>
    </contour>
    <contour>
      <point x="282" y="1462" type="curve"/>
      <point x="116" y="1462" type="line"/>
      <point x="116" y="980" type="line"/>
      <point x="156" y="980" type="line"/>
      <point x="156" y="1332" type="line" smooth="yes"/>
      <point x="156" y="1436"/>
      <point x="182" y="1462"/>
    </contour>
  </outline>
</glyph>
<glyph name="V" format="2">
  <advance width="1646"/>
  <unicode hex="0056"/>
  <anchor x="823" y="0" name="bottom"/>
  <anchor x="823" y="1500" name="top"/>
  <outline>
    <contour>
      <point x="1453" y="1500" type="line"/>
      <point x="1410" y="1500" type="line"/>
      <point x="819" y="47" type="line"/>
      <point x="836" y="47" type="line"/>
      <point x="245" y="1500" type="line"/>
      <point x="193" y="1500" type="line"/>
      <point x="805" y="0" type="line"/>
      <point x="841" y="0" type="line"/>
    </contour>
  </outline>
</glyph>
<glyph name="W" format="2">
  <advance width="2230"/>
  <unicode hex="0057"/>
  <anchor x="1115" y="0" name="bottom"/>
  <anchor x="1115" y="1500" name="top"/>
  <outline>
    <contour>
      <point x="2036" y="1500" type="line"/>
      <point x="1994" y="1500" type="line"/>
      <point x="1512" y="47" type="line"/>
      <point x="1531" y="47" type="line"/>
      <point x="1049" y="1500" type="line"/>
      <point x="998" y="1500" type="line"/>
      <point x="1498" y="0" type="line"/>
      <point x="1536" y="0" type="line"/>
    </contour>
    <contour>
      <point x="1128" y="1187" type="line"/>
      <point x="1108" y="1252" type="line"/>
      <point x="708" y="47" type="line"/>
      <point x="727" y="47" type="line"/>
      <point x="245" y="1500" type="line"/>
      <point x="194" y="1500" type="line"/>
      <point x="694" y="0" type="line"/>
      <point x="732" y="0" type="line"/>
    </contour>
  </outline>
</glyph>
<glyph name="X" format="2">
  <advance width="1657"/>
  <unicode hex="0058"/>
  <anchor x="829" y="0" name="bottom"/>
  <anchor x="829" y="1500" name="top"/>
  <outline>
    <contour>
      <point x="222" y="1500" type="line"/>
      <point x="819" y="738" type="line"/>
      <point x="838" y="738" type="line"/>
      <point x="1435" y="1500" type="line"/>
      <point x="1382" y="1500" type="line"/>
      <point x="815" y="777" type="line"/>
      <point x="849" y="777" type="line"/>
      <point x="283" y="1500" type="line"/>
    </contour>
    <contour>
      <point x="1460" y="0" type="line"/>
      <point x="838" y="794" type="line"/>
      <point x="819" y="794" type="line"/>
      <point x="197" y="0" type="line"/>
      <point x="250" y="0" type="line"/>
      <point x="842" y="755" type="line"/>
      <point x="808" y="755" type="line"/>
      <point x="1399" y="0" type="line"/>
    </contour>
  </outline>
</glyph>
<glyph name="Y" format="2">
  <advance width="1632"/>
  <unicode hex="0059"/>
  <anchor x="816" y="0" name="bottom"/>
  <anchor x="816" y="1500" name="top"/>
  <anchor x="20" y="1500" name="topleft"/>
  <outline>
    <contour>
      <point x="840" y="0" type="line"/>
      <point x="840" y="640" type="line"/>
      <point x="792" y="640" type="line"/>
      <point x="792" y="0" type="line"/>
    </contour>
    <contour>
      <point x="1467" y="1500" type="line"/>
      <point x="1416" y="1500" type="line"/>
      <point x="813" y="643" type="line"/>
      <point x="828" y="643" type="line"/>
      <point x="224" y="1500" type="line"/>
      <point x="165" y="1500" type="line"/>
      <point x="795" y="607" type="line"/>
      <point x="837" y="607" type="line"/>
    </contour>
  </outline>
</glyph>
<glyph name="Z" format="2">
  <advance width="1472"/>
  <unicode hex="005A"/>
  <anchor x="736" y="0" name="bottom"/>
  <anchor x="736" y="750" name="center"/>
  <anchor x="736" y="1500" name="top"/>
  <outline>
    <contour>
      <point x="196" y="1500" type="line"/>
      <point x="196" y="1462" type="line"/>
      <point x="1256" y="1462" type="line"/>
      <point x="1320" y="1466" type="line"/>
      <point x="1320" y="1500" type="line"/>
    </contour>
    <contour>
      <point x="152" y="34" type="line"/>
      <point x="152" y="0" type="line"/>
      <point x="1312" y="0" type="line"/>
      <point x="1312" y="38" type="line"/>
      <point x="216" y="38" type="line"/>
    </contour>
    <contour>
      <point x="152" y="34" type="line"/>
      <point x="216" y="38" type="line"/>
      <point x="1320" y="1466" type="line"/>
      <point x="1256" y="1462" type="line"/>
    </contour>
    <contour>
      <point x="362" y="1462" type="curve"/>
      <point x="196" y="1462" type="line"/>
      <point x="196" y="960" type="line"/>
      <point x="236" y="960" type="line"/>
      <point x="236" y="1332" type="line" smooth="yes"/>
      <point x="236" y="1436"/>
      <point x="262" y="1462"/>
    </contour>
    <contour>
      <point x="1146" y="38" type="curve"/>
      <point x="1312" y="38" type="line"/>
      <point x="1312" y="560" type="line"/>
      <point x="1272" y="560" type="line"/>
      <point x="1272" y="168" type="line" smooth="yes"/>
      <point x="1272" y="64"/>
      <point x="1246" y="38"/>
    </contour>
  </outline>
</glyph>
<glyph name="underscore" format="2">
  <advance width="1370"/>
  <unicode hex="005F"/>
  <outline>
    <contour>
      <point x="120" y="-120" type="line"/>
      <point x="120" y="-160" type="line"/>
      <point x="1250" y="-160" type="line"/>
      <point x="1250" y="-120" type="line"/>
    </contour>
  </outline>
</glyph>
<glyph name="a" format="2">
  <advance width="1294"/>
  <unicode hex="0061"/>
  <anchor x="646" y="0" name="bottom"/>
  <anchor x="1171" y="0" name="ogonek"/>
  <anchor x="566" y="1080" name="top"/>
  <outline>
    <contour>
      <point x="458" y="528" type="curve" smooth="yes"/>
      <point x="612" y="562" type="line" smooth="yes"/>
      <point x="767" y="596"/>
      <point x="835" y="628"/>
      <point x="872" y="704" type="curve"/>
      <point x="882" y="704" type="line"/>
      <point x="872" y="810" type="line"/>
      <point x="872" y="666"/>
      <point x="761" y="634"/>
      <point x="604" y="599" type="curve" smooth="yes"/>
      <point x="442" y="563" type="line" smooth="yes"/>
      <point x="249" y="520"/>
      <point x="116" y="443"/>
      <point x="116" y="255" type="curve" smooth="yes"/>
      <point x="116" y="86"/>
      <point x="250" y="-16"/>
      <point x="446" y="-16" type="curve" smooth="yes"/>
      <point x="711" y="-16"/>
      <point x="901" y="140"/>
      <point x="899" y="536" type="curve"/>
      <point x="872" y="536" type="line"/>
      <point x="872" y="162"/>
      <point x="680" y="22"/>
      <point x="452" y="22" type="curve" smooth="yes"/>
      <point x="284" y="22"/>
      <point x="164" y="107"/>
      <point x="164" y="255" type="curve" smooth="yes"/>
      <point x="164" y="415"/>
      <point x="269" y="486"/>
    </contour>
    <contour>
      <point x="872" y="818" type="line"/>
      <point x="872" y="761" type="line"/>
      <point x="862" y="704" type="line"/>
      <point x="872" y="704" type="line"/>
      <point x="872" y="380" type="line"/>
      <point x="876" y="380" type="line"/>
      <point x="876" y="166" type="line" smooth="yes"/>
      <point x="876" y="50"/>
      <point x="938" y="-16"/>
      <point x="1040" y="-16" type="curve" smooth="yes"/>
      <point x="1142" y="-16"/>
      <point x="1204" y="50"/>
      <point x="1204" y="166" type="curve" smooth="yes"/>
      <point x="1204" y="660" type="line"/>
      <point x="1160" y="660" type="line"/>
      <point x="1160" y="166" type="line" smooth="yes"/>
      <point x="1160" y="82"/>
      <point x="1119" y="24"/>
      <point x="1040" y="24" type="curve" smooth="yes"/>
      <point x="961" y="24"/>
      <point x="920" y="82"/>
      <point x="920" y="166" type="curve" smooth="yes"/>
      <point x="920" y="800" type="line"/>
    </contour>
    <contour>
      <point x="190" y="812" type="curve" smooth="yes"/>
      <point x="190" y="747"/>
      <point x="223" y="710"/>
      <point x="267" y="710" type="curve" smooth="yes"/>
      <point x="301" y="710"/>
      <point x="321" y="731"/>
      <point x="321" y="765" type="curve" smooth="yes"/>
      <point x="321" y="809"/>
      <point x="269" y="834"/>
      <point x="218" y="827" type="curve"/>
      <point x="235" y="811" type="line"/>
      <point x="229" y="993"/>
      <point x="393" y="1058"/>
      <point x="570" y="1058" type="curve" smooth="yes"/>
      <point x="781" y="1058"/>
      <point x="872" y="967"/>
      <point x="872" y="818" type="curve"/>
      <point x="920" y="800" type="line"/>
      <point x="920" y="1005"/>
      <point x="794" y="1096"/>
      <point x="572" y="1096" type="curve" smooth="yes"/>
      <point x="372" y="1096"/>
      <point x="190" y="1013"/>
    </contour>
  </outline>
</glyph>
<glyph name="b" format="2">
  <advance width="1279"/>
  <unicode hex="0062"/>
  <anchor x="645" y="0" name="bottom"/>
  <anchor x="645" y="1500" name="top"/>
  <outline>
    <contour>
      <point x="221" y="0" type="line"/>
      <point x="265" y="0" type="line"/>
      <point x="265" y="324" type="line"/>
      <point x="249" y="540" type="line"/>
      <point x="269" y="736" type="line"/>
      <point x="269" y="1500" type="line"/>
      <point x="221" y="1500" type="line"/>
    </contour>
    <contour>
      <point x="697" y="1096" type="curve" smooth="yes"/>
      <point x="404" y="1096"/>
      <point x="239" y="887"/>
      <point x="239" y="541" type="curve"/>
      <point x="239" y="539" type="line"/>
      <point x="239" y="193"/>
      <point x="403" y="-16"/>
      <point x="697" y="-16" type="curve" smooth="yes"/>
      <point x="971" y="-16"/>
      <point x="1169" y="194"/>
      <point x="1169" y="540" type="curve" smooth="yes"/>
      <point x="1169" y="886"/>
      <point x="971" y="1096"/>
    </contour>
    <contour>
      <point x="697" y="1058" type="curve" smooth="yes"/>
      <point x="945" y="1058"/>
      <point x="1121" y="865"/>
      <point x="1121" y="540" type="curve" smooth="yes"/>
      <point x="1121" y="215"/>
      <point x="945" y="22"/>
      <point x="697" y="22" type="curve" smooth="yes"/>
      <point x="445" y="22"/>
      <point x="265" y="215"/>
      <point x="265" y="540" type="curve" smooth="yes"/>
      <point x="265" y="865"/>
      <point x="445" y="1058"/>
    </contour>
  </outline>
</glyph>
<glyph name="c" format="2">
  <advance width="1127"/>
  <unicode hex="0063"/>
  <anchor x="560" y="0" name="bottom"/>
  <anchor x="598" y="1080" name="top"/>
  <outline>
    <contour>
      <point x="1031" y="409" type="curve"/>
      <point x="991" y="409" type="line"/>
      <point x="977" y="228"/>
      <point x="860" y="24"/>
      <point x="590" y="24" type="curve" smooth="yes"/>
      <point x="330" y="24"/>
      <point x="160" y="218"/>
      <point x="160" y="540" type="curve" smooth="yes"/>
      <point x="160" y="863"/>
      <point x="338" y="1058"/>
      <point x="604" y="1058" type="curve"/>
      <point x="604" y="1096" type="line"/>
      <point x="312" y="1096"/>
      <point x="110" y="894"/>
      <point x="110" y="540" type="curve" smooth="yes"/>
      <point x="110" y="186"/>
      <point x="305" y="-16"/>
      <point x="590" y="-16" type="curve" smooth="yes"/>
      <point x="886" y="-16"/>
      <point x="1015" y="197"/>
    </contour>
    <contour>
      <point x="604" y="1096" type="curve"/>
      <point x="604" y="1058" type="line"/>
      <point x="866" y="1058"/>
      <point x="974" y="908"/>
      <point x="970" y="768" type="curve"/>
      <point x="987" y="790" type="line"/>
      <point x="939" y="796"/>
      <point x="890" y="777"/>
      <point x="890" y="730" type="curve" smooth="yes"/>
      <point x="890" y="698"/>
      <point x="911" y="678"/>
      <point x="944" y="678" type="curve" smooth="yes"/>
      <point x="988" y="678"/>
      <point x="1014" y="707"/>
      <point x="1014" y="772" type="curve" smooth="yes"/>
      <point x="1014" y="932"/>
      <point x="884" y="1096"/>
    </contour>
  </outline>
</glyph>
<glyph name="e" format="2">
  <advance width="1158"/>
  <unicode hex="0065"/>
  <anchor x="579" y="0" name="bottom"/>
  <anchor x="831" y="0" name="ogonek"/>
  <anchor x="579" y="1080" name="top"/>
  <outline>
    <contour>
      <point x="1039" y="380" type="curve"/>
      <point x="999" y="380" type="line"/>
      <point x="985" y="235"/>
      <point x="874" y="24"/>
      <point x="592" y="24" type="curve" smooth="yes"/>
      <point x="333" y="24"/>
      <point x="160" y="217"/>
      <point x="160" y="540" type="curve" smooth="yes"/>
      <point x="160" y="863"/>
      <point x="332" y="1058"/>
      <point x="594" y="1058" type="curve"/>
      <point x="594" y="1096" type="line"/>
      <point x="308" y="1096"/>
      <point x="110" y="894"/>
      <point x="110" y="540" type="curve" smooth="yes"/>
      <point x="110" y="186"/>
      <point x="309" y="-16"/>
      <point x="592" y="-16" type="curve" smooth="yes"/>
      <point x="897" y="-16"/>
      <point x="1024" y="214"/>
    </contour>
    <contour>
      <point x="1004" y="624" type="curve"/>
      <point x="1048" y="600" type="line"/>
      <point x="1048" y="892"/>
      <point x="889" y="1096"/>
      <point x="594" y="1096" type="curve"/>
      <point x="594" y="1058" type="line"/>
      <point x="865" y="1058"/>
      <point x="994" y="864"/>
    </contour>
    <contour>
      <point x="144" y="624" type="line"/>
      <point x="144" y="586" type="line"/>
      <point x="1048" y="586" type="line"/>
      <point x="1048" y="600" type="line"/>
      <point x="1004" y="624" type="line"/>
    </contour>
  </outline>
</glyph>
<glyph name="f" format="2">
  <advance width="908"/>
  <unicode hex="0066"/>
  <anchor x="441" y="0" name="bottom"/>
  <anchor x="441" y="1500" name="top"/>
  <outline>
    <contour>
      <point x="56" y="1080" type="line"/>
      <point x="56" y="1042" type="line"/>
      <point x="804" y="1042" type="line"/>
      <point x="804" y="1080" type="line"/>
    </contour>
    <contour>
      <point x="356" y="1112" type="line"/>
      <point x="356" y="0" type="line"/>
      <point x="404" y="0" type="line"/>
      <point x="404" y="1116" type="line"/>
    </contour>
    <contour>
      <point x="714" y="1516" type="line"/>
      <point x="484" y="1516"/>
      <point x="356" y="1378"/>
      <point x="356" y="1112" type="curve"/>
      <point x="404" y="1116" type="line"/>
      <point x="404" y="1359"/>
      <point x="514" y="1478"/>
      <point x="714" y="1478" type="curve"/>
    </contour>
    <contour>
      <point x="714" y="1516" type="curve"/>
      <point x="714" y="1478" type="line"/>
      <point x="843" y="1478"/>
      <point x="929" y="1413"/>
      <point x="925" y="1293" type="curve"/>
      <point x="944" y="1309" type="line"/>
      <point x="884" y="1315"/>
      <point x="840" y="1294"/>
      <point x="840" y="1248" type="curve" smooth="yes"/>
      <point x="840" y="1216"/>
      <point x="864" y="1195"/>
      <point x="896" y="1195" type="curve" smooth="yes"/>
      <point x="940" y="1195"/>
      <point x="970" y="1232"/>
      <point x="970" y="1289" type="curve" smooth="yes"/>
      <point x="970" y="1443"/>
      <point x="858" y="1516"/>
    </contour>
  </outline>
</glyph>
<glyph name="g" format="2">
  <advance width="1248"/>
  <unicode hex="0067"/>
  <anchor x="622" y="-440" name="bottom"/>
  <anchor x="622" y="1080" name="top"/>
  <outline>
    <contour>
      <point x="594" y="360" type="curve" smooth="yes"/>
      <point x="826" y="360"/>
      <point x="990" y="503"/>
      <point x="990" y="724" type="curve" smooth="yes"/>
      <point x="990" y="902"/>
      <point x="886" y="1007"/>
      <point x="753" y="1052" type="curve"/>
      <point x="606" y="1088" type="line"/>
      <point x="362" y="1088"/>
      <point x="198" y="945"/>
      <point x="198" y="724" type="curve" smooth="yes"/>
      <point x="198" y="503"/>
      <point x="362" y="360"/>
    </contour>
    <contour>
      <point x="594" y="398" type="curve" smooth="yes"/>
      <point x="392" y="398"/>
      <point x="246" y="526"/>
      <point x="246" y="724" type="curve" smooth="yes"/>
      <point x="246" y="922"/>
      <point x="392" y="1050"/>
      <point x="594" y="1050" type="curve" smooth="yes"/>
      <point x="796" y="1050"/>
      <point x="942" y="922"/>
      <point x="942" y="724" type="curve" smooth="yes"/>
      <point x="942" y="526"/>
      <point x="796" y="398"/>
    </contour>
    <contour>
      <point x="606" y="1088" type="line"/>
      <point x="753" y="1052" type="line"/>
      <point x="1168" y="1052" type="line"/>
      <point x="1168" y="1088" type="line"/>
    </contour>
    <contour>
      <point x="306" y="496" type="line"/>
      <point x="193" y="492"/>
      <point x="78" y="420"/>
      <point x="78" y="285" type="curve" smooth="yes"/>
      <point x="78" y="161"/>
      <point x="176" y="80"/>
      <point x="324" y="80" type="curve" smooth="yes"/>
      <point x="894" y="80" type="line" smooth="yes"/>
      <point x="1036" y="80"/>
      <point x="1096" y="12"/>
      <point x="1096" y="-111" type="curve" smooth="yes"/>
      <point x="1096" y="-234"/>
      <point x="1013" y="-362"/>
      <point x="780" y="-362" type="curve" smooth="yes"/>
      <point x="486" y="-362" type="line" smooth="yes"/>
      <point x="281" y="-362"/>
      <point x="192" y="-274"/>
      <point x="192" y="-135" type="curve" smooth="yes"/>
      <point x="192" y="-13"/>
      <point x="299" y="55"/>
      <point x="360" y="80" type="curve"/>
      <point x="344" y="102" type="line"/>
      <point x="250" y="69"/>
      <point x="144" y="-1"/>
      <point x="144" y="-140" type="curve" smooth="yes"/>
      <point x="144" y="-302"/>
      <point x="254" y="-400"/>
      <point x="486" y="-400" type="curve" smooth="yes"/>
      <point x="780" y="-400" type="line" smooth="yes"/>
      <point x="1043" y="-400"/>
      <point x="1144" y="-252"/>
      <point x="1144" y="-108" type="curve" smooth="yes"/>
      <point x="1144" y="35"/>
      <point x="1064" y="120"/>
      <point x="896" y="120" type="curve" smooth="yes"/>
      <point x="328" y="120" type="line" smooth="yes"/>
      <point x="206" y="120"/>
      <point x="126" y="192"/>
      <point x="126" y="289" type="curve" smooth="yes"/>
      <point x="126" y="400"/>
      <point x="204" y="456"/>
      <point x="310" y="466" type="curve"/>
    </contour>
  </outline>
</glyph>
<glyph name="h" format="2">
  <advance width="1246"/>
  <unicode hex="0068"/>
  <anchor x="624" y="0" name="bottom"/>
  <anchor x="624" y="750" name="center"/>
  <anchor x="258" y="1500" name="top"/>
  <outline>
    <contour>
      <point x="254" y="1500" type="line"/>
      <point x="254" y="0" type="line"/>
      <point x="302" y="0" type="line"/>
      <point x="302" y="1500" type="line"/>
    </contour>
    <contour>
      <point x="277" y="582" type="curve"/>
      <point x="302" y="582" type="line"/>
      <point x="302" y="908"/>
      <point x="493" y="1058"/>
      <point x="698" y="1058" type="curve" smooth="yes"/>
      <point x="871" y="1058"/>
      <point x="976" y="967"/>
      <point x="976" y="774" type="curve" smooth="yes"/>
      <point x="976" y="0" type="line"/>
      <point x="1024" y="0" type="line"/>
      <point x="1024" y="774" type="line" smooth="yes"/>
      <point x="1024" y="998"/>
      <point x="890" y="1096"/>
      <point x="700" y="1096" type="curve" smooth="yes"/>
      <point x="473" y="1096"/>
      <point x="277" y="952"/>
    </contour>
  </outline>
</glyph>
<glyph name="k" format="2">
  <advance width="1252"/>
  <unicode hex="006B"/>
  <anchor x="626" y="0" name="bottom"/>
  <anchor x="626" y="1500" name="top"/>
  <outline>
    <contour>
      <point x="254" y="1500" type="line"/>
      <point x="254" y="0" type="line"/>
      <point x="302" y="0" type="line"/>
      <point x="302" y="1500" type="line"/>
    </contour>
    <contour>
      <point x="1072" y="1080" type="line"/>
      <point x="1009" y="1080" type="line"/>
      <point x="268" y="426" type="line"/>
      <point x="290" y="392" type="line"/>
    </contour>
    <contour>
      <point x="1109" y="0" type="line"/>
      <point x="541" y="646" type="line"/>
      <point x="508" y="614" type="line"/>
      <point x="1045" y="0" type="line"/>
    </contour>
  </outline>
</glyph>
<glyph name="l" format="2">
  <advance width="535"/>
  <unicode hex="006C"/>
  <anchor x="271" y="0" name="bottom"/>
  <anchor x="278" y="1080" name="center"/>
  <anchor x="258" y="1500" name="top"/>
  <anchor x="302" y="1500" name="topright"/>
  <outline>
    <contour>
      <point x="254" y="1500" type="line"/>
      <point x="254" y="0" type="line"/>
      <point x="302" y="0" type="line"/>
      <point x="302" y="1500" type="line"/>
    </contour>
  </outline>
</glyph>
<glyph name="m" format="2">
  <advance width="1642"/>
  <unicode hex="006D"/>
  <anchor x="818" y="0" name="bottom"/>
  <anchor x="818" y="1080" name="top"/>
  <outline>
    <contour>
      <point x="264" y="1080" type="line"/>
      <point x="264" y="0" type="line"/>
      <point x="312" y="0" type="line"/>
      <point x="312" y="764" type="line"/>
      <point x="308" y="764" type="line"/>
      <point x="308" y="1080" type="line"/>
    </contour>
    <contour>
      <point x="285" y="704" type="curve"/>
      <point x="312" y="704" type="line"/>
      <point x="312" y="948"/>
      <point x="451" y="1058"/>
      <point x="598" y="1058" type="curve" smooth="yes"/>
      <point x="740" y="1058"/>
      <point x="818" y="989"/>
      <point x="818" y="844" type="curve" smooth="yes"/>
      <point x="818" y="0" type="line"/>
      <point x="866" y="0" type="line"/>
      <point x="866" y="844" type="line" smooth="yes"/>
      <point x="866" y="1021"/>
      <point x="758" y="1096"/>
      <point x="600" y="1096" type="curve" smooth="yes"/>
      <point x="428" y="1096"/>
      <point x="285" y="977"/>
    </contour>
    <contour>
      <point x="839" y="704" type="curve"/>
      <point x="866" y="704" type="line"/>
      <point x="866" y="948"/>
      <point x="1005" y="1058"/>
      <point x="1152" y="1058" type="curve" smooth="yes"/>
      <point x="1294" y="1058"/>
      <point x="1372" y="989"/>
      <point x="1372" y="844" type="curve" smooth="yes"/>
      <point x="1372" y="0" type="line"/>
      <point x="1420" y="0" type="line"/>
      <point x="1420" y="844" type="line" smooth="yes"/>
      <point x="1420" y="1021"/>
      <point x="1314" y="1096"/>
      <point x="1154" y="1096" type="curve" smooth="yes"/>
      <point x="982" y="1096"/>
      <point x="839" y="977"/>
    </contour>
  </outline>
</glyph>
<glyph name="n" format="2">
  <advance width="1256"/>
  <unicode hex="006E"/>
  <anchor x="625" y="0" name="bottom"/>
  <anchor x="623" y="1080" name="top"/>
  <outline>
    <contour>
      <point x="264" y="1080" type="line"/>
      <point x="264" y="0" type="line"/>
      <point x="312" y="0" type="line"/>
      <point x="312" y="740" type="line"/>
      <point x="308" y="740" type="line"/>
      <point x="308" y="1080" type="line"/>
    </contour>
    <contour>
      <point x="285" y="582" type="curve"/>
      <point x="312" y="582" type="line"/>
      <point x="312" y="908"/>
      <point x="503" y="1058"/>
      <point x="708" y="1058" type="curve" smooth="yes"/>
      <point x="881" y="1058"/>
      <point x="986" y="967"/>
      <point x="986" y="774" type="curve" smooth="yes"/>
      <point x="986" y="0" type="line"/>
      <point x="1034" y="0" type="line"/>
      <point x="1034" y="774" type="line" smooth="yes"/>
      <point x="1034" y="998"/>
      <point x="900" y="1096"/>
      <point x="710" y="1096" type="curve" smooth="yes"/>
      <point x="483" y="1096"/>
      <point x="285" y="952"/>
    </contour>
  </outline>
</glyph>
<glyph name="o" format="2">
  <advance width="1212"/>
  <unicode hex="006F"/>
  <anchor x="606" y="0" name="bottom"/>
  <anchor x="845" y="0" name="ogonek"/>
  <anchor x="606" y="1080" name="top"/>
  <anchor x="996" y="920" name="topright"/>
  <outline>
    <contour>
      <point x="606" y="-16" type="curve" smooth="yes"/>
      <point x="898" y="-16"/>
      <point x="1102" y="186"/>
      <point x="1102" y="540" type="curve" smooth="yes"/>
      <point x="1102" y="894"/>
      <point x="898" y="1096"/>
      <point x="606" y="1096" type="curve" smooth="yes"/>
      <point x="314" y="1096"/>
      <point x="110" y="894"/>
      <point x="110" y="540" type="curve" smooth="yes"/>
      <point x="110" y="186"/>
      <point x="314" y="-16"/>
    </contour>
    <contour>
      <point x="606" y="22" type="curve" smooth="yes"/>
      <point x="340" y="22"/>
      <point x="158" y="217"/>
      <point x="158" y="540" type="curve" smooth="yes"/>
      <point x="158" y="863"/>
      <point x="340" y="1058"/>
      <point x="606" y="1058" type="curve" smooth="yes"/>
      <point x="872" y="1058"/>
      <point x="1054" y="863"/>
      <point x="1054" y="540" type="curve" smooth="yes"/>
      <point x="1054" y="217"/>
      <point x="872" y="22"/>
    </contour>
  </outline>
</glyph>
<glyph name="p" format="2">
  <advance width="1312"/>
  <unicode hex="0070"/>
  <anchor x="661" y="0" name="bottom"/>
  <anchor x="661" y="1080" name="top"/>
  <outline>
    <contour>
      <point x="302" y="-420" type="line"/>
      <point x="302" y="324" type="line"/>
      <point x="286" y="540" type="line"/>
      <point x="298" y="736" type="line"/>
      <point x="298" y="1080" type="line"/>
      <point x="254" y="1080" type="line"/>
      <point x="254" y="-420" type="line"/>
    </contour>
    <contour>
      <point x="730" y="-16" type="curve" smooth="yes"/>
      <point x="1004" y="-16"/>
      <point x="1202" y="194"/>
      <point x="1202" y="540" type="curve" smooth="yes"/>
      <point x="1202" y="886"/>
      <point x="1004" y="1096"/>
      <point x="730" y="1096" type="curve" smooth="yes"/>
      <point x="437" y="1096"/>
      <point x="272" y="887"/>
      <point x="272" y="541" type="curve"/>
      <point x="272" y="539" type="line"/>
      <point x="272" y="193"/>
      <point x="436" y="-16"/>
    </contour>
    <contour>
      <point x="730" y="22" type="curve" smooth="yes"/>
      <point x="478" y="22"/>
      <point x="298" y="215"/>
      <point x="298" y="540" type="curve" smooth="yes"/>
      <point x="298" y="865"/>
      <point x="478" y="1058"/>
      <point x="730" y="1058" type="curve" smooth="yes"/>
      <point x="978" y="1058"/>
      <point x="1154" y="865"/>
      <point x="1154" y="540" type="curve" smooth="yes"/>
      <point x="1154" y="215"/>
      <point x="978" y="22"/>
    </contour>
  </outline>
</glyph>
<glyph name="q" format="2">
  <advance width="1271"/>
  <unicode hex="0071"/>
  <anchor x="631" y="0" name="bottom"/>
  <anchor x="631" y="1080" name="top"/>
  <outline>
    <contour>
      <point x="1010" y="-420" type="line"/>
      <point x="1058" y="-420" type="line"/>
      <point x="1058" y="1080" type="line"/>
      <point x="1014" y="1080" type="line"/>
      <point x="1014" y="740" type="line"/>
      <point x="1026" y="540" type="line"/>
      <point x="1010" y="324" type="line"/>
    </contour>
    <contour>
      <point x="582" y="-16" type="curve" smooth="yes"/>
      <point x="876" y="-16"/>
      <point x="1040" y="193"/>
      <point x="1040" y="539" type="curve"/>
      <point x="1040" y="541" type="line"/>
      <point x="1040" y="887"/>
      <point x="875" y="1096"/>
      <point x="582" y="1096" type="curve" smooth="yes"/>
      <point x="308" y="1096"/>
      <point x="110" y="886"/>
      <point x="110" y="540" type="curve" smooth="yes"/>
      <point x="110" y="194"/>
      <point x="308" y="-16"/>
    </contour>
    <contour>
      <point x="582" y="22" type="curve" smooth="yes"/>
      <point x="334" y="22"/>
      <point x="158" y="215"/>
      <point x="158" y="540" type="curve" smooth="yes"/>
      <point x="158" y="865"/>
      <point x="334" y="1058"/>
      <point x="582" y="1058" type="curve" smooth="yes"/>
      <point x="834" y="1058"/>
      <point x="1014" y="865"/>
      <point x="1014" y="540" type="curve" smooth="yes"/>
      <point x="1014" y="215"/>
      <point x="834" y="22"/>
    </contour>
  </outline>
</glyph>
<glyph name="r" format="2">
  <advance width="947"/>
  <unicode hex="0072"/>
  <anchor x="368" y="0" name="bottom"/>
  <anchor x="472" y="1080" name="top"/>
  <outline>
    <contour>
      <point x="264" y="1080" type="line"/>
      <point x="264" y="0" type="line"/>
      <point x="312" y="0" type="line"/>
      <point x="312" y="720" type="line"/>
      <point x="304" y="720" type="line"/>
      <point x="304" y="1080" type="line"/>
    </contour>
    <contour>
      <point x="613" y="1104" type="curve" smooth="yes"/>
      <point x="400" y="1104"/>
      <point x="284" y="931"/>
      <point x="284" y="634" type="curve"/>
      <point x="312" y="634" type="line"/>
      <point x="312" y="911"/>
      <point x="427" y="1066"/>
      <point x="613" y="1066" type="curve" smooth="yes"/>
      <point x="753" y="1066"/>
      <point x="829" y="1004"/>
      <point x="826" y="891" type="curve"/>
      <point x="845" y="907" type="line"/>
      <point x="785" y="913"/>
      <point x="741" y="892"/>
      <point x="741" y="846" type="curve" smooth="yes"/>
      <point x="741" y="814"/>
      <point x="765" y="793"/>
      <point x="797" y="793" type="curve" smooth="yes"/>
      <point x="841" y="793"/>
      <point x="871" y="830"/>
      <point x="871" y="887" type="curve" smooth="yes"/>
      <point x="871" y="1034"/>
      <point x="767" y="1104"/>
    </contour>
  </outline>
</glyph>
<glyph name="s" format="2">
  <advance width="1144"/>
  <unicode hex="0073"/>
  <anchor x="601" y="0" name="bottom"/>
  <anchor x="559" y="1080" name="top"/>
  <outline>
    <contour>
      <point x="172" y="833" type="curve" smooth="yes"/>
      <point x="172" y="661"/>
      <point x="311" y="592"/>
      <point x="502" y="548" type="curve" smooth="yes"/>
      <point x="648" y="514" type="line" smooth="yes"/>
      <point x="800" y="479"/>
      <point x="944" y="419"/>
      <point x="944" y="263" type="curve" smooth="yes"/>
      <point x="944" y="109"/>
      <point x="832" y="22"/>
      <point x="640" y="22" type="curve" smooth="yes"/>
      <point x="454" y="22"/>
      <point x="286" y="123"/>
      <point x="216" y="400" type="curve"/>
      <point x="180" y="400" type="line"/>
      <point x="239" y="98"/>
      <point x="430" y="-16"/>
      <point x="644" y="-16" type="curve" smooth="yes"/>
      <point x="856" y="-16"/>
      <point x="992" y="86"/>
      <point x="992" y="263" type="curve" smooth="yes"/>
      <point x="992" y="446"/>
      <point x="831" y="512"/>
      <point x="656" y="553" type="curve" smooth="yes"/>
      <point x="512" y="587" type="line" smooth="yes"/>
      <point x="368" y="621"/>
      <point x="220" y="669"/>
      <point x="220" y="833" type="curve" smooth="yes"/>
      <point x="220" y="980"/>
      <point x="330" y="1058"/>
      <point x="504" y="1058" type="curve" smooth="yes"/>
      <point x="668" y="1058"/>
      <point x="848" y="961"/>
      <point x="902" y="700" type="curve"/>
      <point x="938" y="700" type="line"/>
      <point x="890" y="983"/>
      <point x="704" y="1096"/>
      <point x="504" y="1096" type="curve" smooth="yes"/>
      <point x="302" y="1096"/>
      <point x="172" y="1000"/>
    </contour>
    <contour>
      <point x="946" y="1080" type="line"/>
      <point x="906" y="1080" type="line"/>
      <point x="906" y="732" type="line"/>
      <point x="938" y="700" type="line"/>
      <point x="946" y="700" type="line"/>
    </contour>
    <contour>
      <point x="172" y="0" type="line"/>
      <point x="212" y="0" type="line"/>
      <point x="212" y="368" type="line"/>
      <point x="180" y="400" type="line"/>
      <point x="172" y="400" type="line"/>
    </contour>
  </outline>
</glyph>
<glyph name="t" format="2">
  <advance width="952"/>
  <unicode hex="0074"/>
  <anchor x="460" y="0" name="bottom"/>
  <anchor x="460" y="540" name="center"/>
  <anchor x="460" y="1080" name="top"/>
  <anchor x="362" y="1600" name="topright"/>
  <outline>
    <contour>
      <point x="284" y="1380" type="line"/>
      <point x="284" y="1244" type="line" smooth="yes"/>
      <point x="284" y="1122"/>
      <point x="242" y="1080"/>
      <point x="124" y="1080" type="curve" smooth="yes"/>
      <point x="-6" y="1080" type="line"/>
      <point x="-6" y="1042" type="line"/>
      <point x="274" y="1042" type="line"/>
      <point x="274" y="282" type="line" smooth="yes"/>
      <point x="274" y="82"/>
      <point x="362" y="-20"/>
      <point x="526" y="-20" type="curve" smooth="yes"/>
      <point x="690" y="-20"/>
      <point x="778" y="85"/>
      <point x="778" y="282" type="curve" smooth="yes"/>
      <point x="778" y="660" type="line"/>
      <point x="738" y="660" type="line"/>
      <point x="738" y="282" type="line" smooth="yes"/>
      <point x="738" y="111"/>
      <point x="668" y="20"/>
      <point x="530" y="20" type="curve" smooth="yes"/>
      <point x="392" y="20"/>
      <point x="322" y="111"/>
      <point x="322" y="282" type="curve" smooth="yes"/>
      <point x="322" y="1380" type="line"/>
    </contour>
    <contour>
      <point x="322" y="1080" type="line"/>
      <point x="322" y="1042" type="line"/>
      <point x="872" y="1042" type="line"/>
      <point x="872" y="1080" type="line"/>
    </contour>
  </outline>
</glyph>
<glyph name="u" format="2">
  <advance width="1243"/>
  <unicode hex="0075"/>
  <anchor x="629" y="0" name="bottom"/>
  <anchor x="1109" y="0" name="ogonek"/>
  <anchor x="583" y="1080" name="top"/>
  <anchor x="1010" y="1080" name="topright"/>
  <outline>
    <contour>
      <point x="1010" y="0" type="line"/>
      <point x="1010" y="1080" type="line"/>
      <point x="962" y="1080" type="line"/>
      <point x="962" y="380" type="line"/>
      <point x="970" y="380" type="line"/>
      <point x="970" y="0" type="line"/>
    </contour>
    <contour>
      <point x="989" y="498" type="curve"/>
      <point x="962" y="498" type="line"/>
      <point x="962" y="172"/>
      <point x="769" y="22"/>
      <point x="562" y="22" type="curve" smooth="yes"/>
      <point x="387" y="22"/>
      <point x="280" y="113"/>
      <point x="280" y="306" type="curve" smooth="yes"/>
      <point x="280" y="1080" type="line"/>
      <point x="232" y="1080" type="line"/>
      <point x="232" y="306" type="line" smooth="yes"/>
      <point x="232" y="82"/>
      <point x="368" y="-16"/>
      <point x="560" y="-16" type="curve" smooth="yes"/>
      <point x="789" y="-16"/>
      <point x="989" y="128"/>
    </contour>
  </outline>
</glyph>
<glyph name="v" format="2">
  <advance width="1158"/>
  <unicode hex="0076"/>
  <anchor x="579" y="0" name="bottom"/>
  <anchor x="579" y="1080" name="top"/>
  <outline>
    <contour>
      <point x="144" y="1080" type="line"/>
      <point x="559" y="0" type="line"/>
      <point x="599" y="0" type="line"/>
      <point x="1014" y="1080" type="line"/>
      <point x="971" y="1080" type="line"/>
      <point x="576" y="45" type="line"/>
      <point x="591" y="45" type="line"/>
      <point x="195" y="1080" type="line"/>
    </contour>
  </outline>
</glyph>
<glyph name="w" format="2">
  <advance width="1556"/>
  <unicode hex="0077"/>
  <anchor x="778" y="0" name="bottom"/>
  <anchor x="778" y="1080" name="top"/>
  <outline>
    <contour>
      <point x="705" y="1080" type="line"/>
      <point x="1037" y="0" type="line"/>
      <point x="1079" y="0" type="line"/>
      <point x="1411" y="1080" type="line"/>
      <point x="1369" y="1080" type="line"/>
      <point x="1054" y="49" type="line"/>
      <point x="1070" y="49" type="line"/>
      <point x="755" y="1080" type="line"/>
    </contour>
    <contour>
      <point x="145" y="1080" type="line"/>
      <point x="477" y="0" type="line"/>
      <point x="519" y="0" type="line"/>
      <point x="794" y="895" type="line"/>
      <point x="773" y="961" type="line"/>
      <point x="494" y="49" type="line"/>
      <point x="510" y="49" type="line"/>
      <point x="195" y="1080" type="line"/>
    </contour>
  </outline>
</glyph>
<glyph name="x" format="2">
  <advance width="1221"/>
  <unicode hex="0078"/>
  <anchor x="611" y="0" name="bottom"/>
  <anchor x="611" y="1080" name="top"/>
  <outline>
    <contour>
      <point x="180" y="1080" type="line"/>
      <point x="591" y="532" type="line"/>
      <point x="622" y="532" type="line"/>
      <point x="1033" y="1080" type="line"/>
      <point x="983" y="1080" type="line"/>
      <point x="594" y="557" type="line"/>
      <point x="629" y="557" type="line"/>
      <point x="240" y="1080" type="line"/>
    </contour>
    <contour>
      <point x="1053" y="0" type="line"/>
      <point x="628" y="568" type="line"/>
      <point x="593" y="568" type="line"/>
      <point x="168" y="0" type="line"/>
      <point x="218" y="0" type="line"/>
      <point x="621" y="543" type="line"/>
      <point x="590" y="543" type="line"/>
      <point x="993" y="0" type="line"/>
    </contour>
  </outline>
</glyph>
<glyph name="y" format="2">
  <advance width="1168"/>
  <unicode hex="0079"/>
  <anchor x="784" y="0" name="bottom"/>
  <anchor x="586" y="1080" name="top"/>
  <outline>
    <contour>
      <point x="144" y="1080" type="line"/>
      <point x="573" y="-36" type="line"/>
      <point x="591" y="45" type="line"/>
      <point x="195" y="1080" type="line"/>
    </contour>
    <contour>
      <point x="1024" y="1080" type="line"/>
      <point x="981" y="1080" type="line"/>
      <point x="586" y="45" type="line"/>
      <point x="574" y="21" type="line"/>
      <point x="511" y="-142" type="line" smooth="yes"/>
      <point x="458" y="-279"/>
      <point x="402" y="-380"/>
      <point x="266" y="-380" type="curve"/>
      <point x="266" y="-420" type="line"/>
      <point x="425" y="-420"/>
      <point x="488" y="-315"/>
      <point x="550" y="-154" type="curve" smooth="yes"/>
    </contour>
    <contour>
      <point x="266" y="-420" type="curve"/>
      <point x="266" y="-380" type="line"/>
      <point x="154" y="-380"/>
      <point x="88" y="-317"/>
      <point x="89" y="-216" type="curve"/>
      <point x="70" y="-231" type="line"/>
      <point x="128" y="-236"/>
      <point x="174" y="-218"/>
      <point x="174" y="-171" type="curve" smooth="yes"/>
      <point x="174" y="-139"/>
      <point x="152" y="-119"/>
      <point x="120" y="-119" type="curve" smooth="yes"/>
      <point x="77" y="-119"/>
      <point x="44" y="-154"/>
      <point x="44" y="-211" type="curve" smooth="yes"/>
      <point x="44" y="-351"/>
      <point x="137" y="-420"/>
    </contour>
  </outline>
</glyph>
<glyph name="z" format="2">
  <advance width="1134"/>
  <unicode hex="007A"/>
  <anchor x="566" y="0" name="bottom"/>
  <anchor x="566" y="540" name="center"/>
  <anchor x="582" y="1080" name="top"/>
  <outline>
    <contour>
      <point x="186" y="1080" type="line"/>
      <point x="186" y="1042" type="line"/>
      <point x="925" y="1042" type="line"/>
      <point x="988" y="1046" type="line"/>
      <point x="988" y="1080" type="line"/>
    </contour>
    <contour>
      <point x="138" y="34" type="line"/>
      <point x="138" y="0" type="line"/>
      <point x="990" y="0" type="line"/>
      <point x="990" y="38" type="line"/>
      <point x="201" y="38" type="line"/>
    </contour>
    <contour>
      <point x="138" y="34" type="line"/>
      <point x="201" y="38" type="line"/>
      <point x="988" y="1046" type="line"/>
      <point x="925" y="1042" type="line"/>
    </contour>
    <contour>
      <point x="358" y="1042" type="curve"/>
      <point x="186" y="1042" type="line"/>
      <point x="186" y="710" type="line"/>
      <point x="226" y="710" type="line"/>
      <point x="226" y="902" type="line" smooth="yes"/>
      <point x="226" y="1014"/>
      <point x="246" y="1042"/>
    </contour>
    <contour>
      <point x="818" y="38" type="curve"/>
      <point x="990" y="38" type="line"/>
      <point x="990" y="390" type="line"/>
      <point x="950" y="390" type="line"/>
      <point x="950" y="178" type="line" smooth="yes"/>
      <point x="950" y="66"/>
      <point x="930" y="38"/>
    </contour>
  </outline>
</glyph>
<glyph name="braceleft" format="2">
  <advance width="855"/>
  <unicode hex="007B"/>
  <outline>
    <contour>
      <point x="811" y="1560" type="line"/>
      <point x="786" y="1560" type="line" smooth="yes"/>
      <point x="530" y="1560"/>
      <point x="379" y="1445"/>
      <point x="402" y="1117" type="curve" smooth="yes"/>
      <point x="420" y="857" type="line" smooth="yes"/>
      <point x="432" y="682"/>
      <point x="331" y="588"/>
      <point x="88" y="588" type="curve"/>
      <point x="88" y="570" type="line"/>
      <point x="198" y="570" type="line"/>
      <point x="363" y="579"/>
      <point x="480" y="663"/>
      <point x="466" y="872" type="curve" smooth="yes"/>
      <point x="450" y="1119" type="line" smooth="yes"/>
      <point x="431" y="1416"/>
      <point x="551" y="1524"/>
      <point x="811" y="1524" type="curve"/>
    </contour>
    <contour>
      <point x="811" y="-420" type="line"/>
      <point x="811" y="-384" type="line"/>
      <point x="551" y="-384"/>
      <point x="431" y="-276"/>
      <point x="450" y="21" type="curve" smooth="yes"/>
      <point x="466" y="268" type="line" smooth="yes"/>
      <point x="480" y="477"/>
      <point x="363" y="561"/>
      <point x="198" y="570" type="curve"/>
      <point x="88" y="570" type="line"/>
      <point x="88" y="552" type="line"/>
      <point x="331" y="552"/>
      <point x="432" y="458"/>
      <point x="420" y="283" type="curve" smooth="yes"/>
      <point x="402" y="23" type="line" smooth="yes"/>
      <point x="379" y="-305"/>
      <point x="530" y="-420"/>
      <point x="786" y="-420" type="curve" smooth="yes"/>
    </contour>
  </outline>
</glyph>
<glyph name="cent" format="2">
  <advance width="1127"/>
  <unicode hex="00A2"/>
  <outline>
    <contour>
      <point x="1031" y="621" type="curve"/>
      <point x="991" y="621" type="line"/>
      <point x="977" y="440"/>
      <point x="860" y="236"/>
      <point x="590" y="236" type="curve" smooth="yes"/>
      <point x="330" y="236"/>
      <point x="160" y="430"/>
      <point x="160" y="752" type="curve" smooth="yes"/>
      <point x="160" y="1075"/>
      <point x="338" y="1270"/>
      <point x="604" y="1270" type="curve"/>
      <point x="604" y="1308" type="line"/>
      <point x="312" y="1308"/>
      <point x="110" y="1106"/>
      <point x="110" y="752" type="curve" smooth="yes"/>
      <point x="110" y="398"/>
      <point x="305" y="196"/>
      <point x="590" y="196" type="curve" smooth="yes"/>
      <point x="886" y="196"/>
      <point x="1015" y="409"/>
    </contour>
    <contour>
      <point x="604" y="1308" type="curve"/>
      <point x="604" y="1270" type="line"/>
      <point x="866" y="1270"/>
      <point x="974" y="1120"/>
      <point x="970" y="980" type="curve"/>
      <point x="987" y="1002" type="line"/>
      <point x="939" y="1008"/>
      <point x="890" y="989"/>
      <point x="890" y="942" type="curve" smooth="yes"/>
      <point x="890" y="910"/>
      <point x="911" y="890"/>
      <point x="944" y="890" type="curve" smooth="yes"/>
      <point x="988" y="890"/>
      <point x="1014" y="919"/>
      <point x="1014" y="984" type="curve" smooth="yes"/>
      <point x="1014" y="1144"/>
      <point x="884" y="1308"/>
    </contour>
    <contour>
      <point x="570" y="1500" type="line"/>
      <point x="570" y="0" type="line"/>
      <point x="614" y="0" type="line"/>
      <point x="614" y="1500" type="line"/>
    </contour>
  </outline>
</glyph>
<glyph name="yen" format="2">
  <advance width="1632"/>
  <unicode hex="00A5"/>
  <outline>
    <contour>
      <point x="292" y="510" type="line"/>
      <point x="292" y="472" type="line"/>
      <point x="1340" y="472" type="line"/>
      <point x="1340" y="510" type="line"/>
    </contour>
    <contour>
      <point x="909" y="740" type="line"/>
      <point x="1340" y="740" type="line"/>
      <point x="1340" y="778" type="line"/>
      <point x="930" y="778" type="line"/>
    </contour>
    <contour>
      <point x="709" y="778" type="line"/>
      <point x="292" y="778" type="line"/>
      <point x="292" y="740" type="line"/>
      <point x="734" y="740" type="line"/>
    </contour>
    <component base="Y"/>
  </outline>
</glyph>
<glyph name="degree" format="2">
  <advance width="742"/>
  <unicode hex="00B0"/>
  <outline>
    <contour>
      <point x="366" y="866" type="curve" smooth="yes"/>
      <point x="546" y="866"/>
      <point x="672" y="990"/>
      <point x="672" y="1192" type="curve" smooth="yes"/>
      <point x="672" y="1394"/>
      <point x="546" y="1518"/>
      <point x="366" y="1518" type="curve" smooth="yes"/>
      <point x="191" y="1518"/>
      <point x="70" y="1394"/>
      <point x="70" y="1192" type="curve" smooth="yes"/>
      <point x="70" y="990"/>
      <point x="191" y="866"/>
    </contour>
    <contour>
      <point x="366" y="900" type="curve" smooth="yes"/>
      <point x="216" y="900"/>
      <point x="114" y="1015"/>
      <point x="114" y="1192" type="curve" smooth="yes"/>
      <point x="114" y="1369"/>
      <point x="216" y="1484"/>
      <point x="366" y="1484" type="curve" smooth="yes"/>
      <point x="521" y="1484"/>
      <point x="628" y="1369"/>
      <point x="628" y="1192" type="curve" smooth="yes"/>
      <point x="628" y="1015"/>
      <point x="521" y="900"/>
    </contour>
  </outline>
</glyph>
<glyph name="guillemetright" format="2">
  <advance width="852"/>
  <unicode hex="00BB"/>
  <outline>
    <contour>
      <point x="84" y="960" type="line"/>
      <point x="133" y="960" type="line"/>
      <point x="428" y="570" type="line"/>
      <point x="133" y="180" type="line"/>
      <point x="84" y="180" type="line"/>
      <point x="368" y="570" type="line"/>
    </contour>
    <contour>
      <point x="434" y="960" type="line"/>
      <point x="483" y="960" type="line"/>
      <point x="778" y="570" type="line"/>
      <point x="483" y="180" type="line"/>
      <point x="434" y="180" type="line"/>
      <point x="718" y="570" type="line"/>
    </contour>
  </outline>
</glyph>
<glyph name="AE" format="2">
  <advance width="2343"/>
  <unicode hex="00C6"/>
  <anchor x="1241" y="1500" name="top"/>
  <outline>
    <contour>
      <point x="193" y="0" type="line"/>
      <point x="241" y="0" type="line"/>
      <point x="1217" y="1500" type="line"/>
      <point x="1172" y="1500" type="line"/>
    </contour>
    <contour>
      <point x="1193" y="520" type="line"/>
      <point x="1193" y="558" type="line"/>
      <point x="567" y="558" type="line"/>
      <point x="567" y="520" type="line"/>
    </contour>
    <contour>
      <point x="2185" y="0" type="line"/>
      <point x="2185" y="38" type="line"/>
      <point x="1241" y="38" type="line"/>
      <point x="1241" y="0" type="line"/>
    </contour>
    <contour>
      <point x="2167" y="1462" type="line"/>
      <point x="2167" y="1500" type="line"/>
      <point x="1241" y="1500" type="line"/>
      <point x="1241" y="1462" type="line"/>
    </contour>
    <contour>
      <point x="1241" y="0" type="line"/>
      <point x="1241" y="1500" type="line"/>
      <point x="1193" y="1500" type="line"/>
      <point x="1193" y="0" type="line"/>
    </contour>
    <contour>
      <point x="1781" y="772" type="line"/>
      <point x="1781" y="810" type="line"/>
      <point x="1241" y="810" type="line"/>
      <point x="1241" y="772" type="line"/>
    </contour>
    <contour>
      <point x="2001" y="1462" type="line"/>
      <point x="2101" y="1462"/>
      <point x="2127" y="1436"/>
      <point x="2127" y="1332" type="curve" smooth="yes"/>
      <point x="2127" y="940" type="line"/>
      <point x="2167" y="940" type="line"/>
      <point x="2167" y="1462" type="line"/>
    </contour>
    <contour>
      <point x="2019" y="38" type="curve"/>
      <point x="2185" y="38" type="line"/>
      <point x="2185" y="580" type="line"/>
      <point x="2145" y="580" type="line"/>
      <point x="2145" y="168" type="line" smooth="yes"/>
      <point x="2145" y="64"/>
      <point x="2119" y="38"/>
    </contour>
    <contour>
      <point x="1625" y="810" type="curve"/>
      <point x="1781" y="810" type="line"/>
      <point x="1781" y="1202" type="line"/>
      <point x="1743" y="1202" type="line"/>
      <point x="1743" y="932" type="line" smooth="yes"/>
      <point x="1743" y="834"/>
      <point x="1719" y="810"/>
    </contour>
    <contour>
      <point x="1625" y="772" type="line"/>
      <point x="1719" y="772"/>
      <point x="1743" y="748"/>
      <point x="1743" y="650" type="curve" smooth="yes"/>
      <point x="1743" y="308" type="line"/>
      <point x="1781" y="308" type="line"/>
      <point x="1781" y="772" type="line"/>
    </contour>
  </outline>
</glyph>
<glyph name="Thorn" format="2">
  <advance width="1452"/>
  <unicode hex="00DE"/>
  <outline>
    <contour>
      <point x="366" y="1500" type="line"/>
      <point x="318" y="1500" type="line"/>
      <point x="318" y="0" type="line"/>
      <point x="366" y="0" type="line"/>
    </contour>
    <contour>
      <point x="366" y="1182" type="line"/>
      <point x="366" y="1144" type="line"/>
      <point x="872" y="1144" type="line" smooth="yes"/>
      <point x="1138" y="1144"/>
      <point x="1306" y="1019"/>
      <point x="1306" y="773" type="curve" smooth="yes"/>
      <point x="1306" y="527"/>
      <point x="1138" y="402"/>
      <point x="872" y="402" type="curve" smooth="yes"/>
      <point x="366" y="402" type="line"/>
      <point x="366" y="364" type="line"/>
      <point x="884" y="364" type="line" smooth="yes"/>
      <point x="1166" y="364"/>
      <point x="1354" y="502"/>
      <point x="1354" y="773" type="curve" smooth="yes"/>
      <point x="1354" y="1044"/>
      <point x="1166" y="1182"/>
      <point x="884" y="1182" type="curve" smooth="yes"/>
    </contour>
  </outline>
</glyph>
<glyph name="ae" format="2">
  <advance width="1882"/>
  <unicode hex="00E6"/>
  <anchor x="928" y="1080" name="top"/>
  <outline>
    <contour>
      <point x="1763" y="380" type="curve"/>
      <point x="1723" y="380" type="line"/>
      <point x="1710" y="235"/>
      <point x="1605" y="24"/>
      <point x="1336" y="24" type="curve" smooth="yes"/>
      <point x="1087" y="24"/>
      <point x="920" y="217"/>
      <point x="920" y="540" type="curve" smooth="yes"/>
      <point x="920" y="863"/>
      <point x="1085" y="1058"/>
      <point x="1336" y="1058" type="curve"/>
      <point x="1336" y="1096" type="line"/>
      <point x="1062" y="1096"/>
      <point x="876" y="894"/>
      <point x="876" y="540" type="curve" smooth="yes"/>
      <point x="876" y="186"/>
      <point x="1064" y="-16"/>
      <point x="1336" y="-16" type="curve" smooth="yes"/>
      <point x="1628" y="-16"/>
      <point x="1749" y="214"/>
    </contour>
    <contour>
      <point x="1728" y="624" type="curve"/>
      <point x="1772" y="600" type="line"/>
      <point x="1772" y="892"/>
      <point x="1619" y="1096"/>
      <point x="1336" y="1096" type="curve"/>
      <point x="1336" y="1058" type="line"/>
      <point x="1595" y="1058"/>
      <point x="1719" y="864"/>
    </contour>
    <contour>
      <point x="904" y="624" type="line"/>
      <point x="904" y="586" type="line"/>
      <point x="1772" y="586" type="line"/>
      <point x="1772" y="600" type="line"/>
      <point x="1728" y="624" type="line"/>
    </contour>
    <contour>
      <point x="458" y="528" type="curve" smooth="yes"/>
      <point x="612" y="562" type="line" smooth="yes"/>
      <point x="767" y="596"/>
      <point x="835" y="628"/>
      <point x="872" y="704" type="curve"/>
      <point x="882" y="704" type="line"/>
      <point x="872" y="810" type="line"/>
      <point x="872" y="666"/>
      <point x="761" y="634"/>
      <point x="604" y="599" type="curve" smooth="yes"/>
      <point x="442" y="563" type="line" smooth="yes"/>
      <point x="249" y="520"/>
      <point x="116" y="443"/>
      <point x="116" y="255" type="curve" smooth="yes"/>
      <point x="116" y="86"/>
      <point x="252" y="-16"/>
      <point x="448" y="-16" type="curve" smooth="yes"/>
      <point x="708" y="-16"/>
      <point x="902" y="141"/>
      <point x="904" y="496" type="curve"/>
      <point x="872" y="536" type="line"/>
      <point x="872" y="162"/>
      <point x="680" y="22"/>
      <point x="452" y="22" type="curve" smooth="yes"/>
      <point x="284" y="22"/>
      <point x="164" y="107"/>
      <point x="164" y="255" type="curve" smooth="yes"/>
      <point x="164" y="415"/>
      <point x="269" y="486"/>
    </contour>
    <contour>
      <point x="872" y="818" type="line"/>
      <point x="872" y="761" type="line"/>
      <point x="862" y="704" type="line"/>
      <point x="872" y="704" type="line"/>
      <point x="872" y="412" type="line"/>
      <point x="890" y="417" type="line"/>
      <point x="918" y="417" type="line"/>
      <point x="918" y="800" type="line"/>
    </contour>
    <contour>
      <point x="176" y="812" type="curve" smooth="yes"/>
      <point x="176" y="747"/>
      <point x="209" y="710"/>
      <point x="253" y="710" type="curve" smooth="yes"/>
      <point x="287" y="710"/>
      <point x="307" y="731"/>
      <point x="307" y="765" type="curve" smooth="yes"/>
      <point x="307" y="809"/>
      <point x="255" y="834"/>
      <point x="204" y="827" type="curve"/>
      <point x="221" y="811" type="line"/>
      <point x="215" y="993"/>
      <point x="374" y="1058"/>
      <point x="554" y="1058" type="curve" smooth="yes"/>
      <point x="771" y="1058"/>
      <point x="872" y="967"/>
      <point x="872" y="818" type="curve"/>
      <point x="918" y="800" type="line"/>
      <point x="918" y="1005"/>
      <point x="781" y="1096"/>
      <point x="556" y="1096" type="curve" smooth="yes"/>
      <point x="353" y="1096"/>
      <point x="176" y="1013"/>
    </contour>
  </outline>
</glyph>
<glyph name="eth" format="2">
  <advance width="1224"/>
  <unicode hex="00F0"/>
  <outline>
    <contour>
      <point x="1080" y="540" type="line"/>
      <point x="1080" y="915"/>
      <point x="886" y="1096"/>
      <point x="606" y="1096" type="curve" smooth="yes"/>
      <point x="314" y="1096"/>
      <point x="110" y="894"/>
      <point x="110" y="540" type="curve" smooth="yes"/>
      <point x="110" y="186"/>
      <point x="314" y="-16"/>
      <point x="606" y="-16" type="curve" smooth="yes"/>
      <point x="898" y="-16"/>
      <point x="1102" y="186"/>
      <point x="1102" y="560" type="curve" smooth="yes"/>
      <point x="1102" y="1014"/>
      <point x="897" y="1361"/>
      <point x="496" y="1596" type="curve"/>
      <point x="472" y="1560" type="line"/>
      <point x="806" y="1365"/>
      <point x="1060" y="1055"/>
      <point x="1060" y="540" type="curve"/>
      <point x="1054" y="540" type="line"/>
      <point x="1054" y="217"/>
      <point x="872" y="22"/>
      <point x="606" y="22" type="curve" smooth="yes"/>
      <point x="340" y="22"/>
      <point x="158" y="217"/>
      <point x="158" y="540" type="curve" smooth="yes"/>
      <point x="158" y="863"/>
      <point x="340" y="1058"/>
      <point x="606" y="1058" type="curve" smooth="yes"/>
      <point x="872" y="1058"/>
      <point x="1054" y="863"/>
      <point x="1054" y="540" type="curve"/>
    </contour>
    <contour>
      <point x="1114" y="1397" type="line"/>
      <point x="1114" y="1438" type="line"/>
      <point x="416" y="1279" type="line"/>
      <point x="416" y="1238" type="line"/>
    </contour>
  </outline>
</glyph>
<glyph name="dcroat" format="2">
  <advance width="1291"/>
  <unicode hex="0111"/>
  <anchor x="654" y="0" name="bottom"/>
  <outline>
    <contour>
      <point x="1058" y="0" type="line"/>
      <point x="1058" y="1500" type="line"/>
      <point x="1010" y="1500" type="line"/>
      <point x="1010" y="736" type="line"/>
      <point x="1026" y="540" type="line"/>
      <point x="1014" y="324" type="line"/>
      <point x="1014" y="0" type="line"/>
    </contour>
    <contour>
      <point x="582" y="1096" type="curve" smooth="yes"/>
      <point x="308" y="1096"/>
      <point x="110" y="886"/>
      <point x="110" y="540" type="curve" smooth="yes"/>
      <point x="110" y="194"/>
      <point x="308" y="-16"/>
      <point x="582" y="-16" type="curve" smooth="yes"/>
      <point x="876" y="-16"/>
      <point x="1040" y="193"/>
      <point x="1040" y="539" type="curve"/>
      <point x="1040" y="541" type="line"/>
      <point x="1040" y="887"/>
      <point x="875" y="1096"/>
    </contour>
    <contour>
      <point x="582" y="1058" type="curve" smooth="yes"/>
      <point x="834" y="1058"/>
      <point x="1014" y="865"/>
      <point x="1014" y="540" type="curve" smooth="yes"/>
      <point x="1014" y="215"/>
      <point x="834" y="22"/>
      <point x="582" y="22" type="curve" smooth="yes"/>
      <point x="334" y="22"/>
      <point x="158" y="215"/>
      <point x="158" y="540" type="curve" smooth="yes"/>
      <point x="158" y="865"/>
      <point x="334" y="1058"/>
    </contour>
    <contour>
      <point x="675" y="1322" type="line"/>
      <point x="675" y="1282" type="line"/>
      <point x="1265" y="1282" type="line"/>
      <point x="1265" y="1322" type="line"/>
    </contour>
  </outline>
</glyph>
<glyph name="kgreenlandic" format="2">
  <advance width="1262"/>
  <unicode hex="0138"/>
  <outline>
    <contour>
      <point x="264" y="1080" type="line"/>
      <point x="264" y="0" type="line"/>
      <point x="312" y="0" type="line"/>
      <point x="312" y="1080" type="line"/>
    </contour>
    <contour>
      <point x="1082" y="1080" type="line"/>
      <point x="1019" y="1080" type="line"/>
      <point x="278" y="426" type="line"/>
      <point x="300" y="392" type="line"/>
    </contour>
    <contour>
      <point x="1119" y="0" type="line"/>
      <point x="551" y="646" type="line"/>
      <point x="518" y="614" type="line"/>
      <point x="1055" y="0" type="line"/>
    </contour>
  </outline>
</glyph>
<glyph name="Eng" format="2">
  <advance width="1695"/>
  <unicode hex="014A"/>
  <outline>
    <contour>
      <point x="339" y="0" type="line"/>
      <point x="339" y="1423" type="line"/>
      <point x="343" y="1500" type="line"/>
      <point x="299" y="1500" type="line"/>
      <point x="299" y="0" type="line"/>
    </contour>
    <contour>
      <point x="1377" y="77" type="line"/>
      <point x="343" y="1500" type="line"/>
      <point x="339" y="1423" type="line"/>
      <point x="1390" y="-23" type="line"/>
    </contour>
    <contour>
      <point x="1417" y="-110" type="line"/>
      <point x="1417" y="1500" type="line"/>
      <point x="1377" y="1500" type="line"/>
      <point x="1377" y="77" type="line"/>
      <point x="1377" y="-110" type="line"/>
    </contour>
    <contour>
      <point x="1167" y="-420" type="line"/>
      <point x="1332" y="-420"/>
      <point x="1417" y="-314"/>
      <point x="1417" y="-110" type="curve"/>
      <point x="1377" y="-110" type="line"/>
      <point x="1377" y="-292"/>
      <point x="1302" y="-382"/>
      <point x="1167" y="-382" type="curve"/>
    </contour>
    <contour>
      <point x="1167" y="-420" type="curve"/>
      <point x="1167" y="-382" type="line"/>
      <point x="1055" y="-382"/>
      <point x="989" y="-318"/>
      <point x="990" y="-216" type="curve"/>
      <point x="971" y="-231" type="line"/>
      <point x="1029" y="-236"/>
      <point x="1075" y="-218"/>
      <point x="1075" y="-171" type="curve" smooth="yes"/>
      <point x="1075" y="-139"/>
      <point x="1053" y="-119"/>
      <point x="1021" y="-119" type="curve" smooth="yes"/>
      <point x="978" y="-119"/>
      <point x="945" y="-154"/>
      <point x="945" y="-211" type="curve" smooth="yes"/>
      <point x="945" y="-351"/>
      <point x="1038" y="-420"/>
    </contour>
  </outline>
</glyph>
<glyph name="eng" format="2">
  <advance width="1242"/>
  <unicode hex="014B"/>
  <outline>
    <contour>
      <point x="264" y="1080" type="line"/>
      <point x="264" y="0" type="line"/>
      <point x="312" y="0" type="line"/>
      <point x="312" y="740" type="line"/>
      <point x="308" y="740" type="line"/>
      <point x="308" y="1080" type="line"/>
    </contour>
    <contour>
      <point x="285" y="582" type="curve"/>
      <point x="312" y="582" type="line"/>
      <point x="312" y="908"/>
      <point x="503" y="1058"/>
      <point x="708" y="1058" type="curve" smooth="yes"/>
      <point x="881" y="1058"/>
      <point x="986" y="967"/>
      <point x="986" y="774" type="curve" smooth="yes"/>
      <point x="986" y="-110" type="line"/>
      <point x="1034" y="-106" type="line"/>
      <point x="1034" y="774" type="line" smooth="yes"/>
      <point x="1034" y="998"/>
      <point x="900" y="1096"/>
      <point x="710" y="1096" type="curve" smooth="yes"/>
      <point x="483" y="1096"/>
      <point x="285" y="952"/>
    </contour>
    <contour>
      <point x="776" y="-420" type="line"/>
      <point x="946" y="-420"/>
      <point x="1034" y="-313"/>
      <point x="1034" y="-106" type="curve"/>
      <point x="986" y="-110" type="line"/>
      <point x="986" y="-292"/>
      <point x="911" y="-382"/>
      <point x="776" y="-382" type="curve"/>
    </contour>
    <contour>
      <point x="776" y="-420" type="curve"/>
      <point x="776" y="-382" type="line"/>
      <point x="664" y="-382"/>
      <point x="598" y="-318"/>
      <point x="599" y="-216" type="curve"/>
      <point x="580" y="-231" type="line"/>
      <point x="638" y="-236"/>
      <point x="684" y="-218"/>
      <point x="684" y="-171" type="curve" smooth="yes"/>
      <point x="684" y="-139"/>
      <point x="662" y="-119"/>
      <point x="630" y="-119" type="curve" smooth="yes"/>
      <point x="587" y="-119"/>
      <point x="554" y="-154"/>
      <point x="554" y="-211" type="curve" smooth="yes"/>
      <point x="554" y="-351"/>
      <point x="647" y="-420"/>
    </contour>
  </outline>
</glyph>
<glyph name="OE" format="2">
  <advance width="2326"/>
  <unicode hex="0152"/>
  <outline>
    <contour>
      <point x="2168" y="0" type="line"/>
      <point x="2168" y="38" type="line"/>
      <point x="1224" y="38" type="line"/>
      <point x="1224" y="0" type="line"/>
    </contour>
    <contour>
      <point x="2150" y="1462" type="line"/>
      <point x="2150" y="1500" type="line"/>
      <point x="1224" y="1500" type="line"/>
      <point x="1224" y="1462" type="line"/>
    </contour>
    <contour>
      <point x="1224" y="0" type="line"/>
      <point x="1224" y="1500" type="line"/>
      <point x="1176" y="1500" type="line"/>
      <point x="1176" y="0" type="line"/>
    </contour>
    <contour>
      <point x="1764" y="772" type="line"/>
      <point x="1764" y="810" type="line"/>
      <point x="1224" y="810" type="line"/>
      <point x="1224" y="772" type="line"/>
    </contour>
    <contour>
      <point x="1984" y="1462" type="line"/>
      <point x="2084" y="1462"/>
      <point x="2110" y="1436"/>
      <point x="2110" y="1332" type="curve" smooth="yes"/>
      <point x="2110" y="940" type="line"/>
      <point x="2150" y="940" type="line"/>
      <point x="2150" y="1462" type="line"/>
    </contour>
    <contour>
      <point x="2002" y="38" type="curve"/>
      <point x="2168" y="38" type="line"/>
      <point x="2168" y="580" type="line"/>
      <point x="2128" y="580" type="line"/>
      <point x="2128" y="168" type="line" smooth="yes"/>
      <point x="2128" y="64"/>
      <point x="2102" y="38"/>
    </contour>
    <contour>
      <point x="1608" y="810" type="curve"/>
      <point x="1764" y="810" type="line"/>
      <point x="1764" y="1202" type="line"/>
      <point x="1726" y="1202" type="line"/>
      <point x="1726" y="932" type="line" smooth="yes"/>
      <point x="1726" y="834"/>
      <point x="1702" y="810"/>
    </contour>
    <contour>
      <point x="1608" y="772" type="line"/>
      <point x="1702" y="772"/>
      <point x="1726" y="748"/>
      <point x="1726" y="650" type="curve" smooth="yes"/>
      <point x="1726" y="308" type="line"/>
      <point x="1764" y="308" type="line"/>
      <point x="1764" y="772" type="line"/>
    </contour>
    <contour>
      <point x="1176" y="0" type="line"/>
      <point x="1176" y="38" type="line"/>
      <point x="898" y="38" type="line" smooth="yes"/>
      <point x="464" y="38"/>
      <point x="180" y="315"/>
      <point x="180" y="750" type="curve" smooth="yes"/>
      <point x="180" y="1185"/>
      <point x="464" y="1462"/>
      <point x="898" y="1462" type="curve" smooth="yes"/>
      <point x="1176" y="1462" type="line"/>
      <point x="1176" y="1500" type="line"/>
      <point x="898" y="1500" type="line" smooth="yes"/>
      <point x="436" y="1500"/>
      <point x="132" y="1225"/>
      <point x="132" y="750" type="curve" smooth="yes"/>
      <point x="132" y="275"/>
      <point x="436" y="0"/>
      <point x="898" y="0" type="curve" smooth="yes"/>
    </contour>
  </outline>
</glyph>
<glyph name="oe" format="2">
  <advance width="2016"/>
  <unicode hex="0153"/>
  <outline>
    <contour>
      <point x="1897" y="380" type="curve"/>
      <point x="1857" y="380" type="line"/>
      <point x="1844" y="235"/>
      <point x="1739" y="24"/>
      <point x="1470" y="24" type="curve" smooth="yes"/>
      <point x="1221" y="24"/>
      <point x="1054" y="217"/>
      <point x="1054" y="540" type="curve" smooth="yes"/>
      <point x="1054" y="863"/>
      <point x="1219" y="1058"/>
      <point x="1470" y="1058" type="curve"/>
      <point x="1470" y="1096" type="line"/>
      <point x="1196" y="1096"/>
      <point x="1010" y="894"/>
      <point x="1010" y="540" type="curve" smooth="yes"/>
      <point x="1010" y="186"/>
      <point x="1198" y="-16"/>
      <point x="1470" y="-16" type="curve" smooth="yes"/>
      <point x="1762" y="-16"/>
      <point x="1883" y="214"/>
    </contour>
    <contour>
      <point x="1862" y="624" type="curve"/>
      <point x="1906" y="600" type="line"/>
      <point x="1906" y="892"/>
      <point x="1753" y="1096"/>
      <point x="1470" y="1096" type="curve"/>
      <point x="1470" y="1058" type="line"/>
      <point x="1729" y="1058"/>
      <point x="1853" y="864"/>
    </contour>
    <contour>
      <point x="1038" y="624" type="line"/>
      <point x="1038" y="586" type="line"/>
      <point x="1906" y="586" type="line"/>
      <point x="1906" y="600" type="line"/>
      <point x="1862" y="624" type="line"/>
    </contour>
    <contour>
      <point x="582" y="-16" type="curve" smooth="yes"/>
      <point x="861" y="-16"/>
      <point x="1048" y="186"/>
      <point x="1048" y="540" type="curve" smooth="yes"/>
      <point x="1048" y="894"/>
      <point x="861" y="1096"/>
      <point x="582" y="1096" type="curve" smooth="yes"/>
      <point x="302" y="1096"/>
      <point x="110" y="894"/>
      <point x="110" y="540" type="curve" smooth="yes"/>
      <point x="110" y="186"/>
      <point x="302" y="-16"/>
    </contour>
    <contour>
      <point x="582" y="22" type="curve" smooth="yes"/>
      <point x="328" y="22"/>
      <point x="158" y="217"/>
      <point x="158" y="540" type="curve" smooth="yes"/>
      <point x="158" y="863"/>
      <point x="328" y="1058"/>
      <point x="582" y="1058" type="curve" smooth="yes"/>
      <point x="836" y="1058"/>
      <point x="1006" y="863"/>
      <point x="1006" y="540" type="curve" smooth="yes"/>
      <point x="1006" y="217"/>
      <point x="836" y="22"/>
    </contour>
  </outline>
</glyph>
<glyph name="tbar" format="2">
  <advance width="1008"/>
  <unicode hex="0167"/>
  <outline>
    <contour>
      <point x="352" y="1380" type="line"/>
      <point x="352" y="1244" type="line" smooth="yes"/>
      <point x="352" y="1122"/>
      <point x="310" y="1080"/>
      <point x="192" y="1080" type="curve" smooth="yes"/>
      <point x="62" y="1080" type="line"/>
      <point x="62" y="1042" type="line"/>
      <point x="342" y="1042" type="line"/>
      <point x="342" y="282" type="line" smooth="yes"/>
      <point x="342" y="82"/>
      <point x="430" y="-20"/>
      <point x="594" y="-20" type="curve" smooth="yes"/>
      <point x="758" y="-20"/>
      <point x="846" y="85"/>
      <point x="846" y="282" type="curve" smooth="yes"/>
      <point x="846" y="330" type="line"/>
      <point x="806" y="330" type="line"/>
      <point x="806" y="282" type="line" smooth="yes"/>
      <point x="806" y="111"/>
      <point x="736" y="20"/>
      <point x="598" y="20" type="curve" smooth="yes"/>
      <point x="460" y="20"/>
      <point x="390" y="111"/>
      <point x="390" y="282" type="curve" smooth="yes"/>
      <point x="390" y="1380" type="line"/>
    </contour>
    <contour>
      <point x="390" y="1080" type="line"/>
      <point x="390" y="1042" type="line"/>
      <point x="940" y="1042" type="line"/>
      <point x="940" y="1080" type="line"/>
    </contour>
    <contour>
      <point x="62" y="676" type="line"/>
      <point x="62" y="636" type="line"/>
      <point x="940" y="636" type="line"/>
      <point x="940" y="676" type="line"/>
    </contour>
  </outline>
</glyph>
<glyph name="florin" format="2">
  <advance width="916"/>
  <unicode hex="0192"/>
  <outline>
    <contour>
      <point x="38" y="876" type="line"/>
      <point x="38" y="838" type="line"/>
      <point x="866" y="838" type="line"/>
      <point x="866" y="876" type="line"/>
    </contour>
    <contour>
      <point x="418" y="1112" type="line"/>
      <point x="418" y="-110" type="line"/>
      <point x="466" y="-106" type="line"/>
      <point x="466" y="1116" type="line"/>
    </contour>
    <contour>
      <point x="776" y="1516" type="line"/>
      <point x="546" y="1516"/>
      <point x="418" y="1378"/>
      <point x="418" y="1112" type="curve"/>
      <point x="466" y="1116" type="line"/>
      <point x="466" y="1359"/>
      <point x="576" y="1478"/>
      <point x="776" y="1478" type="curve"/>
    </contour>
    <contour>
      <point x="776" y="1516" type="curve"/>
      <point x="776" y="1478" type="line"/>
      <point x="905" y="1478"/>
      <point x="991" y="1413"/>
      <point x="987" y="1293" type="curve"/>
      <point x="1006" y="1309" type="line"/>
      <point x="946" y="1315"/>
      <point x="902" y="1294"/>
      <point x="902" y="1248" type="curve" smooth="yes"/>
      <point x="902" y="1216"/>
      <point x="926" y="1195"/>
      <point x="958" y="1195" type="curve" smooth="yes"/>
      <point x="1002" y="1195"/>
      <point x="1032" y="1232"/>
      <point x="1032" y="1289" type="curve" smooth="yes"/>
      <point x="1032" y="1443"/>
      <point x="920" y="1516"/>
    </contour>
    <contour>
      <point x="208" y="-420" type="line"/>
      <point x="378" y="-420"/>
      <point x="466" y="-313"/>
      <point x="466" y="-106" type="curve"/>
      <point x="418" y="-110" type="line"/>
      <point x="418" y="-292"/>
      <point x="343" y="-382"/>
      <point x="208" y="-382" type="curve"/>
    </contour>
    <contour>
      <point x="208" y="-420" type="curve"/>
      <point x="208" y="-382" type="line"/>
      <point x="96" y="-382"/>
      <point x="30" y="-318"/>
      <point x="31" y="-216" type="curve"/>
      <point x="12" y="-231" type="line"/>
      <point x="70" y="-236"/>
      <point x="116" y="-218"/>
      <point x="116" y="-171" type="curve" smooth="yes"/>
      <point x="116" y="-139"/>
      <point x="94" y="-119"/>
      <point x="62" y="-119" type="curve" smooth="yes"/>
      <point x="19" y="-119"/>
      <point x="-14" y="-154"/>
      <point x="-14" y="-211" type="curve" smooth="yes"/>
      <point x="-14" y="-351"/>
      <point x="79" y="-420"/>
    </contour>
  </outline>
</glyph>
<glyph name="jdotless" format="2">
  <advance width="534"/>
  <unicode hex="0237"/>
  <anchor x="267" y="-440" name="bottom"/>
  <anchor x="296" y="1080" name="top"/>
  <outline>
    <contour>
      <point x="278" y="1080" type="line"/>
      <point x="278" y="-110" type="line"/>
      <point x="326" y="-106" type="line"/>
      <point x="326" y="1080" type="line"/>
    </contour>
    <contour>
      <point x="68" y="-420" type="line"/>
      <point x="238" y="-420"/>
      <point x="326" y="-313"/>
      <point x="326" y="-106" type="curve"/>
      <point x="278" y="-110" type="line"/>
      <point x="278" y="-292"/>
      <point x="203" y="-382"/>
      <point x="68" y="-382" type="curve"/>
    </contour>
    <contour>
      <point x="68" y="-420" type="curve"/>
      <point x="68" y="-382" type="line"/>
      <point x="-44" y="-382"/>
      <point x="-110" y="-318"/>
      <point x="-109" y="-216" type="curve"/>
      <point x="-128" y="-231" type="line"/>
      <point x="-70" y="-236"/>
      <point x="-24" y="-218"/>
      <point x="-24" y="-171" type="curve" smooth="yes"/>
      <point x="-24" y="-139"/>
      <point x="-46" y="-119"/>
      <point x="-78" y="-119" type="curve" smooth="yes"/>
      <point x="-121" y="-119"/>
      <point x="-154" y="-154"/>
      <point x="-154" y="-211" type="curve" smooth="yes"/>
      <point x="-154" y="-351"/>
      <point x="-61" y="-420"/>
    </contour>
  </outline>
</glyph>
<glyph name="gravecomb" format="2">
  <unicode hex="0300"/>
  <anchor x="311" y="1080" name="_top"/>
  <outline>
    <contour>
      <point x="363" y="1230" type="line"/>
      <point x="136" y="1540" type="line"/>
      <point x="80" y="1540" type="line"/>
      <point x="316" y="1230" type="line"/>
    </contour>
  </outline>
</glyph>
<glyph name="circumflexcomb" format="2">
  <unicode hex="0302"/>
  <anchor x="343" y="1080" name="_top"/>
  <anchor x="636" y="1310" name="side"/>
  <anchor x="343" y="1520" name="top"/>
  <outline>
    <contour>
      <point x="606" y="1230" type="line"/>
      <point x="360" y="1540" type="line"/>
      <point x="326" y="1540" type="line"/>
      <point x="80" y="1230" type="line"/>
      <point x="127" y="1230" type="line"/>
      <point x="354" y="1513" type="line"/>
      <point x="329" y="1513" type="line"/>
      <point x="557" y="1230" type="line"/>
    </contour>
  </outline>
</glyph>
<glyph name="tildecomb" format="2">
  <unicode hex="0303"/>
  <anchor x="342" y="1080" name="_top"/>
  <anchor x="342" y="1458" name="top"/>
  <outline>
    <contour>
      <point x="80" y="1250" type="line"/>
      <point x="118" y="1250" type="line"/>
      <point x="118" y="1321" type="line" smooth="yes"/>
      <point x="118" y="1412"/>
      <point x="147" y="1452"/>
      <point x="204" y="1452" type="curve" smooth="yes"/>
      <point x="255" y="1452"/>
      <point x="287" y="1408"/>
      <point x="316" y="1366" type="curve" smooth="yes"/>
      <point x="335" y="1338" type="line"/>
      <point x="368" y="1364" type="line"/>
      <point x="349" y="1392" type="line" smooth="yes"/>
      <point x="317" y="1440"/>
      <point x="275" y="1492"/>
      <point x="204" y="1492" type="curve" smooth="yes"/>
      <point x="119" y="1492"/>
      <point x="80" y="1430"/>
      <point x="80" y="1325" type="curve" smooth="yes"/>
    </contour>
    <contour>
      <point x="604" y="1480" type="line"/>
      <point x="566" y="1480" type="line"/>
      <point x="566" y="1409" type="line" smooth="yes"/>
      <point x="566" y="1318"/>
      <point x="537" y="1278"/>
      <point x="480" y="1278" type="curve" smooth="yes"/>
      <point x="429" y="1278"/>
      <point x="397" y="1322"/>
      <point x="368" y="1364" type="curve" smooth="yes"/>
      <point x="349" y="1392" type="line"/>
      <point x="316" y="1366" type="line"/>
      <point x="335" y="1338" type="line" smooth="yes"/>
      <point x="367" y="1290"/>
      <point x="409" y="1238"/>
      <point x="480" y="1238" type="curve" smooth="yes"/>
      <point x="565" y="1238"/>
      <point x="604" y="1300"/>
      <point x="604" y="1405" type="curve" smooth="yes"/>
    </contour>
  </outline>
</glyph>
<glyph name="brevecomb" format="2">
  <unicode hex="0306"/>
  <anchor x="340" y="1080" name="_top"/>
  <anchor x="340" y="1480" name="side"/>
  <anchor x="340" y="1520" name="top"/>
  <outline>
    <contour>
      <point x="80" y="1540" type="line"/>
      <point x="80" y="1354"/>
      <point x="158" y="1220"/>
      <point x="340" y="1220" type="curve" smooth="yes"/>
      <point x="522" y="1220"/>
      <point x="610" y="1354"/>
      <point x="610" y="1540" type="curve"/>
      <point x="572" y="1540" type="line"/>
      <point x="572" y="1386"/>
      <point x="494" y="1258"/>
      <point x="340" y="1258" type="curve" smooth="yes"/>
      <point x="186" y="1258"/>
      <point x="118" y="1386"/>
      <point x="118" y="1540" type="curve"/>
    </contour>
  </outline>
</glyph>
<glyph name="dotaccentcomb" format="2">
  <unicode hex="0307"/>
  <anchor x="139" y="1080" name="_top"/>
  <anchor x="139" y="1442" name="top"/>
  <outline>
    <contour>
      <point x="139" y="1302" type="curve" smooth="yes"/>
      <point x="175" y="1302"/>
      <point x="198" y="1328"/>
      <point x="198" y="1364" type="curve" smooth="yes"/>
      <point x="198" y="1400"/>
      <point x="175" y="1426"/>
      <point x="139" y="1426" type="curve" smooth="yes"/>
      <point x="103" y="1426"/>
      <point x="80" y="1400"/>
      <point x="80" y="1364" type="curve" smooth="yes"/>
      <point x="80" y="1328"/>
      <point x="103" y="1302"/>
    </contour>
  </outline>
</glyph>
<glyph name="dieresiscomb" format="2">
  <unicode hex="0308"/>
  <anchor x="328" y="1080" name="_top"/>
  <anchor x="328" y="1450" name="top"/>
  <outline>
    <contour>
      <point x="139" y="1302" type="curve" smooth="yes"/>
      <point x="175" y="1302"/>
      <point x="198" y="1328"/>
      <point x="198" y="1364" type="curve" smooth="yes"/>
      <point x="198" y="1400"/>
      <point x="175" y="1426"/>
      <point x="139" y="1426" type="curve" smooth="yes"/>
      <point x="103" y="1426"/>
      <point x="80" y="1400"/>
      <point x="80" y="1364" type="curve" smooth="yes"/>
      <point x="80" y="1328"/>
      <point x="103" y="1302"/>
    </contour>
    <contour>
      <point x="517" y="1302" type="curve" smooth="yes"/>
      <point x="553" y="1302"/>
      <point x="576" y="1328"/>
      <point x="576" y="1364" type="curve" smooth="yes"/>
      <point x="576" y="1400"/>
      <point x="553" y="1426"/>
      <point x="517" y="1426" type="curve" smooth="yes"/>
      <point x="481" y="1426"/>
      <point x="458" y="1400"/>
      <point x="458" y="1364" type="curve" smooth="yes"/>
      <point x="458" y="1328"/>
      <point x="481" y="1302"/>
    </contour>
  </outline>
</glyph>
<glyph name="ringcomb" format="2">
  <unicode hex="030A"/>
  <anchor x="259" y="1100" name="_top"/>
  <anchor x="259" y="1530" name="top"/>
  <outline>
    <contour>
      <point x="259" y="1220" type="curve" smooth="yes"/>
      <point x="360" y="1220"/>
      <point x="438" y="1283"/>
      <point x="438" y="1393" type="curve" smooth="yes"/>
      <point x="438" y="1503"/>
      <point x="360" y="1566"/>
      <point x="259" y="1566" type="curve" smooth="yes"/>
      <point x="158" y="1566"/>
      <point x="80" y="1503"/>
      <point x="80" y="1393" type="curve" smooth="yes"/>
      <point x="80" y="1283"/>
      <point x="158" y="1220"/>
    </contour>
    <contour>
      <point x="259" y="1256" type="curve" smooth="yes"/>
      <point x="180" y="1256"/>
      <point x="124" y="1307"/>
      <point x="124" y="1393" type="curve" smooth="yes"/>
      <point x="124" y="1479"/>
      <point x="180" y="1530"/>
      <point x="259" y="1530" type="curve" smooth="yes"/>
      <point x="338" y="1530"/>
      <point x="394" y="1479"/>
      <point x="394" y="1393" type="curve" smooth="yes"/>
      <point x="394" y="1307"/>
      <point x="338" y="1256"/>
    </contour>
  </outline>
</glyph>
<glyph name="hungarumlautcomb" format="2">
  <unicode hex="030B"/>
  <anchor x="251" y="1080" name="_top"/>
  <outline>
    <contour>
      <point x="80" y="1230" type="line"/>
      <point x="128" y="1230" type="line"/>
      <point x="374" y="1540" type="line"/>
      <point x="318" y="1540" type="line"/>
    </contour>
    <contour>
      <point x="359" y="1230" type="line"/>
      <point x="408" y="1230" type="line"/>
      <point x="667" y="1540" type="line"/>
      <point x="609" y="1540" type="line"/>
    </contour>
  </outline>
</glyph>
<glyph name="caroncomb" format="2">
  <unicode hex="030C"/>
  <anchor x="343" y="1080" name="_top"/>
  <outline>
    <contour>
      <point x="80" y="1540" type="line"/>
      <point x="326" y="1230" type="line"/>
      <point x="360" y="1230" type="line"/>
      <point x="606" y="1540" type="line"/>
      <point x="559" y="1540" type="line"/>
      <point x="332" y="1257" type="line"/>
      <point x="357" y="1257" type="line"/>
      <point x="129" y="1540" type="line"/>
    </contour>
  </outline>
</glyph>
<glyph name="dblgravecomb" format="2">
  <unicode hex="030F"/>
  <anchor x="496" y="1080" name="_top"/>
  <outline>
    <contour>
      <point x="667" y="1230" type="line"/>
      <point x="429" y="1540" type="line"/>
      <point x="373" y="1540" type="line"/>
      <point x="619" y="1230" type="line"/>
    </contour>
    <contour>
      <point x="388" y="1230" type="line"/>
      <point x="138" y="1540" type="line"/>
      <point x="80" y="1540" type="line"/>
      <point x="339" y="1230" type="line"/>
    </contour>
  </outline>
</glyph>
<glyph name="horncomb" format="2">
  <unicode hex="031B"/>
  <anchor x="90" y="1080" name="_topright"/>
  <outline>
    <contour>
      <point x="80" y="1080" type="curve"/>
      <point x="80" y="1044" type="line"/>
      <point x="235" y="1044"/>
      <point x="314" y="1145"/>
      <point x="314" y="1282" type="curve" smooth="yes"/>
      <point x="314" y="1372"/>
      <point x="287" y="1417"/>
      <point x="235" y="1417" type="curve" smooth="yes"/>
      <point x="207" y="1417"/>
      <point x="190" y="1402"/>
      <point x="190" y="1380" type="curve" smooth="yes"/>
      <point x="190" y="1352"/>
      <point x="213" y="1327"/>
      <point x="268" y="1340" type="curve"/>
      <point x="301" y="1177"/>
      <point x="210" y="1080"/>
    </contour>
  </outline>
</glyph>
<glyph name="dotbelowcomb" format="2">
  <unicode hex="0323"/>
  <anchor x="139" y="0" name="_bottom"/>
  <outline>
    <contour>
      <point x="139" y="-346" type="curve" smooth="yes"/>
      <point x="175" y="-346"/>
      <point x="198" y="-320"/>
      <point x="198" y="-284" type="curve" smooth="yes"/>
      <point x="198" y="-248"/>
      <point x="175" y="-222"/>
      <point x="139" y="-222" type="curve" smooth="yes"/>
      <point x="103" y="-222"/>
      <point x="80" y="-248"/>
      <point x="80" y="-284" type="curve" smooth="yes"/>
      <point x="80" y="-320"/>
      <point x="103" y="-346"/>
    </contour>
  </outline>
</glyph>
<glyph name="commaaccentcomb" format="2">
  <unicode hex="0326"/>
  <anchor x="140" y="0" name="_bottom"/>
  <outline>
    <contour>
      <point x="90" y="-480" type="curve"/>
      <point x="133" y="-480" type="line"/>
      <point x="183" y="-417"/>
      <point x="200" y="-358"/>
      <point x="200" y="-303" type="curve" smooth="yes"/>
      <point x="200" y="-250"/>
      <point x="174" y="-222"/>
      <point x="138" y="-222" type="curve" smooth="yes"/>
      <point x="106" y="-222"/>
      <point x="80" y="-243"/>
      <point x="80" y="-281" type="curve" smooth="yes"/>
      <point x="80" y="-321"/>
      <point x="115" y="-342"/>
      <point x="157" y="-334" type="curve"/>
      <point x="152" y="-381"/>
      <point x="133" y="-425"/>
    </contour>
  </outline>
</glyph>
<glyph name="ogonekcomb" format="2">
  <unicode hex="0328"/>
  <anchor x="350" y="0" name="_ogonek"/>
  <outline>
    <contour>
      <point x="213" y="24" type="line"/>
      <point x="144" y="-56"/>
      <point x="80" y="-142"/>
      <point x="80" y="-248" type="curve" smooth="yes"/>
      <point x="80" y="-338"/>
      <point x="142" y="-395"/>
      <point x="230" y="-395" type="curve" smooth="yes"/>
      <point x="305" y="-395"/>
      <point x="350" y="-365"/>
      <point x="379" y="-340" type="curve"/>
      <point x="356" y="-311" type="line"/>
      <point x="313" y="-342"/>
      <point x="284" y="-357"/>
      <point x="232" y="-357" type="curve" smooth="yes"/>
      <point x="167" y="-357"/>
      <point x="124" y="-314"/>
      <point x="124" y="-244" type="curve" smooth="yes"/>
      <point x="124" y="-156"/>
      <point x="168" y="-84"/>
      <point x="240" y="0" type="curve"/>
    </contour>
  </outline>
</glyph>
<glyph name="slashlongcomb" format="2">
  <unicode hex="0338"/>
  <anchor x="610" y="1080" name="_top"/>
  <outline>
    <contour>
      <point x="1080" y="1080" type="line"/>
      <point x="80" y="0" type="line"/>
      <point x="140" y="0" type="line"/>
      <point x="1140" y="1080" type="line"/>
    </contour>
  </outline>
</glyph>
<glyph name="endash" format="2">
  <advance width="1370"/>
  <unicode hex="2013"/>
  <outline>
    <contour>
      <point x="120" y="590" type="line"/>
      <point x="120" y="550" type="line"/>
      <point x="1250" y="550" type="line"/>
      <point x="1250" y="590" type="line"/>
    </contour>
  </outline>
</glyph>
<glyph name="quoteleft" format="2">
  <advance width="341"/>
  <unicode hex="2018"/>
  <outline>
    <contour>
      <point x="231" y="1456" type="curve"/>
      <point x="188" y="1456" type="line"/>
      <point x="131" y="1375"/>
      <point x="110" y="1300"/>
      <point x="110" y="1229" type="curve" smooth="yes"/>
      <point x="110" y="1172"/>
      <point x="137" y="1148"/>
      <point x="173" y="1148" type="curve" smooth="yes"/>
      <point x="205" y="1148"/>
      <point x="231" y="1166"/>
      <point x="231" y="1205" type="curve" smooth="yes"/>
      <point x="231" y="1243"/>
      <point x="201" y="1264"/>
      <point x="155" y="1264" type="curve"/>
      <point x="161" y="1332"/>
      <point x="182" y="1382"/>
    </contour>
  </outline>
</glyph>
<glyph name="quoteright" format="2">
  <advance width="341"/>
  <unicode hex="2019"/>
  <outline>
    <contour>
      <point x="110" y="1208" type="curve"/>
      <point x="153" y="1208" type="line"/>
      <point x="210" y="1289"/>
      <point x="231" y="1364"/>
      <point x="231" y="1435" type="curve" smooth="yes"/>
      <point x="231" y="1492"/>
      <point x="204" y="1516"/>
      <point x="168" y="1516" type="curve" smooth="yes"/>
      <point x="136" y="1516"/>
      <point x="110" y="1498"/>
      <point x="110" y="1459" type="curve" smooth="yes"/>
      <point x="110" y="1421"/>
      <point x="140" y="1400"/>
      <point x="186" y="1400" type="curve"/>
      <point x="180" y="1332"/>
      <point x="159" y="1282"/>
    </contour>
  </outline>
</glyph>
<glyph name="bullet" format="2">
  <advance width="538"/>
  <unicode hex="2022"/>
  <outline>
    <contour>
      <point x="269" y="440" type="curve" smooth="yes"/>
      <point x="342" y="440"/>
      <point x="388" y="491"/>
      <point x="388" y="562" type="curve" smooth="yes"/>
      <point x="388" y="633"/>
      <point x="342" y="684"/>
      <point x="269" y="684" type="curve" smooth="yes"/>
      <point x="196" y="684"/>
      <point x="150" y="633"/>
      <point x="150" y="562" type="curve" smooth="yes"/>
      <point x="150" y="491"/>
      <point x="196" y="440"/>
    </contour>
  </outline>
</glyph>
<glyph name="ellipsis" format="2">
  <advance width="1014"/>
  <unicode hex="2026"/>
  <outline>
    <contour>
      <point x="169" y="-16" type="curve" smooth="yes"/>
      <point x="205" y="-16"/>
      <point x="228" y="10"/>
      <point x="228" y="46" type="curve" smooth="yes"/>
      <point x="228" y="82"/>
      <point x="205" y="108"/>
      <point x="169" y="108" type="curve" smooth="yes"/>
      <point x="133" y="108"/>
      <point x="110" y="82"/>
      <point x="110" y="46" type="curve" smooth="yes"/>
      <point x="110" y="10"/>
      <point x="133" y="-16"/>
    </contour>
    <contour>
      <point x="507" y="-16" type="curve" smooth="yes"/>
      <point x="543" y="-16"/>
      <point x="566" y="10"/>
      <point x="566" y="46" type="curve" smooth="yes"/>
      <point x="566" y="82"/>
      <point x="543" y="108"/>
      <point x="507" y="108" type="curve" smooth="yes"/>
      <point x="471" y="108"/>
      <point x="448" y="82"/>
      <point x="448" y="46" type="curve" smooth="yes"/>
      <point x="448" y="10"/>
      <point x="471" y="-16"/>
    </contour>
    <contour>
      <point x="845" y="-16" type="curve" smooth="yes"/>
      <point x="881" y="-16"/>
      <point x="904" y="10"/>
      <point x="904" y="46" type="curve" smooth="yes"/>
      <point x="904" y="82"/>
      <point x="881" y="108"/>
      <point x="845" y="108" type="curve" smooth="yes"/>
      <point x="809" y="108"/>
      <point x="786" y="82"/>
      <point x="786" y="46" type="curve" smooth="yes"/>
      <point x="786" y="10"/>
      <point x="809" y="-16"/>
    </contour>
  </outline>
</glyph>
<glyph name="perthousand" format="2">
  <advance width="2086"/>
  <unicode hex="2030"/>
  <outline>
    <contour>
      <point x="1253" y="1500" type="line"/>
      <point x="216" y="0" type="line"/>
      <point x="265" y="0" type="line"/>
      <point x="1302" y="1500" type="line"/>
    </contour>
    <contour>
      <point x="366" y="866" type="curve" smooth="yes"/>
      <point x="546" y="866"/>
      <point x="672" y="990"/>
      <point x="672" y="1192" type="curve" smooth="yes"/>
      <point x="672" y="1394"/>
      <point x="546" y="1518"/>
      <point x="366" y="1518" type="curve" smooth="yes"/>
      <point x="191" y="1518"/>
      <point x="70" y="1394"/>
      <point x="70" y="1192" type="curve" smooth="yes"/>
      <point x="70" y="990"/>
      <point x="191" y="866"/>
    </contour>
    <contour>
      <point x="366" y="900" type="curve" smooth="yes"/>
      <point x="216" y="900"/>
      <point x="114" y="1015"/>
      <point x="114" y="1192" type="curve" smooth="yes"/>
      <point x="114" y="1369"/>
      <point x="216" y="1484"/>
      <point x="366" y="1484" type="curve" smooth="yes"/>
      <point x="521" y="1484"/>
      <point x="628" y="1369"/>
      <point x="628" y="1192" type="curve" smooth="yes"/>
      <point x="628" y="1015"/>
      <point x="521" y="900"/>
    </contour>
    <contour>
      <point x="1150" y="-18" type="curve" smooth="yes"/>
      <point x="1330" y="-18"/>
      <point x="1452" y="106"/>
      <point x="1452" y="308" type="curve" smooth="yes"/>
      <point x="1452" y="510"/>
      <point x="1330" y="634"/>
      <point x="1150" y="634" type="curve" smooth="yes"/>
      <point x="975" y="634"/>
      <point x="856" y="510"/>
      <point x="856" y="308" type="curve" smooth="yes"/>
      <point x="856" y="106"/>
      <point x="975" y="-18"/>
    </contour>
    <contour>
      <point x="1152" y="16" type="curve" smooth="yes"/>
      <point x="1002" y="16"/>
      <point x="900" y="131"/>
      <point x="900" y="308" type="curve" smooth="yes"/>
      <point x="900" y="485"/>
      <point x="1002" y="600"/>
      <point x="1152" y="600" type="curve" smooth="yes"/>
      <point x="1307" y="600"/>
      <point x="1414" y="485"/>
      <point x="1414" y="308" type="curve" smooth="yes"/>
      <point x="1414" y="131"/>
      <point x="1307" y="16"/>
    </contour>
    <contour>
      <point x="1712" y="-18" type="curve" smooth="yes"/>
      <point x="1892" y="-18"/>
      <point x="2016" y="106"/>
      <point x="2016" y="308" type="curve" smooth="yes"/>
      <point x="2016" y="510"/>
      <point x="1892" y="634"/>
      <point x="1712" y="634" type="curve" smooth="yes"/>
      <point x="1537" y="634"/>
      <point x="1420" y="510"/>
      <point x="1420" y="308" type="curve" smooth="yes"/>
      <point x="1420" y="106"/>
      <point x="1537" y="-18"/>
    </contour>
    <contour>
      <point x="1710" y="16" type="curve" smooth="yes"/>
      <point x="1560" y="16"/>
      <point x="1458" y="131"/>
      <point x="1458" y="308" type="curve" smooth="yes"/>
      <point x="1458" y="485"/>
      <point x="1560" y="600"/>
      <point x="1710" y="600" type="curve" smooth="yes"/>
      <point x="1865" y="600"/>
      <point x="1972" y="485"/>
      <point x="1972" y="308" type="curve" smooth="yes"/>
      <point x="1972" y="131"/>
      <point x="1865" y="16"/>
    </contour>
  </outline>
</glyph>
<glyph name="minute" format="2">
  <advance width="306"/>
  <unicode hex="2032"/>
  <outline>
    <contour>
      <point x="102" y="990" type="line"/>
      <point x="142" y="990" type="line"/>
      <point x="204" y="1500" type="line"/>
      <point x="157" y="1500" type="line"/>
    </contour>
  </outline>
</glyph>
<glyph name="second" format="2">
  <advance width="586"/>
  <unicode hex="2033"/>
  <outline>
    <contour>
      <point x="102" y="990" type="line"/>
      <point x="142" y="990" type="line"/>
      <point x="204" y="1500" type="line"/>
      <point x="157" y="1500" type="line"/>
    </contour>
    <contour>
      <point x="382" y="990" type="line"/>
      <point x="422" y="990" type="line"/>
      <point x="484" y="1500" type="line"/>
      <point x="437" y="1500" type="line"/>
    </contour>
  </outline>
</glyph>
<glyph name="guilsinglright" format="2">
  <advance width="542"/>
  <unicode hex="203A"/>
  <outline>
    <contour>
      <point x="84" y="960" type="line"/>
      <point x="136" y="960" type="line"/>
      <point x="468" y="570" type="line"/>
      <point x="136" y="180" type="line"/>
      <point x="84" y="180" type="line"/>
      <point x="407" y="570" type="line"/>
    </contour>
  </outline>
</glyph>
<glyph name="fraction" format="2">
  <advance width="1206"/>
  <unicode hex="2044"/>
  <outline>
    <contour>
      <point x="1097" y="1500" type="line"/>
      <point x="60" y="0" type="line"/>
      <point x="109" y="0" type="line"/>
      <point x="1146" y="1500" type="line"/>
    </contour>
  </outline>
</glyph>
<glyph name="colonsign" format="2">
  <advance width="1610"/>
  <unicode hex="20A1"/>
  <outline>
    <contour>
      <point x="818" y="1720" type="line"/>
      <point x="558" y="-220" type="line"/>
      <point x="600" y="-220" type="line"/>
      <point x="860" y="1720" type="line"/>
    </contour>
    <contour>
      <point x="1062" y="1720" type="line"/>
      <point x="802" y="-220" type="line"/>
      <point x="844" y="-220" type="line"/>
      <point x="1104" y="1720" type="line"/>
    </contour>
    <component base="C"/>
  </outline>
</glyph>
<glyph name="franc" format="2">
  <advance width="1373"/>
  <unicode hex="20A3"/>
  <outline>
    <contour>
      <point x="1267" y="1462" type="line"/>
      <point x="1267" y="1500" type="line"/>
      <point x="347" y="1500" type="line"/>
      <point x="347" y="1462" type="line"/>
    </contour>
    <contour>
      <point x="887" y="852" type="line"/>
      <point x="887" y="890" type="line"/>
      <point x="347" y="890" type="line"/>
      <point x="347" y="852" type="line"/>
    </contour>
    <contour>
      <point x="1101" y="1462" type="line"/>
      <point x="1201" y="1462"/>
      <point x="1227" y="1436"/>
      <point x="1227" y="1332" type="curve" smooth="yes"/>
      <point x="1227" y="940" type="line"/>
      <point x="1267" y="940" type="line"/>
      <point x="1267" y="1462" type="line"/>
    </contour>
    <contour>
      <point x="731" y="890" type="curve"/>
      <point x="887" y="890" type="line"/>
      <point x="887" y="1182" type="line"/>
      <point x="849" y="1182" type="line"/>
      <point x="849" y="1012" type="line" smooth="yes"/>
      <point x="849" y="914"/>
      <point x="825" y="890"/>
    </contour>
    <contour>
      <point x="299" y="1500" type="line"/>
      <point x="299" y="0" type="line"/>
      <point x="347" y="0" type="line"/>
      <point x="347" y="1500" type="line"/>
    </contour>
    <contour>
      <point x="731" y="852" type="line"/>
      <point x="825" y="852"/>
      <point x="849" y="828"/>
      <point x="849" y="730" type="curve" smooth="yes"/>
      <point x="849" y="560" type="line"/>
      <point x="887" y="560" type="line"/>
      <point x="887" y="852" type="line"/>
    </contour>
    <contour>
      <point x="46" y="402" type="line"/>
      <point x="46" y="364" type="line"/>
      <point x="998" y="364" type="line"/>
      <point x="998" y="402" type="line"/>
    </contour>
  </outline>
</glyph>
<glyph name="naira" format="2">
  <advance width="1719"/>
  <unicode hex="20A6"/>
  <outline>
    <contour>
      <point x="46" y="646" type="line"/>
      <point x="46" y="608" type="line"/>
      <point x="948" y="608" type="line"/>
      <point x="948" y="646" type="line"/>
    </contour>
    <contour>
      <point x="46" y="934" type="line"/>
      <point x="46" y="896" type="line"/>
      <point x="735" y="896" type="line"/>
      <point x="735" y="934" type="line"/>
    </contour>
    <contour>
      <point x="735" y="934" type="line"/>
      <point x="735" y="896" type="line"/>
      <point x="1665" y="896" type="line"/>
      <point x="1665" y="934" type="line"/>
    </contour>
    <contour>
      <point x="948" y="646" type="line"/>
      <point x="948" y="608" type="line"/>
      <point x="1665" y="608" type="line"/>
      <point x="1665" y="646" type="line"/>
    </contour>
    <component base="N"/>
  </outline>
</glyph>
<glyph name="won" format="2">
  <advance width="2264"/>
  <unicode hex="20A9"/>
  <outline>
    <contour>
      <point x="1233" y="896" type="line"/>
      <point x="2218" y="896" type="line"/>
      <point x="2218" y="934" type="line"/>
      <point x="1233" y="934" type="line"/>
    </contour>
    <contour>
      <point x="46" y="646" type="line"/>
      <point x="46" y="608" type="line"/>
      <point x="1331" y="608" type="line"/>
      <point x="1331" y="646" type="line"/>
    </contour>
    <contour>
      <point x="1331" y="646" type="line"/>
      <point x="1331" y="608" type="line"/>
      <point x="2218" y="608" type="line"/>
      <point x="2218" y="646" type="line"/>
    </contour>
    <contour>
      <point x="1233" y="934" type="line"/>
      <point x="46" y="934" type="line"/>
      <point x="46" y="896" type="line"/>
      <point x="1233" y="896" type="line"/>
    </contour>
    <component base="W" xOffset="17"/>
  </outline>
</glyph>
<glyph name="euro" format="2">
  <advance width="1804"/>
  <unicode hex="20AC"/>
  <outline>
    <contour>
      <point x="104" y="906" type="line"/>
      <point x="96" y="868" type="line"/>
      <point x="1146" y="868" type="line"/>
      <point x="1154" y="906" type="line"/>
    </contour>
    <contour>
      <point x="54" y="670" type="line"/>
      <point x="46" y="632" type="line"/>
      <point x="1096" y="632" type="line"/>
      <point x="1104" y="670" type="line"/>
    </contour>
    <component base="C" xOffset="194"/>
  </outline>
</glyph>
<glyph name="peso" format="2">
  <advance width="1627"/>
  <unicode hex="20B1"/>
  <outline>
    <contour>
      <point x="347" y="1500" type="line"/>
      <point x="347" y="1462" type="line"/>
      <point x="813" y="1462" type="line" smooth="yes"/>
      <point x="1079" y="1462"/>
      <point x="1247" y="1337"/>
      <point x="1247" y="1091" type="curve" smooth="yes"/>
      <point x="1247" y="845"/>
      <point x="1079" y="720"/>
      <point x="813" y="720" type="curve" smooth="yes"/>
      <point x="347" y="720" type="line"/>
      <point x="347" y="682" type="line"/>
      <point x="825" y="682" type="line" smooth="yes"/>
      <point x="1107" y="682"/>
      <point x="1295" y="820"/>
      <point x="1295" y="1091" type="curve" smooth="yes"/>
      <point x="1295" y="1362"/>
      <point x="1107" y="1500"/>
      <point x="825" y="1500" type="curve" smooth="yes"/>
    </contour>
    <contour>
      <point x="299" y="1500" type="line"/>
      <point x="299" y="0" type="line"/>
      <point x="347" y="0" type="line"/>
      <point x="347" y="1500" type="line"/>
    </contour>
    <contour>
      <point x="48" y="1228" type="line"/>
      <point x="48" y="1190" type="line"/>
      <point x="1529" y="1190" type="line"/>
      <point x="1529" y="1228" type="line"/>
    </contour>
    <contour>
      <point x="48" y="992" type="line"/>
      <point x="48" y="954" type="line"/>
      <point x="1529" y="954" type="line"/>
      <point x="1529" y="992" type="line"/>
    </contour>
  </outline>
</glyph>
<glyph name="guarani" format="2">
  <advance width="1714"/>
  <unicode hex="20B2"/>
  <outline>
    <contour>
      <point x="816" y="1720" type="line"/>
      <point x="816" y="-220" type="line"/>
      <point x="860" y="-220" type="line"/>
      <point x="860" y="1720" type="line"/>
    </contour>
    <contour>
      <point x="1386" y="980" type="curve"/>
      <point x="1414" y="980" type="line"/>
      <point x="1406" y="1318"/>
      <point x="1192" y="1524"/>
      <point x="834" y="1524" type="curve" smooth="yes"/>
      <point x="435" y="1524"/>
      <point x="132" y="1240"/>
      <point x="132" y="750" type="curve" smooth="yes"/>
      <point x="132" y="260"/>
      <point x="439" y="-24"/>
      <point x="846" y="-24" type="curve" smooth="yes"/>
      <point x="1252" y="-24"/>
      <point x="1451" y="269"/>
      <point x="1451" y="662" type="curve"/>
      <point x="1422" y="662" type="line"/>
      <point x="1422" y="311"/>
      <point x="1233" y="14"/>
      <point x="846" y="14" type="curve" smooth="yes"/>
      <point x="465" y="14"/>
      <point x="180" y="302"/>
      <point x="180" y="750" type="curve" smooth="yes"/>
      <point x="180" y="1198"/>
      <point x="463" y="1486"/>
      <point x="834" y="1486" type="curve" smooth="yes"/>
      <point x="1199" y="1486"/>
      <point x="1365" y="1262"/>
    </contour>
    <contour>
      <point x="1430" y="1500" type="line"/>
      <point x="1390" y="1500" type="line"/>
      <point x="1390" y="1034" type="line"/>
      <point x="1414" y="980" type="line"/>
      <point x="1430" y="980" type="line"/>
    </contour>
    <contour>
      <point x="838" y="700" type="line"/>
      <point x="838" y="662" type="line"/>
      <point x="1692" y="662" type="line"/>
      <point x="1692" y="700" type="line"/>
    </contour>
    <contour>
      <point x="1462" y="662" type="line"/>
      <point x="1451" y="662" type="line"/>
      <point x="1422" y="504" type="line"/>
      <point x="1422" y="0" type="line"/>
      <point x="1462" y="0" type="line"/>
    </contour>
  </outline>
</glyph>
<glyph name="rupeeIndian" format="2">
  <advance width="1466"/>
  <unicode hex="20B9"/>
  <outline>
    <contour>
      <point x="116" y="1500" type="line"/>
      <point x="116" y="1462" type="line"/>
      <point x="642" y="1462" type="line" smooth="yes"/>
      <point x="908" y="1462"/>
      <point x="1076" y="1337"/>
      <point x="1076" y="1091" type="curve" smooth="yes"/>
      <point x="1076" y="845"/>
      <point x="908" y="720"/>
      <point x="642" y="720" type="curve" smooth="yes"/>
      <point x="116" y="720" type="line"/>
      <point x="116" y="688" type="line"/>
      <point x="654" y="688" type="line" smooth="yes"/>
      <point x="936" y="688"/>
      <point x="1124" y="824"/>
      <point x="1124" y="1091" type="curve" smooth="yes"/>
      <point x="1124" y="1362"/>
      <point x="936" y="1500"/>
      <point x="654" y="1500" type="curve" smooth="yes"/>
    </contour>
    <contour>
      <point x="116" y="1110" type="line"/>
      <point x="116" y="1072" type="line"/>
      <point x="1368" y="1072" type="line"/>
      <point x="1368" y="1110" type="line"/>
    </contour>
    <contour>
      <point x="116" y="701" type="line"/>
      <point x="116" y="682" type="line"/>
      <point x="462" y="682" type="line" smooth="yes"/>
      <point x="682" y="682"/>
      <point x="804" y="559"/>
      <point x="804" y="340" type="curve" smooth="yes"/>
      <point x="804" y="190" type="line" smooth="yes"/>
      <point x="804" y="62"/>
      <point x="863" y="-20"/>
      <point x="990" y="-20" type="curve" smooth="yes"/>
      <point x="1117" y="-20"/>
      <point x="1176" y="62"/>
      <point x="1176" y="190" type="curve" smooth="yes"/>
      <point x="1176" y="544" type="line"/>
      <point x="1136" y="544" type="line"/>
      <point x="1136" y="190" type="line" smooth="yes"/>
      <point x="1136" y="94"/>
      <point x="1094" y="18"/>
      <point x="994" y="18" type="curve" smooth="yes"/>
      <point x="892" y="18"/>
      <point x="852" y="94"/>
      <point x="852" y="190" type="curve" smooth="yes"/>
      <point x="852" y="332" type="line" smooth="yes"/>
      <point x="852" y="571"/>
      <point x="744" y="701"/>
      <point x="480" y="701" type="curve" smooth="yes"/>
    </contour>
  </outline>
</glyph>
<glyph name="ruble" format="2">
  <advance width="1433"/>
  <unicode hex="20BD"/>
  <outline>
    <contour>
      <point x="347" y="1500" type="line"/>
      <point x="347" y="1462" type="line"/>
      <point x="853" y="1462" type="line" smooth="yes"/>
      <point x="1119" y="1462"/>
      <point x="1287" y="1337"/>
      <point x="1287" y="1091" type="curve" smooth="yes"/>
      <point x="1287" y="845"/>
      <point x="1119" y="720"/>
      <point x="853" y="720" type="curve" smooth="yes"/>
      <point x="347" y="720" type="line"/>
      <point x="347" y="682" type="line"/>
      <point x="865" y="682" type="line" smooth="yes"/>
      <point x="1147" y="682"/>
      <point x="1335" y="820"/>
      <point x="1335" y="1091" type="curve" smooth="yes"/>
      <point x="1335" y="1362"/>
      <point x="1147" y="1500"/>
      <point x="865" y="1500" type="curve" smooth="yes"/>
    </contour>
    <contour>
      <point x="299" y="1500" type="line"/>
      <point x="299" y="0" type="line"/>
      <point x="347" y="0" type="line"/>
      <point x="347" y="1500" type="line"/>
    </contour>
    <contour>
      <point x="46" y="444" type="line"/>
      <point x="46" y="406" type="line"/>
      <point x="958" y="406" type="line"/>
      <point x="958" y="444" type="line"/>
    </contour>
  </outline>
</glyph>
<glyph name="numero" format="2">
  <advance width="2787"/>
  <unicode hex="2116"/>
  <outline>
    <contour>
      <point x="339" y="0" type="line"/>
      <point x="339" y="1423" type="line"/>
      <point x="343" y="1500" type="line"/>
      <point x="299" y="1500" type="line"/>
      <point x="299" y="0" type="line"/>
    </contour>
    <contour>
      <point x="1377" y="77" type="line"/>
      <point x="343" y="1500" type="line"/>
      <point x="339" y="1423" type="line"/>
      <point x="1373" y="0" type="line"/>
    </contour>
    <contour>
      <point x="1417" y="0" type="line"/>
      <point x="1417" y="1500" type="line"/>
      <point x="1377" y="1500" type="line"/>
      <point x="1377" y="77" type="line"/>
      <point x="1367" y="77" type="line"/>
      <point x="1373" y="0" type="line"/>
    </contour>
    <contour>
      <point x="2203" y="480" type="curve" smooth="yes"/>
      <point x="2481" y="480"/>
      <point x="2677" y="668"/>
      <point x="2677" y="996" type="curve" smooth="yes"/>
      <point x="2677" y="1324"/>
      <point x="2481" y="1512"/>
      <point x="2203" y="1512" type="curve" smooth="yes"/>
      <point x="1925" y="1512"/>
      <point x="1729" y="1324"/>
      <point x="1729" y="996" type="curve" smooth="yes"/>
      <point x="1729" y="668"/>
      <point x="1925" y="480"/>
    </contour>
    <contour>
      <point x="2203" y="518" type="curve" smooth="yes"/>
      <point x="1951" y="518"/>
      <point x="1777" y="697"/>
      <point x="1777" y="996" type="curve" smooth="yes"/>
      <point x="1777" y="1295"/>
      <point x="1951" y="1474"/>
      <point x="2203" y="1474" type="curve" smooth="yes"/>
      <point x="2455" y="1474"/>
      <point x="2629" y="1295"/>
      <point x="2629" y="996" type="curve" smooth="yes"/>
      <point x="2629" y="697"/>
      <point x="2455" y="518"/>
    </contour>
    <contour>
      <point x="1759" y="38" type="line"/>
      <point x="1759" y="0" type="line"/>
      <point x="2647" y="0" type="line"/>
      <point x="2647" y="38" type="line"/>
    </contour>
  </outline>
</glyph>
<glyph name="fi" format="2">
  <advance width="1345"/>
  <unicode hex="FB01"/>
  <outline>
    <contour>
      <point x="56" y="1080" type="line"/>
      <point x="56" y="1042" type="line"/>
      <point x="1112" y="1042" type="line"/>
      <point x="1112" y="1080" type="line"/>
    </contour>
    <contour>
      <point x="356" y="1112" type="line"/>
      <point x="356" y="0" type="line"/>
      <point x="404" y="0" type="line"/>
      <point x="404" y="1116" type="line"/>
    </contour>
    <contour>
      <point x="1064" y="1080" type="line"/>
      <point x="1064" y="0" type="line"/>
      <point x="1112" y="0" type="line"/>
      <point x="1112" y="1080" type="line"/>
    </contour>
    <contour>
      <point x="794" y="1526" type="line"/>
      <point x="513" y="1526"/>
      <point x="356" y="1385"/>
      <point x="356" y="1112" type="curve"/>
      <point x="404" y="1116" type="line"/>
      <point x="404" y="1366"/>
      <point x="542" y="1488"/>
      <point x="794" y="1488" type="curve"/>
    </contour>
    <contour>
      <point x="794" y="1526" type="curve"/>
      <point x="794" y="1488" type="line"/>
      <point x="972" y="1488"/>
      <point x="1091" y="1427"/>
      <point x="1085" y="1313" type="curve"/>
      <point x="1104" y="1329" type="line"/>
      <point x="1044" y="1335"/>
      <point x="1000" y="1314"/>
      <point x="1000" y="1268" type="curve" smooth="yes"/>
      <point x="1000" y="1236"/>
      <point x="1024" y="1215"/>
      <point x="1056" y="1215" type="curve" smooth="yes"/>
      <point x="1100" y="1215"/>
      <point x="1130" y="1252"/>
      <point x="1130" y="1309" type="curve" smooth="yes"/>
      <point x="1130" y="1456"/>
      <point x="983" y="1526"/>
    </contour>
  </outline>
</glyph>
<glyph name="fl" format="2">
  <advance width="1345"/>
  <unicode hex="FB02"/>
  <outline>
    <contour>
      <point x="56" y="1080" type="line"/>
      <point x="56" y="1042" type="line"/>
      <point x="804" y="1042" type="line"/>
      <point x="804" y="1080" type="line"/>
    </contour>
    <contour>
      <point x="356" y="1142" type="line"/>
      <point x="356" y="0" type="line"/>
      <point x="404" y="0" type="line"/>
      <point x="404" y="1146" type="line"/>
    </contour>
    <contour>
      <point x="684" y="1516" type="line"/>
      <point x="473" y="1516"/>
      <point x="356" y="1388"/>
      <point x="356" y="1142" type="curve"/>
      <point x="404" y="1146" type="line"/>
      <point x="404" y="1369"/>
      <point x="503" y="1478"/>
      <point x="684" y="1478" type="curve"/>
    </contour>
    <contour>
      <point x="684" y="1516" type="curve"/>
      <point x="684" y="1478" type="line"/>
      <point x="795" y="1478"/>
      <point x="868" y="1424"/>
      <point x="865" y="1323" type="curve"/>
      <point x="884" y="1339" type="line"/>
      <point x="824" y="1345"/>
      <point x="780" y="1324"/>
      <point x="780" y="1278" type="curve" smooth="yes"/>
      <point x="780" y="1246"/>
      <point x="804" y="1225"/>
      <point x="836" y="1225" type="curve" smooth="yes"/>
      <point x="880" y="1225"/>
      <point x="910" y="1262"/>
      <point x="910" y="1319" type="curve" smooth="yes"/>
      <point x="910" y="1453"/>
      <point x="811" y="1516"/>
    </contour>
    <contour>
      <point x="1064" y="1500" type="line"/>
      <point x="1064" y="0" type="line"/>
      <point x="1112" y="0" type="line"/>
      <point x="1112" y="1500" type="line"/>
    </contour>
  </outline>
</glyph>
<glyph name="_U" format="2">
  <advance width="1708"/>
  <anchor x="860" y="1500" name="top"/>
  <anchor x="1430" y="1500" name="topright"/>
  <outline>
    <contour>
      <point x="278" y="574" type="line" smooth="yes"/>
      <point x="278" y="192"/>
      <point x="472" y="-24"/>
      <point x="854" y="-24" type="curve" smooth="yes"/>
      <point x="1236" y="-24"/>
      <point x="1430" y="192"/>
      <point x="1430" y="574" type="curve" smooth="yes"/>
      <point x="1430" y="1500" type="line"/>
      <point x="1390" y="1500" type="line"/>
      <point x="1390" y="574" type="line" smooth="yes"/>
      <point x="1390" y="230"/>
      <point x="1221" y="14"/>
      <point x="858" y="14" type="curve" smooth="yes"/>
      <point x="495" y="14"/>
      <point x="326" y="230"/>
      <point x="326" y="574" type="curve" smooth="yes"/>
      <point x="326" y="1500" type="line"/>
      <point x="278" y="1500" type="line"/>
    </contour>
  </outline>
</glyph>
<glyph name="_U.horn" format="2">
  <advance width="444"/>
  <anchor x="90" y="1500" name="_topright"/>
  <outline>
    <contour>
      <point x="110" y="1500" type="curve" smooth="yes"/>
      <point x="80" y="1500" type="line"/>
      <point x="80" y="1464" type="line"/>
      <point x="106" y="1464" type="line" smooth="yes"/>
      <point x="298" y="1464"/>
      <point x="364" y="1552"/>
      <point x="364" y="1662" type="curve" smooth="yes"/>
      <point x="364" y="1750"/>
      <point x="329" y="1797"/>
      <point x="277" y="1797" type="curve" smooth="yes"/>
      <point x="249" y="1797"/>
      <point x="232" y="1782"/>
      <point x="232" y="1760" type="curve" smooth="yes"/>
      <point x="232" y="1732"/>
      <point x="260" y="1707"/>
      <point x="315" y="1720" type="curve"/>
      <point x="350" y="1606"/>
      <point x="297" y="1500"/>
    </contour>
  </outline>
</glyph>
<glyph name="_corner.Serif" format="2">
  <advance width="41"/>
  <anchor x="0" y="16" name="left"/>
  <outline>
    <contour>
      <point x="0" y="40" type="move"/>
      <point x="-230" y="36" type="line"/>
      <point x="-230" y="0" type="line"/>
      <point x="20" y="0" type="line"/>
    </contour>
  </outline>
</glyph>
<glyph name="_zero.slash" format="2">
  <advance width="1010"/>
  <anchor x="505" y="750" name="_center"/>
  <outline>
    <contour>
      <point x="899" y="1270" type="line"/>
      <point x="80" y="246" type="line"/>
      <point x="111" y="220" type="line"/>
      <point x="930" y="1244" type="line"/>
    </contour>
  </outline>
</glyph>
<glyph name="acutecomb.alt" format="2">
  <anchor x="132" y="1080" name="_side"/>
  <outline>
    <contour>
      <point x="80" y="1230" type="line"/>
      <point x="122" y="1230" type="line"/>
      <point x="277" y="1520" type="line"/>
      <point x="229" y="1520" type="line"/>
    </contour>
  </outline>
</glyph>
<glyph name="eight.dnom" format="2">
  <advance width="665"/>
  <outline>
    <contour>
      <point x="86" y="548" type="curve" smooth="yes"/>
      <point x="86" y="430"/>
      <point x="198" y="379"/>
      <point x="306" y="361" type="curve" smooth="yes"/>
      <point x="348" y="354" type="line" smooth="yes"/>
      <point x="455" y="336"/>
      <point x="558" y="291"/>
      <point x="558" y="187" type="curve" smooth="yes"/>
      <point x="558" y="85"/>
      <point x="467" y="22"/>
      <point x="333" y="22" type="curve" smooth="yes"/>
      <point x="197" y="22"/>
      <point x="102" y="86"/>
      <point x="102" y="189" type="curve" smooth="yes"/>
      <point x="102" y="298"/>
      <point x="212" y="353"/>
      <point x="316" y="364" type="curve"/>
      <point x="308" y="385" type="line"/>
      <point x="183" y="376"/>
      <point x="61" y="318"/>
      <point x="61" y="187" type="curve" smooth="yes"/>
      <point x="61" y="60"/>
      <point x="171" y="-10"/>
      <point x="331" y="-10" type="curve" smooth="yes"/>
      <point x="493" y="-10"/>
      <point x="604" y="61"/>
      <point x="604" y="192" type="curve" smooth="yes"/>
      <point x="604" y="321"/>
      <point x="482" y="372"/>
      <point x="357" y="393" type="curve" smooth="yes"/>
      <point x="315" y="400" type="line" smooth="yes"/>
      <point x="213" y="417"/>
      <point x="132" y="461"/>
      <point x="132" y="552" type="curve" smooth="yes"/>
      <point x="132" y="644"/>
      <point x="222" y="698"/>
      <point x="331" y="698" type="curve" smooth="yes"/>
      <point x="441" y="698"/>
      <point x="535" y="643"/>
      <point x="535" y="550" type="curve" smooth="yes"/>
      <point x="535" y="461"/>
      <point x="459" y="408"/>
      <point x="348" y="391" type="curve"/>
      <point x="355" y="370" type="line"/>
      <point x="470" y="383"/>
      <point x="575" y="438"/>
      <point x="575" y="553" type="curve" smooth="yes"/>
      <point x="575" y="667"/>
      <point x="464" y="730"/>
      <point x="333" y="730" type="curve" smooth="yes"/>
      <point x="201" y="730"/>
      <point x="86" y="667"/>
    </contour>
  </outline>
</glyph>
<glyph name="f_f" format="2">
  <advance width="1616"/>
  <outline>
    <contour>
      <point x="56" y="1080" type="line"/>
      <point x="56" y="1042" type="line"/>
      <point x="1512" y="1042" type="line"/>
      <point x="1512" y="1080" type="line"/>
    </contour>
    <contour>
      <point x="356" y="1124" type="line"/>
      <point x="356" y="0" type="line"/>
      <point x="404" y="0" type="line"/>
      <point x="404" y="1128" type="line"/>
    </contour>
    <contour>
      <point x="694" y="1508" type="line"/>
      <point x="477" y="1508"/>
      <point x="356" y="1377"/>
      <point x="356" y="1124" type="curve"/>
      <point x="404" y="1128" type="line"/>
      <point x="404" y="1358"/>
      <point x="507" y="1470"/>
      <point x="694" y="1470" type="curve"/>
    </contour>
    <contour>
      <point x="694" y="1508" type="curve"/>
      <point x="694" y="1470" type="line"/>
      <point x="811" y="1470"/>
      <point x="889" y="1412"/>
      <point x="885" y="1305" type="curve"/>
      <point x="904" y="1321" type="line"/>
      <point x="844" y="1327"/>
      <point x="800" y="1306"/>
      <point x="800" y="1260" type="curve" smooth="yes"/>
      <point x="800" y="1228"/>
      <point x="824" y="1207"/>
      <point x="856" y="1207" type="curve" smooth="yes"/>
      <point x="900" y="1207"/>
      <point x="930" y="1244"/>
      <point x="930" y="1301" type="curve" smooth="yes"/>
      <point x="930" y="1441"/>
      <point x="827" y="1508"/>
    </contour>
    <contour>
      <point x="1064" y="1112" type="line"/>
      <point x="1064" y="0" type="line"/>
      <point x="1112" y="0" type="line"/>
      <point x="1112" y="1116" type="line"/>
    </contour>
    <contour>
      <point x="1422" y="1516" type="line"/>
      <point x="1192" y="1516"/>
      <point x="1064" y="1378"/>
      <point x="1064" y="1112" type="curve"/>
      <point x="1112" y="1116" type="line"/>
      <point x="1112" y="1359"/>
      <point x="1222" y="1478"/>
      <point x="1422" y="1478" type="curve"/>
    </contour>
    <contour>
      <point x="1422" y="1516" type="curve"/>
      <point x="1422" y="1478" type="line"/>
      <point x="1551" y="1478"/>
      <point x="1637" y="1413"/>
      <point x="1633" y="1293" type="curve"/>
      <point x="1652" y="1309" type="line"/>
      <point x="1592" y="1315"/>
      <point x="1548" y="1294"/>
      <point x="1548" y="1248" type="curve" smooth="yes"/>
      <point x="1548" y="1216"/>
      <point x="1572" y="1195"/>
      <point x="1604" y="1195" type="curve" smooth="yes"/>
      <point x="1648" y="1195"/>
      <point x="1678" y="1232"/>
      <point x="1678" y="1289" type="curve" smooth="yes"/>
      <point x="1678" y="1443"/>
      <point x="1566" y="1516"/>
    </contour>
  </outline>
</glyph>
<glyph name="f_f_i" format="2">
  <advance width="2053"/>
  <outline>
    <contour>
      <point x="356" y="1124" type="line"/>
      <point x="356" y="0" type="line"/>
      <point x="404" y="0" type="line"/>
      <point x="404" y="1128" type="line"/>
    </contour>
    <contour>
      <point x="694" y="1508" type="line"/>
      <point x="477" y="1508"/>
      <point x="356" y="1377"/>
      <point x="356" y="1124" type="curve"/>
      <point x="404" y="1128" type="line"/>
      <point x="404" y="1358"/>
      <point x="507" y="1470"/>
      <point x="694" y="1470" type="curve"/>
    </contour>
    <contour>
      <point x="694" y="1508" type="curve"/>
      <point x="694" y="1470" type="line"/>
      <point x="811" y="1470"/>
      <point x="889" y="1412"/>
      <point x="885" y="1305" type="curve"/>
      <point x="904" y="1321" type="line"/>
      <point x="844" y="1327"/>
      <point x="800" y="1306"/>
      <point x="800" y="1260" type="curve" smooth="yes"/>
      <point x="800" y="1228"/>
      <point x="824" y="1207"/>
      <point x="856" y="1207" type="curve" smooth="yes"/>
      <point x="900" y="1207"/>
      <point x="930" y="1244"/>
      <point x="930" y="1301" type="curve" smooth="yes"/>
      <point x="930" y="1441"/>
      <point x="827" y="1508"/>
    </contour>
    <contour>
      <point x="1064" y="1112" type="line"/>
      <point x="1064" y="0" type="line"/>
      <point x="1112" y="0" type="line"/>
      <point x="1112" y="1116" type="line"/>
    </contour>
    <contour>
      <point x="1772" y="1080" type="line"/>
      <point x="1772" y="0" type="line"/>
      <point x="1820" y="0" type="line"/>
      <point x="1820" y="1080" type="line"/>
    </contour>
    <contour>
      <point x="56" y="1080" type="line"/>
      <point x="56" y="1042" type="line"/>
      <point x="1820" y="1042" type="line"/>
      <point x="1820" y="1080" type="line"/>
    </contour>
    <contour>
      <point x="1502" y="1526" type="line"/>
      <point x="1221" y="1526"/>
      <point x="1064" y="1385"/>
      <point x="1064" y="1112" type="curve"/>
      <point x="1112" y="1116" type="line"/>
      <point x="1112" y="1366"/>
      <point x="1250" y="1488"/>
      <point x="1502" y="1488" type="curve"/>
    </contour>
    <contour>
      <point x="1502" y="1526" type="curve"/>
      <point x="1502" y="1488" type="line"/>
      <point x="1680" y="1488"/>
      <point x="1799" y="1426"/>
      <point x="1793" y="1313" type="curve"/>
      <point x="1812" y="1329" type="line"/>
      <point x="1752" y="1335"/>
      <point x="1708" y="1314"/>
      <point x="1708" y="1268" type="curve" smooth="yes"/>
      <point x="1708" y="1236"/>
      <point x="1732" y="1215"/>
      <point x="1764" y="1215" type="curve" smooth="yes"/>
      <point x="1808" y="1215"/>
      <point x="1838" y="1252"/>
      <point x="1838" y="1309" type="curve" smooth="yes"/>
      <point x="1838" y="1456"/>
      <point x="1691" y="1526"/>
    </contour>
  </outline>
</glyph>
<glyph name="f_f_l" format="2">
  <advance width="2053"/>
  <outline>
    <contour>
      <point x="356" y="1124" type="line"/>
      <point x="356" y="0" type="line"/>
      <point x="404" y="0" type="line"/>
      <point x="404" y="1128" type="line"/>
    </contour>
    <contour>
      <point x="694" y="1508" type="line"/>
      <point x="477" y="1508"/>
      <point x="356" y="1377"/>
      <point x="356" y="1124" type="curve"/>
      <point x="404" y="1128" type="line"/>
      <point x="404" y="1358"/>
      <point x="507" y="1470"/>
      <point x="694" y="1470" type="curve"/>
    </contour>
    <contour>
      <point x="694" y="1508" type="curve"/>
      <point x="694" y="1470" type="line"/>
      <point x="811" y="1470"/>
      <point x="889" y="1412"/>
      <point x="885" y="1305" type="curve"/>
      <point x="904" y="1321" type="line"/>
      <point x="844" y="1327"/>
      <point x="800" y="1306"/>
      <point x="800" y="1260" type="curve" smooth="yes"/>
      <point x="800" y="1228"/>
      <point x="824" y="1207"/>
      <point x="856" y="1207" type="curve" smooth="yes"/>
      <point x="900" y="1207"/>
      <point x="930" y="1244"/>
      <point x="930" y="1301" type="curve" smooth="yes"/>
      <point x="930" y="1441"/>
      <point x="827" y="1508"/>
    </contour>
    <contour>
      <point x="1064" y="1142" type="line"/>
      <point x="1064" y="0" type="line"/>
      <point x="1112" y="0" type="line"/>
      <point x="1112" y="1146" type="line"/>
    </contour>
    <contour>
      <point x="1392" y="1516" type="line"/>
      <point x="1181" y="1516"/>
      <point x="1064" y="1388"/>
      <point x="1064" y="1142" type="curve"/>
      <point x="1112" y="1146" type="line"/>
      <point x="1112" y="1369"/>
      <point x="1211" y="1478"/>
      <point x="1392" y="1478" type="curve"/>
    </contour>
    <contour>
      <point x="1392" y="1516" type="curve"/>
      <point x="1392" y="1478" type="line"/>
      <point x="1503" y="1478"/>
      <point x="1576" y="1424"/>
      <point x="1573" y="1323" type="curve"/>
      <point x="1592" y="1339" type="line"/>
      <point x="1532" y="1345"/>
      <point x="1488" y="1324"/>
      <point x="1488" y="1278" type="curve" smooth="yes"/>
      <point x="1488" y="1246"/>
      <point x="1512" y="1225"/>
      <point x="1544" y="1225" type="curve" smooth="yes"/>
      <point x="1588" y="1225"/>
      <point x="1618" y="1262"/>
      <point x="1618" y="1319" type="curve" smooth="yes"/>
      <point x="1618" y="1453"/>
      <point x="1519" y="1516"/>
    </contour>
    <contour>
      <point x="1772" y="1500" type="line"/>
      <point x="1772" y="0" type="line"/>
      <point x="1820" y="0" type="line"/>
      <point x="1820" y="1500" type="line"/>
    </contour>
    <contour>
      <point x="56" y="1080" type="line"/>
      <point x="56" y="1042" type="line"/>
      <point x="1512" y="1042" type="line"/>
      <point x="1512" y="1080" type="line"/>
    </contour>
  </outline>
</glyph>
<glyph name="five.dnom" format="2">
  <advance width="673"/>
  <outline>
    <contour>
      <point x="78" y="228" type="line"/>
      <point x="81" y="87"/>
      <point x="178" y="-10"/>
      <point x="337" y="-10" type="curve" smooth="yes"/>
      <point x="498" y="-10"/>
      <point x="597" y="91"/>
      <point x="597" y="241" type="curve" smooth="yes"/>
      <point x="597" y="397"/>
      <point x="489" y="478"/>
      <point x="357" y="478" type="curve" smooth="yes"/>
      <point x="235" y="478"/>
      <point x="163" y="421"/>
      <point x="116" y="354" type="curve"/>
      <point x="131" y="329" type="line"/>
      <point x="173" y="388"/>
      <point x="243" y="439"/>
      <point x="345" y="439" type="curve" smooth="yes"/>
      <point x="462" y="439"/>
      <point x="551" y="366"/>
      <point x="551" y="241" type="curve" smooth="yes"/>
      <point x="551" y="121"/>
      <point x="474" y="30"/>
      <point x="331" y="30" type="curve" smooth="yes"/>
      <point x="193" y="30"/>
      <point x="116" y="123"/>
      <point x="110" y="228" type="curve"/>
    </contour>
    <contour>
      <point x="137" y="720" type="line"/>
      <point x="103" y="329" type="line"/>
      <point x="131" y="329" type="line"/>
      <point x="137" y="347" type="line"/>
      <point x="169" y="720" type="line"/>
    </contour>
    <contour>
      <point x="562" y="720" type="line"/>
      <point x="137" y="720" type="line"/>
      <point x="157" y="680" type="line"/>
      <point x="562" y="680" type="line"/>
    </contour>
    <contour>
      <point x="465" y="680" type="line"/>
      <point x="526" y="680"/>
      <point x="530" y="658"/>
      <point x="530" y="614" type="curve" smooth="yes"/>
      <point x="530" y="563" type="line"/>
      <point x="562" y="563" type="line"/>
      <point x="562" y="680" type="line"/>
    </contour>
  </outline>
</glyph>
<glyph name="four.dnom" format="2">
  <advance width="695"/>
  <outline>
    <contour>
      <point x="660" y="220" type="line"/>
      <point x="660" y="252" type="line"/>
      <point x="73" y="252" type="line"/>
      <point x="46" y="250" type="line"/>
      <point x="46" y="220" type="line"/>
    </contour>
    <contour>
      <point x="442" y="720" type="line"/>
      <point x="440" y="692" type="line"/>
      <point x="440" y="32" type="line"/>
      <point x="255" y="32" type="line"/>
      <point x="255" y="0" type="line"/>
      <point x="610" y="0" type="line"/>
      <point x="610" y="32" type="line"/>
      <point x="484" y="32" type="line"/>
      <point x="484" y="720" type="line"/>
    </contour>
    <contour>
      <point x="442" y="673" type="line"/>
      <point x="442" y="720" type="line"/>
      <point x="46" y="250" type="line"/>
      <point x="85" y="250" type="line"/>
    </contour>
  </outline>
</glyph>
<glyph name="gravecomb.alt" format="2">
  <anchor x="225" y="1080" name="_side"/>
  <outline>
    <contour>
      <point x="277" y="1230" type="line"/>
      <point x="128" y="1520" type="line"/>
      <point x="80" y="1520" type="line"/>
      <point x="235" y="1230" type="line"/>
    </contour>
  </outline>
</glyph>
<glyph name="hookabovecomb.alt" format="2">
  <anchor x="261" y="1080" name="_side"/>
  <outline>
    <contour>
      <point x="283" y="1210" type="line"/>
      <point x="280" y="1268"/>
      <point x="294" y="1296"/>
      <point x="349" y="1331" type="curve" smooth="yes"/>
      <point x="400" y="1363"/>
      <point x="454" y="1395"/>
      <point x="454" y="1476" type="curve" smooth="yes"/>
      <point x="454" y="1563"/>
      <point x="370" y="1606"/>
      <point x="269" y="1606" type="curve"/>
      <point x="268" y="1572" type="line"/>
      <point x="350" y="1572"/>
      <point x="410" y="1533"/>
      <point x="410" y="1476" type="curve" smooth="yes"/>
      <point x="410" y="1422"/>
      <point x="373" y="1393"/>
      <point x="326" y="1364" type="curve" smooth="yes"/>
      <point x="274" y="1332"/>
      <point x="237" y="1297"/>
      <point x="243" y="1210" type="curve"/>
    </contour>
    <contour>
      <point x="269" y="1606" type="line"/>
      <point x="161" y="1606"/>
      <point x="80" y="1552"/>
      <point x="80" y="1489" type="curve" smooth="yes"/>
      <point x="80" y="1452"/>
      <point x="104" y="1430"/>
      <point x="137" y="1430" type="curve" smooth="yes"/>
      <point x="168" y="1430"/>
      <point x="186" y="1449"/>
      <point x="186" y="1476" type="curve" smooth="yes"/>
      <point x="186" y="1506"/>
      <point x="164" y="1523"/>
      <point x="122" y="1523" type="curve"/>
      <point x="121" y="1499" type="line"/>
      <point x="136" y="1540"/>
      <point x="190" y="1572"/>
      <point x="268" y="1572" type="curve"/>
    </contour>
  </outline>
</glyph>
<glyph name="idotless.ss01" format="2">
  <advance width="713"/>
  <anchor x="424" y="0" name="bottom"/>
  <anchor x="251" y="1080" name="top"/>
  <outline>
    <contour>
      <point x="623" y="480" type="line"/>
      <point x="579" y="480" type="line"/>
      <point x="579" y="198" type="line" smooth="yes"/>
      <point x="579" y="95"/>
      <point x="531" y="24"/>
      <point x="434" y="24" type="curve" smooth="yes"/>
      <point x="337" y="24"/>
      <point x="289" y="95"/>
      <point x="289" y="198" type="curve" smooth="yes"/>
      <point x="289" y="1080" type="line"/>
      <point x="241" y="1080" type="line"/>
      <point x="241" y="198" type="line" smooth="yes"/>
      <point x="241" y="62"/>
      <point x="314" y="-16"/>
      <point x="432" y="-16" type="curve" smooth="yes"/>
      <point x="550" y="-16"/>
      <point x="623" y="62"/>
      <point x="623" y="198" type="curve" smooth="yes"/>
    </contour>
  </outline>
</glyph>
<glyph name="l.ss01" format="2">
  <advance width="693"/>
  <anchor x="236" y="0" name="bottom"/>
  <anchor x="236" y="780" name="center"/>
  <anchor x="225" y="1500" name="top"/>
  <anchor x="269" y="1500" name="topright"/>
  <outline>
    <contour>
      <point x="603" y="480" type="line"/>
      <point x="559" y="480" type="line"/>
      <point x="559" y="198" type="line" smooth="yes"/>
      <point x="559" y="95"/>
      <point x="511" y="24"/>
      <point x="414" y="24" type="curve" smooth="yes"/>
      <point x="317" y="24"/>
      <point x="269" y="95"/>
      <point x="269" y="198" type="curve" smooth="yes"/>
      <point x="269" y="1500" type="line"/>
      <point x="221" y="1500" type="line"/>
      <point x="221" y="198" type="line" smooth="yes"/>
      <point x="221" y="62"/>
      <point x="294" y="-16"/>
      <point x="412" y="-16" type="curve" smooth="yes"/>
      <point x="530" y="-16"/>
      <point x="603" y="62"/>
      <point x="603" y="198" type="curve" smooth="yes"/>
    </contour>
  </outline>
</glyph>
<glyph name="nine.dnom" format="2">
  <advance width="667"/>
  <outline>
    <contour>
      <point x="325" y="730" type="curve" smooth="yes"/>
      <point x="174" y="730"/>
      <point x="66" y="644"/>
      <point x="66" y="496" type="curve" smooth="yes"/>
      <point x="66" y="347"/>
      <point x="173" y="261"/>
      <point x="318" y="261" type="curve" smooth="yes"/>
      <point x="463" y="261"/>
      <point x="545" y="347"/>
      <point x="558" y="442" type="curve"/>
      <point x="603" y="396" type="line"/>
      <point x="603" y="613"/>
      <point x="503" y="730"/>
    </contour>
    <contour>
      <point x="325" y="696" type="curve" smooth="yes"/>
      <point x="449" y="696"/>
      <point x="538" y="624"/>
      <point x="538" y="499" type="curve" smooth="yes"/>
      <point x="538" y="370"/>
      <point x="449" y="297"/>
      <point x="325" y="297" type="curve" smooth="yes"/>
      <point x="200" y="297"/>
      <point x="111" y="368"/>
      <point x="111" y="499" type="curve" smooth="yes"/>
      <point x="111" y="626"/>
      <point x="200" y="696"/>
    </contour>
    <contour>
      <point x="91" y="142" type="curve" smooth="yes"/>
      <point x="91" y="43"/>
      <point x="182" y="-10"/>
      <point x="299" y="-10" type="curve" smooth="yes"/>
      <point x="479" y="-10"/>
      <point x="603" y="122"/>
      <point x="603" y="396" type="curve"/>
      <point x="558" y="442" type="line"/>
      <point x="573" y="148"/>
      <point x="450" y="24"/>
      <point x="296" y="24" type="curve" smooth="yes"/>
      <point x="207" y="24"/>
      <point x="122" y="61"/>
      <point x="122" y="145" type="curve"/>
      <point x="117" y="131" type="line"/>
      <point x="146" y="128"/>
      <point x="172" y="143"/>
      <point x="172" y="165" type="curve" smooth="yes"/>
      <point x="172" y="184"/>
      <point x="158" y="196"/>
      <point x="137" y="196" type="curve" smooth="yes"/>
      <point x="112" y="196"/>
      <point x="91" y="177"/>
    </contour>
  </outline>
</glyph>
<glyph name="one.dnom" format="2">
  <advance width="483"/>
  <outline>
    <contour>
      <point x="274" y="720" type="line"/>
      <point x="274" y="702" type="line" smooth="yes"/>
      <point x="274" y="585"/>
      <point x="232" y="578"/>
      <point x="152" y="578" type="curve" smooth="yes"/>
      <point x="48" y="578" type="line"/>
      <point x="48" y="546" type="line"/>
      <point x="268" y="546" type="line"/>
      <point x="268" y="32" type="line"/>
      <point x="96" y="32" type="line"/>
      <point x="96" y="0" type="line"/>
      <point x="451" y="0" type="line"/>
      <point x="451" y="32" type="line"/>
      <point x="312" y="32" type="line"/>
      <point x="312" y="720" type="line"/>
    </contour>
  </outline>
</glyph>
<glyph name="seven.dnom" format="2">
  <advance width="636"/>
  <outline>
    <contour>
      <point x="48" y="720" type="line"/>
      <point x="48" y="680" type="line"/>
      <point x="554" y="680" type="line"/>
      <point x="596" y="683" type="line"/>
      <point x="596" y="720" type="line"/>
    </contour>
    <contour>
      <point x="237" y="0" type="curve"/>
      <point x="285" y="0" type="line"/>
      <point x="298" y="315"/>
      <point x="437" y="502"/>
      <point x="596" y="683" type="curve"/>
      <point x="554" y="680" type="line"/>
      <point x="412" y="527"/>
      <point x="252" y="329"/>
    </contour>
    <contour>
      <point x="147" y="680" type="curve"/>
      <point x="48" y="680" type="line"/>
      <point x="48" y="557" type="line"/>
      <point x="80" y="557" type="line"/>
      <point x="80" y="610" type="line" smooth="yes"/>
      <point x="80" y="657"/>
      <point x="84" y="680"/>
    </contour>
  </outline>
</glyph>
<glyph name="six.dnom" format="2">
  <advance width="667"/>
  <outline>
    <contour>
      <point x="342" y="-10" type="curve" smooth="yes"/>
      <point x="493" y="-10"/>
      <point x="601" y="76"/>
      <point x="601" y="224" type="curve" smooth="yes"/>
      <point x="601" y="373"/>
      <point x="494" y="459"/>
      <point x="349" y="459" type="curve" smooth="yes"/>
      <point x="204" y="459"/>
      <point x="122" y="373"/>
      <point x="109" y="278" type="curve"/>
      <point x="64" y="324" type="line"/>
      <point x="64" y="107"/>
      <point x="164" y="-10"/>
    </contour>
    <contour>
      <point x="342" y="24" type="curve" smooth="yes"/>
      <point x="218" y="24"/>
      <point x="129" y="96"/>
      <point x="129" y="221" type="curve" smooth="yes"/>
      <point x="129" y="350"/>
      <point x="218" y="423"/>
      <point x="342" y="423" type="curve" smooth="yes"/>
      <point x="467" y="423"/>
      <point x="556" y="352"/>
      <point x="556" y="221" type="curve" smooth="yes"/>
      <point x="556" y="94"/>
      <point x="467" y="24"/>
    </contour>
    <contour>
      <point x="576" y="578" type="curve" smooth="yes"/>
      <point x="576" y="677"/>
      <point x="485" y="730"/>
      <point x="368" y="730" type="curve" smooth="yes"/>
      <point x="188" y="730"/>
      <point x="64" y="598"/>
      <point x="64" y="324" type="curve"/>
      <point x="109" y="278" type="line"/>
      <point x="94" y="572"/>
      <point x="217" y="696"/>
      <point x="371" y="696" type="curve" smooth="yes"/>
      <point x="460" y="696"/>
      <point x="545" y="659"/>
      <point x="545" y="575" type="curve"/>
      <point x="550" y="589" type="line"/>
      <point x="521" y="592"/>
      <point x="495" y="577"/>
      <point x="495" y="555" type="curve" smooth="yes"/>
      <point x="495" y="536"/>
      <point x="509" y="524"/>
      <point x="530" y="524" type="curve" smooth="yes"/>
      <point x="555" y="524"/>
      <point x="576" y="543"/>
    </contour>
  </outline>
</glyph>
<glyph name="slashlongcomb.case" format="2">
  <anchor x="790" y="1500" name="_top"/>
  <outline>
    <contour>
      <point x="1440" y="1500" type="line"/>
      <point x="80" y="0" type="line"/>
      <point x="140" y="0" type="line"/>
      <point x="1500" y="1500" type="line"/>
    </contour>
  </outline>
</glyph>
<glyph name="three.dnom" format="2">
  <advance width="651"/>
  <outline>
    <contour>
      <point x="61" y="222" type="line"/>
      <point x="63" y="73"/>
      <point x="179" y="-10"/>
      <point x="333" y="-10" type="curve" smooth="yes"/>
      <point x="486" y="-10"/>
      <point x="583" y="78"/>
      <point x="583" y="202" type="curve" smooth="yes"/>
      <point x="583" y="324"/>
      <point x="493" y="413"/>
      <point x="264" y="400" type="curve"/>
      <point x="264" y="377" type="line"/>
      <point x="455" y="383"/>
      <point x="537" y="311"/>
      <point x="537" y="204" type="curve" smooth="yes"/>
      <point x="537" y="105"/>
      <point x="461" y="30"/>
      <point x="328" y="30" type="curve" smooth="yes"/>
      <point x="201" y="30"/>
      <point x="97" y="99"/>
      <point x="92" y="222" type="curve"/>
    </contour>
    <contour>
      <point x="89" y="568" type="curve" smooth="yes"/>
      <point x="89" y="534"/>
      <point x="110" y="516"/>
      <point x="134" y="516" type="curve" smooth="yes"/>
      <point x="155" y="516"/>
      <point x="169" y="528"/>
      <point x="169" y="547" type="curve" smooth="yes"/>
      <point x="169" y="570"/>
      <point x="141" y="586"/>
      <point x="111" y="581" type="curve"/>
      <point x="120" y="571" type="line"/>
      <point x="125" y="653"/>
      <point x="209" y="696"/>
      <point x="323" y="696" type="curve" smooth="yes"/>
      <point x="434" y="696"/>
      <point x="514" y="639"/>
      <point x="514" y="556" type="curve" smooth="yes"/>
      <point x="514" y="459"/>
      <point x="434" y="409"/>
      <point x="264" y="409" type="curve"/>
      <point x="264" y="390" type="line"/>
      <point x="455" y="385"/>
      <point x="560" y="439"/>
      <point x="560" y="558" type="curve" smooth="yes"/>
      <point x="560" y="664"/>
      <point x="461" y="730"/>
      <point x="327" y="730" type="curve" smooth="yes"/>
      <point x="192" y="730"/>
      <point x="89" y="672"/>
    </contour>
  </outline>
</glyph>
<glyph name="two.dnom" format="2">
  <advance width="650"/>
  <outline>
    <contour>
      <point x="86" y="544" type="curve" smooth="yes"/>
      <point x="86" y="508"/>
      <point x="106" y="488"/>
      <point x="131" y="488" type="curve" smooth="yes"/>
      <point x="151" y="488"/>
      <point x="165" y="501"/>
      <point x="165" y="521" type="curve" smooth="yes"/>
      <point x="165" y="543"/>
      <point x="137" y="559"/>
      <point x="107" y="554" type="curve"/>
      <point x="118" y="543" type="line"/>
      <point x="116" y="653"/>
      <point x="223" y="694"/>
      <point x="330" y="694" type="curve" smooth="yes"/>
      <point x="437" y="694"/>
      <point x="532" y="640"/>
      <point x="531" y="532" type="curve"/>
      <point x="577" y="530" type="line"/>
      <point x="578" y="667"/>
      <point x="469" y="730"/>
      <point x="335" y="730" type="curve" smooth="yes"/>
      <point x="198" y="730"/>
      <point x="86" y="671"/>
    </contour>
    <contour>
      <point x="577" y="530" type="curve"/>
      <point x="531" y="532" type="line"/>
      <point x="532" y="415"/>
      <point x="424" y="366"/>
      <point x="349" y="326" type="curve" smooth="yes"/>
      <point x="266" y="282" type="line" smooth="yes"/>
      <point x="133" y="211"/>
      <point x="64" y="148"/>
      <point x="64" y="8" type="curve" smooth="yes"/>
      <point x="64" y="0" type="line"/>
      <point x="102" y="40" type="line"/>
      <point x="110" y="163"/>
      <point x="210" y="212"/>
      <point x="281" y="246" type="curve" smooth="yes"/>
      <point x="366" y="286" type="line" smooth="yes"/>
      <point x="467" y="334"/>
      <point x="578" y="398"/>
    </contour>
    <contour>
      <point x="578" y="0" type="line"/>
      <point x="578" y="40" type="line"/>
      <point x="102" y="40" type="line"/>
      <point x="64" y="8" type="line"/>
      <point x="64" y="0" type="line"/>
    </contour>
    <contour>
      <point x="479" y="40" type="curve"/>
      <point x="578" y="40" type="line"/>
      <point x="578" y="166" type="line"/>
      <point x="546" y="166" type="line"/>
      <point x="546" y="110" type="line" smooth="yes"/>
      <point x="546" y="60"/>
      <point x="539" y="40"/>
    </contour>
  </outline>
</glyph>
<glyph name="zero.dnom" format="2">
  <advance width="701"/>
  <outline>
    <contour>
      <point x="351" y="-12" type="curve" smooth="yes"/>
      <point x="522" y="-12"/>
      <point x="637" y="126"/>
      <point x="637" y="360" type="curve" smooth="yes"/>
      <point x="637" y="594"/>
      <point x="522" y="732"/>
      <point x="351" y="732" type="curve" smooth="yes"/>
      <point x="180" y="732"/>
      <point x="64" y="595"/>
      <point x="64" y="360" type="curve" smooth="yes"/>
      <point x="64" y="125"/>
      <point x="180" y="-12"/>
    </contour>
    <contour>
      <point x="351" y="22" type="curve" smooth="yes"/>
      <point x="201" y="22"/>
      <point x="110" y="156"/>
      <point x="110" y="360" type="curve" smooth="yes"/>
      <point x="110" y="564"/>
      <point x="201" y="698"/>
      <point x="351" y="698" type="curve" smooth="yes"/>
      <point x="500" y="698"/>
      <point x="591" y="564"/>
      <point x="591" y="360" type="curve" smooth="yes"/>
      <point x="591" y="156"/>
      <point x="500" y="22"/>
    </contour>
  </outline>
</glyph>
